<mxfile host="Electron" agent="Mozilla/5.0 (Windows NT 10.0; Win64; x64) AppleWebKit/537.36 (KHTML, like Gecko) draw.io/27.0.9 Chrome/134.0.6998.205 Electron/35.4.0 Safari/537.36" version="27.0.9" pages="3">
  <diagram name="Arquitetura" id="_f_pd2-31_VnJxBP8wNh">
    <mxGraphModel dx="-274" dy="841" grid="1" gridSize="10" guides="1" tooltips="1" connect="1" arrows="0" fold="1" page="1" pageScale="1" pageWidth="850" pageHeight="1100" math="0" shadow="0">
      <root>
        <mxCell id="0" />
        <mxCell id="1" parent="0" />
        <mxCell id="7goHa-sb4eDq98V5vhiT-2" value="&lt;span style=&quot;font-size: 12px;&quot;&gt;HUAWEI CLOUD&lt;/span&gt;" style="rounded=1;whiteSpace=wrap;html=1;fillColor=none;verticalAlign=top;align=left;spacingLeft=34;spacingTop=2;fontSize=12;fontStyle=0;fontColor=#282B33;strokeColor=#C7000B;fontFamily=Arial;absoluteArcSize=1;arcSize=20;" parent="1" vertex="1">
          <mxGeometry x="1725" y="255" width="885" height="680" as="geometry" />
        </mxCell>
        <mxCell id="7goHa-sb4eDq98V5vhiT-8" value="SÃ£o Paulo" style="rounded=1;whiteSpace=wrap;html=1;fillColor=none;strokeColor=#3771c8;dashed=1;absoluteArcSize=1;imageHeight=24;arcSize=20;fontColor=#3771c8;verticalAlign=top;align=left;spacingLeft=34;fontFamily=Arial;spacingTop=2;" parent="1" vertex="1">
          <mxGeometry x="1745" y="345" width="855" height="570" as="geometry" />
        </mxCell>
        <mxCell id="7goHa-sb4eDq98V5vhiT-5" value="vpc-litoralpuro-rj&lt;div&gt;192.168.0.0/16&lt;/div&gt;" style="rounded=1;whiteSpace=wrap;html=1;fillColor=none;strokeColor=#f85835;absoluteArcSize=1;imageHeight=24;arcSize=20;fontColor=#f85835;verticalAlign=top;align=left;spacingLeft=34;fontFamily=Arial;spacingTop=2;" parent="1" vertex="1">
          <mxGeometry x="1765" y="440" width="825" height="395" as="geometry" />
        </mxCell>
        <mxCell id="7goHa-sb4eDq98V5vhiT-11" value="subnet-litoralpuro-rj&lt;br&gt;&lt;div&gt;192.168.0.0/24&lt;/div&gt;" style="rounded=1;whiteSpace=wrap;html=1;fillColor=none;strokeColor=#5ecc49;absoluteArcSize=1;imageHeight=24;arcSize=20;fontColor=#5ecc49;verticalAlign=top;align=left;spacingLeft=34;fontFamily=Arial;spacingTop=2;" parent="1" vertex="1">
          <mxGeometry x="1775" y="485" width="700" height="340" as="geometry" />
        </mxCell>
        <mxCell id="7goHa-sb4eDq98V5vhiT-13" value="" style="rounded=0;whiteSpace=wrap;html=1;dashed=1;strokeColor=#999999;verticalAlign=top;dashPattern=12 12;fillColor=#CCE5FF;" parent="1" vertex="1">
          <mxGeometry x="1795" y="552.5" width="660" height="251" as="geometry" />
        </mxCell>
        <mxCell id="7goHa-sb4eDq98V5vhiT-25" value="NodePool - litoralpuro" style="rounded=0;whiteSpace=wrap;html=1;dashed=1;strokeColor=#999999;verticalAlign=top;" parent="1" vertex="1">
          <mxGeometry x="2127" y="620.5" width="303" height="170" as="geometry" />
        </mxCell>
        <mxCell id="7goHa-sb4eDq98V5vhiT-26" value="Pods litoralpuro" style="rounded=0;whiteSpace=wrap;html=1;dashed=1;strokeColor=#999999;verticalAlign=top;dashPattern=1 2;" parent="1" vertex="1">
          <mxGeometry x="2218" y="650.5" width="192" height="134" as="geometry" />
        </mxCell>
        <mxCell id="7goHa-sb4eDq98V5vhiT-27" value="" style="rounded=0;whiteSpace=wrap;html=1;fillColor=#dae8fc;strokeColor=#6c8ebf;" parent="1" vertex="1">
          <mxGeometry x="2267.25" y="684.5" width="64" height="40" as="geometry" />
        </mxCell>
        <mxCell id="7goHa-sb4eDq98V5vhiT-28" value="" style="rounded=0;whiteSpace=wrap;html=1;fillColor=#dae8fc;strokeColor=#6c8ebf;" parent="1" vertex="1">
          <mxGeometry x="2277.25" y="694.5" width="64" height="40" as="geometry" />
        </mxCell>
        <mxCell id="7goHa-sb4eDq98V5vhiT-29" value="" style="rounded=0;whiteSpace=wrap;html=1;fillColor=#dae8fc;strokeColor=#6c8ebf;" parent="1" vertex="1">
          <mxGeometry x="2287.25" y="704.5" width="64" height="40" as="geometry" />
        </mxCell>
        <mxCell id="7goHa-sb4eDq98V5vhiT-30" value="" style="rounded=0;whiteSpace=wrap;html=1;fillColor=#dae8fc;strokeColor=#6c8ebf;" parent="1" vertex="1">
          <mxGeometry x="2297.25" y="714.5" width="64" height="40" as="geometry" />
        </mxCell>
        <mxCell id="7goHa-sb4eDq98V5vhiT-31" value="POD" style="rounded=0;whiteSpace=wrap;html=1;fillColor=#dae8fc;strokeColor=#6c8ebf;" parent="1" vertex="1">
          <mxGeometry x="2307.25" y="724.5" width="64" height="40" as="geometry" />
        </mxCell>
        <mxCell id="7goHa-sb4eDq98V5vhiT-32" value="1 Nodes&#xa;(Worker)&#xa;s7n.xlarge.2&#xa;4 Vcpu&#xa;8 GiB" style="shape=image;verticalLabelPosition=bottom;verticalAlign=top;imageAspect=0;aspect=fixed;image=data:image/svg+xml,PHN2ZyB2ZXJzaW9uPSIxLjEiIHZpZXdCb3g9IjAgMCAyNCAyNCIgeG1sbnM9Imh0dHA6Ly93d3cudzMub3JnLzIwMDAvc3ZnIj4KPHRpdGxlPuiuoeeuly9FQ1M8L3RpdGxlPgo8ZyBmaWxsPSJub25lIiBmaWxsLXJ1bGU9ImV2ZW5vZGQiPgo8cmVjdCB3aWR0aD0iMjQuMDA3IiBoZWlnaHQ9IjI0LjAwNyIgcng9IjUuMDAxNCIgZmlsbD0iI0Y4NTgzNSIgZmlsbC1ydWxlPSJub256ZXJvIi8+CjxwYXRoIGQ9Im04LjAwNDcgMTguMDA1LTEuNzk4M2UtNCAtMC4wMDcxNTc3Yy0yLjIzMjEtMC4xMzIwNC00LjAwMzQtMi4wNzQ0LTQuMDAzNC00LjQ1MTIgMC0yLjQxOTMgMS44MzUyLTQuMzg4NSA0LjEyMzYtNC40NTY1IDAuNTUwNjMtMS43OTIgMi4xNTIxLTMuMDg4NCA0LjA0MTktMy4wODg0IDEuODk4MiAwIDMuNTA1NSAxLjMwNzkgNC4wNDkxIDMuMTEyMyAyLjEzMDQgMC4yMzg2IDMuNzg5OCAyLjEzMjEgMy43ODk4IDQuNDMyNiAwIDIuNDI3MS0xLjg0NzEgNC40MDEyLTQuMTQ1OCA0LjQ1NzFsLTAuMTAwMjMgMC4wMDEyMTc2aC03Ljc1NDd6IiBmaWxsPSIjZmZmIi8+CjxyZWN0IHg9IjYuNjQzMSIgeT0iMTEuMjI3IiB3aWR0aD0iMTAuNzU1IiBoZWlnaHQ9IjMuMjkwMiIgcng9IjEuNjQ1MSIgZmlsbD0iI0Y4NTgzNSIgZmlsbC1ydWxlPSJub256ZXJvIi8+CjxwYXRoIGQ9Im03LjY0NDggMTUuNTA3IDguNzY3IDAuMDM3NTE5YzAuMjAxMTQgOC42MDdlLTQgMC4zNjM0OSAwLjE2NTIzIDAuMzYyNjQgMC4zNjcxMy04LjI1M2UtNCAwLjE5MjcyLTAuMTUwMDYgMC4zNDk5OC0wLjMzODU2IDAuMzYzMTNsLTAuMDI3MTg0IDguODYzZS00IC04Ljc2Ny0wLjAzNzUxOWMtMC4yMDExNC04LjYwN2UtNCAtMC4zNjM0OS0wLjE2NTIzLTAuMzYyNjQtMC4zNjcxMyA4LjI1MjZlLTQgLTAuMTkyNzIgMC4xNTAwNi0wLjM0OTk4IDAuMzM4NTYtMC4zNjMxM2wwLjAyNzE4NC04Ljg2M2UtNHoiIGZpbGw9IiNGODU4MzUiIGZpbGwtcnVsZT0ibm9uemVybyIvPgo8Y2lyY2xlIGN4PSIxNS42NTUiIGN5PSIxMi45NDgiIHI9IjEuMDAwMyIgZmlsbD0iI2ZmZiIgZmlsbC1ydWxlPSJub256ZXJvIi8+CjwvZz4KPC9zdmc+Cg==" parent="1" vertex="1">
          <mxGeometry x="2150" y="650.5" width="40" height="40" as="geometry" />
        </mxCell>
        <mxCell id="7goHa-sb4eDq98V5vhiT-44" style="edgeStyle=orthogonalEdgeStyle;rounded=0;orthogonalLoop=1;jettySize=auto;html=1;entryX=0.5;entryY=0;entryDx=0;entryDy=0;" parent="1" target="7goHa-sb4eDq98V5vhiT-33" edge="1">
          <mxGeometry relative="1" as="geometry">
            <mxPoint x="2301" y="425" as="sourcePoint" />
          </mxGeometry>
        </mxCell>
        <mxCell id="7goHa-sb4eDq98V5vhiT-34" value="EIP 300 mbit/s" style="shape=image;verticalLabelPosition=bottom;verticalAlign=top;imageAspect=0;aspect=fixed;image=data:image/svg+xml,PHN2ZyB2ZXJzaW9uPSIxLjEiIHZpZXdCb3g9IjAgMCA3MiA3MiIgeG1sbnM9Imh0dHA6Ly93d3cudzMub3JnLzIwMDAvc3ZnIj4KPHRpdGxlPue9kee7nC9FSVA8L3RpdGxlPgo8ZyBmaWxsPSJub25lIiBmaWxsLXJ1bGU9ImV2ZW5vZGQiPgo8cmVjdCB3aWR0aD0iNzIiIGhlaWdodD0iNzIiIHJ4PSIxNiIgZmlsbD0iIzdEQ0MyOSIvPgo8cGF0aCBpZD0iYSIgZD0ibTM2IDEyYy0xMy4yIDAtMjQgMTAuOC0yNCAyNHMxMC44IDI0IDI0IDI0IDI0LTEwLjggMjQtMjQtMTAuOC0yNC0yNC0yNCIgZmlsbD0iI2ZmZiIvPgo8cGF0aCBkPSJtMjguOTA5IDQzLjYzNmMwLjMwMTI1IDAgMC41NDU0NS0wLjI0NDIxIDAuNTQ1NDUtMC41NDU0NXYtMTYuMzY0YzAtMC4zMDEyNS0wLjI0NDIxLTAuNTQ1NDUtMC41NDU0NS0wLjU0NTQ1cy0wLjU0NTQ1IDAuMjQ0MjEtMC41NDU0NSAwLjU0NTQ1djE2LjM2NGMwIDAuMzAxMjUgMC4yNDQyMSAwLjU0NTQ1IDAuNTQ1NDUgMC41NDU0NXptNy41OTA5LTE2LjM2NGg2LjU5MDljMi4xMDU1IDAgMy44MTgyIDEuNzEyNyAzLjgxODIgMy44MTgyIDAgMi4xMDU1LTEuNzEyNyAzLjgxODItMy44MTgyIDMuODE4MmgtNy4wOTA5di03LjEzNjRjMC0wLjI3NjE0IDAuMjIzODYtMC41IDAuNS0wLjV6bS0wLjUgOC43MjczaDcuMDkwOWMyLjcxMDkgMCA0LjkwOTEtMi4xOTgyIDQuOTA5MS00LjkwOTFzLTIuMTk4Mi00LjkwOTEtNC45MDkxLTQuOTA5MWgtNy42ODE4Yy0wLjI3NjE0IDAtMC41IDAuMjIzODYtMC41IDAuNXYxNi40MDljMCAwLjMwMTI1IDAuMjQ0MjEgMC41NDU0NSAwLjU0NTQ1IDAuNTQ1NDUgMC4zMDEyNSAwIDAuNTQ1NDUtMC4yNDQyMSAwLjU0NTQ1LTAuNTQ1NDV2LTcuMDkwOXoiIGZpbGw9IiM3RENDMjkiIHN0cm9rZT0iIzdEQ0MyOSIgc3Ryb2tlLXdpZHRoPSIxLjIiLz4KPHBhdGggZD0ibTIzLjg2MyA0Ny45MzJjMy4wODc4IDMuMTQwNSA3LjM4NSA1LjA4OCAxMi4xMzcgNS4wODggNC44MTExIDAgOS4xNTYtMS45OTYyIDEyLjI1Mi01LjIwNTYiIHN0cm9rZT0iIzdEQ0MyOSIgc3Ryb2tlLWxpbmVjYXA9InJvdW5kIiBzdHJva2Utd2lkdGg9IjEuOCIvPgo8L2c+Cjwvc3ZnPgo=;" parent="1" vertex="1">
          <mxGeometry x="2280.25" y="366" width="40" height="40" as="geometry" />
        </mxCell>
        <mxCell id="7goHa-sb4eDq98V5vhiT-41" style="edgeStyle=orthogonalEdgeStyle;rounded=0;orthogonalLoop=1;jettySize=auto;html=1;entryX=0.5;entryY=0;entryDx=0;entryDy=0;" parent="1" target="7goHa-sb4eDq98V5vhiT-40" edge="1">
          <mxGeometry relative="1" as="geometry">
            <mxPoint x="2300" y="225" as="sourcePoint" />
          </mxGeometry>
        </mxCell>
        <mxCell id="7goHa-sb4eDq98V5vhiT-35" value="Internet" style="sketch=0;outlineConnect=0;fontColor=#232F3E;gradientColor=none;strokeColor=#232F3E;fillColor=#ffffff;dashed=0;verticalLabelPosition=bottom;verticalAlign=top;align=center;html=1;fontSize=12;fontStyle=0;aspect=fixed;shape=mxgraph.aws4.resourceIcon;resIcon=mxgraph.aws4.internet;" parent="1" vertex="1">
          <mxGeometry x="2270.25" y="143" width="60" height="60" as="geometry" />
        </mxCell>
        <mxCell id="7goHa-sb4eDq98V5vhiT-36" value="FunctionGraph" style="shape=image;verticalLabelPosition=bottom;verticalAlign=top;imageAspect=0;aspect=fixed;image=data:image/svg+xml,PHN2ZyB2ZXJzaW9uPSIxLjEiIHZpZXdCb3g9IjAgMCAyNCAyNCIgeG1sbnM9Imh0dHA6Ly93d3cudzMub3JnLzIwMDAvc3ZnIj4KPHRpdGxlPuiuoeeuly9GdW5jdGlvbkdyYXBoPC90aXRsZT4KPGcgZmlsbD0ibm9uZSIgZmlsbC1ydWxlPSJldmVub2RkIj4KPHJlY3Qgd2lkdGg9IjI0LjAwNyIgaGVpZ2h0PSIyNC4wMDciIHJ4PSI1LjMzNTkiIGZpbGw9IiM3RENDMjkiLz4KPHBhdGggZD0ibTguMDA0NyAxOC4wMDUtMS43OTgzZS00IC0wLjAwNzE1NzdjLTIuMjMyMS0wLjEzMjA0LTQuMDAzNC0yLjA3NDQtNC4wMDM0LTQuNDUxMiAwLTIuNDE5MyAxLjgzNTItNC4zODg1IDQuMTIzNi00LjQ1NjUgMC41NTA2My0xLjc5MiAyLjE1MjEtMy4wODg0IDQuMDQxOS0zLjA4ODQgMS44OTgyIDAgMy41MDU1IDEuMzA3OSA0LjA0OTEgMy4xMTIzIDIuMTMwNCAwLjIzODYgMy43ODk4IDIuMTMyMSAzLjc4OTggNC40MzI2IDAgMi40MjcxLTEuODQ3MSA0LjQwMTItNC4xNDU4IDQuNDU3MWwtMC4xMDAyMyAwLjAwMTIxNzZoLTcuNzU0N3oiIGZpbGw9IiNmZmYiLz4KPHBhdGggZD0ibTE1LjU3MSAxMS42N2gtMy40NjczYy0wLjgwMDU1IDAtMS40MzQxIDAuNjY2ODUtMS40MzQxIDEuNTAwNCAwIDAuMTAwMDMgMC4wNjY2ODUgMC4xNjY3MSAwLjE2NjcxIDAuMTY2NzEgMC4xMDAzNiAwIDAuMTY2NzEtMC4wNjY2ODUgMC4xNjY3MS0wLjE2NjcxIDAtMC42MzM1MSAwLjUwMDE0LTEuMTY3IDEuMTAwNi0xLjE2N2gzLjQ2NzNjMC42MDAxNiAwIDEuMTAwMyAwLjUzMzQ4IDEuMTAwMyAxLjE2NyAwIDAuNjMzNTEtMC41MDAxNCAxLjE2Ny0xLjEwMDMgMS4xNjdoLTEuNTY3MWMtMC4xMDAwMyAwLTAuMTY2NzEgMC4wNjY2ODUtMC4xNjY3MSAwLjE2NjcxIDAgMC4xMDAwMyAwLjA2NjY4NSAwLjE2NjcxIDAuMTY2NzEgMC4xNjY3MWgxLjU2NzFjMC44MDAyMiAwIDEuNDMzNy0wLjY2Njg1IDEuNDMzNy0xLjUwMDQgMC0wLjgzMzU2LTAuNjMzNTEtMS41MDA0LTEuNDMzNy0xLjUwMDQiIGZpbGw9IiM3RENDMjkiIHN0cm9rZT0iIzdEQ0MyOSIgc3Ryb2tlLXdpZHRoPSIuNSIvPgo8cGF0aCB0cmFuc2Zvcm09InRyYW5zbGF0ZSgxMC4xNjkgMTMuMTcpIHNjYWxlKC0xKSB0cmFuc2xhdGUoLTEwLjE2OSAtMTMuMTcpIiBkPSJtMTEuOTAzIDExLjY3aC0zLjQ2NzNjLTAuODAwNTUgMC0xLjQzNDEgMC42NjY4NS0xLjQzNDEgMS41MDA0IDAgMC4xMDAwMyAwLjA2NjY4NSAwLjE2NjcxIDAuMTY2NzEgMC4xNjY3MSAwLjEwMDM2IDAgMC4xNjY3MS0wLjA2NjY4NSAwLjE2NjcxLTAuMTY2NzEgMC0wLjYzMzUxIDAuNTAwMTQtMS4xNjcgMS4xMDA2LTEuMTY3aDMuNDY3M2MwLjYwMDE2IDAgMS4xMDAzIDAuNTMzNDggMS4xMDAzIDEuMTY3IDAgMC42MzM1MS0wLjUwMDE0IDEuMTY3LTEuMTAwMyAxLjE2N2gtMS41NjcxYy0wLjEwMDAzIDAtMC4xNjY3MSAwLjA2NjY4NS0wLjE2NjcxIDAuMTY2NzEgMCAwLjEwMDAzIDAuMDY2Njg1IDAuMTY2NzEgMC4xNjY3MSAwLjE2NjcxaDEuNTY3MWMwLjgwMDIyIDAgMS40MzM3LTAuNjY2ODUgMS40MzM3LTEuNTAwNCAwLTAuODMzNTYtMC42MzM1MS0xLjUwMDQtMS40MzM3LTEuNTAwNCIgZmlsbD0iIzdEQ0MyOSIgc3Ryb2tlPSIjN0RDQzI5IiBzdHJva2Utd2lkdGg9Ii41Ii8+CjwvZz4KPC9zdmc+Cg==" parent="1" vertex="1">
          <mxGeometry x="2067" y="845" width="40" height="40" as="geometry" />
        </mxCell>
        <mxCell id="7goHa-sb4eDq98V5vhiT-3" value="" style="shape=image;verticalLabelPosition=bottom;labelBackgroundColor=default;verticalAlign=top;aspect=fixed;imageAspect=0;image=data:image/svg+xml,PHN2ZyB4bWxucz0iaHR0cDovL3d3dy53My5vcmcvMjAwMC9zdmciIHhtbDpzcGFjZT0icHJlc2VydmUiIGlkPSJzdmcxNDQwIiB2ZXJzaW9uPSIxLjEiIHZpZXdCb3g9IjAgMCAzMC4wMDAyNDkgMzAuMDAwMjQiIGhlaWdodD0iMzAuMDAwMjRtbSIgd2lkdGg9IjMwLjAwMDI1bW0iPjxkZWZzIGlkPSJkZWZzMTQzNyI+PGNsaXBQYXRoIGlkPSJjbGlwLTE2LTkiPjxwYXRoIGlkPSJwYXRoMTcwNDQtNyIgZD0ibSA1ODYsMjA5IGggOSB2IDEyIGggLTkgeiBtIDAsMCIgY2xpcC1ydWxlPSJub256ZXJvIi8+PC9jbGlwUGF0aD48Y2xpcFBhdGggaWQ9ImNsaXAtMTctMSI+PHBhdGggaWQ9InBhdGgxNzA0Ny03IiBkPSJtIDU4Ni4xODM1OSwyMTMuNzY1NjIgYyAwLjA4MiwxLjQ5MjE5IDEuMjEwOTQsMi4zNzg5MSAxLjIxMDk0LDIuMzc4OTEgMS44MTY0MSwxLjc2MTcyIDYuMjE0ODQsMy45ODgyOCA3LjIzODI4LDQuNDk2MDkgMC4wMTE3LDAuMDA0IDAuMDY2NCwwLjAxOTUgMC4wOTc3LC0wLjAxOTUgMCwwIDAuMDQzLC0wLjAzMTIgMC4wMTk1LC0wLjA4NTkgLTIuNzk2ODgsLTYuMDkzNzUgLTYuNjI4OTEsLTEwLjcxMDk0IC02LjYyODkxLC0xMC43MTA5NCAwLDAgLTIuMDgyMDMsMS45Njg3NSAtMS45Mzc1LDMuOTQxNCIgY2xpcC1ydWxlPSJub256ZXJvIi8+PC9jbGlwUGF0aD48Y2xpcFBhdGggaWQ9ImNsaXAtMTgtNiI+PHBhdGggaWQ9InBhdGgxNzQxNS03IiBkPSJtIDU4NiwyMjIgaCA5IHYgMyBoIC05IHogbSAwLDAiIGNsaXAtcnVsZT0ibm9uemVybyIvPjwvY2xpcFBhdGg+PGNsaXBQYXRoIGlkPSJjbGlwLTE5LTciPjxwYXRoIGlkPSJwYXRoMTc0MTgtMSIgZD0ibSA1ODYuNjMyODEsMjIyLjMxNjQxIGMgMC43OTI5NywxLjQxMDE1IDIuMTMyODEsMi41MDc4MSAzLjUyMzQ0LDIuMTcxODcgMC45NjA5NCwtMC4yMzgyOCAzLjE0MDYyLC0xLjc1MzkxIDMuODU5MzcsLTIuMjY1NjIgMC4wNTQ3LC0wLjA1MDggMC4wMzUyLC0wLjA4OTggMC4wMzUyLC0wLjA4OTggLTAuMDE5NSwtMC4wNjY0IC0wLjA5MzcsLTAuMDY2NCAtMC4wOTM3LC0wLjA2NjQgdiAtMC4wMDQgeiBtIDAsMCIgY2xpcC1ydWxlPSJub256ZXJvIi8+PC9jbGlwUGF0aD48Y2xpcFBhdGggaWQ9ImNsaXAtMjAtMSI+PHBhdGggaWQ9InBhdGgxNzc4Ni04IiBkPSJtIDU4NCwyMTUgaCAxMSB2IDcgaCAtMTEgeiBtIDAsMCIgY2xpcC1ydWxlPSJub256ZXJvIi8+PC9jbGlwUGF0aD48Y2xpcFBhdGggaWQ9ImNsaXAtMjEtNSI+PHBhdGggaWQ9InBhdGgxNzc4OS0xIiBkPSJtIDU4NC44Nzg5MSwyMTkuMDQyOTcgYyAwLjc5Njg3LDEuNjcxODcgMi4zMTI1LDIuMTc5NjkgMi4zMTI1LDIuMTc5NjkgMC42OTkyMSwwLjI4NTE1IDEuNDAyMzQsMC4zMDQ2OCAxLjQwMjM0LDAuMzA0NjggMC4xMDU0NywwLjAyMzQgNC4zNTU0NywwLjAwNCA1LjQ5MjE5LC0wLjAwNCAwLjA0NjksMCAwLjA3NDIsLTAuMDQ2OSAwLjA3NDIsLTAuMDQ2OSAwLjAzNTEsLTAuMDU4NiAtMC4wMjc0LC0wLjEwOTM3IC0wLjAyNzQsLTAuMTA5MzcgLTMuMjE0ODQsLTIuMTY0MDcgLTkuNDUzMTIsLTUuNDgwNDcgLTkuNDUzMTIsLTUuNDgwNDcgLTAuNTY2NDEsMS43NDYwOSAwLjE5OTIyLDMuMTU2MjUgMC4xOTkyMiwzLjE1NjI1IiBjbGlwLXJ1bGU9Im5vbnplcm8iLz48L2NsaXBQYXRoPjxjbGlwUGF0aCBpZD0iY2xpcC0yMi0xIj48cGF0aCBpZD0icGF0aDE4MTU3LTMiIGQ9Im0gNTkwLDIwNiBoIDcgdiAxNSBoIC03IHogbSAwLDAiIGNsaXAtcnVsZT0ibm9uemVybyIvPjwvY2xpcFBhdGg+PGNsaXBQYXRoIGlkPSJjbGlwLTIzLTMiPjxwYXRoIGlkPSJwYXRoMTgxNjAtNSIgZD0ibSA1OTMuNDY4NzUsMjA2Ljg5NDUzIGMgLTEuOTQxNDEsMC41IC0yLjM5ODQ0LDIuMjUzOTEgLTIuMzk4NDQsMi4yNTM5MSAtMC4zNTE1NiwxLjEwNTQ3IDAuMDA4LDIuMzEyNSAwLjAwOCwyLjMxMjUgMC42NDg0NCwyLjg1OTM3IDMuODMyMDQsNy41NjI1IDQuNTE5NTQsOC41NTA3OCAwLjA0NjksMC4wNDY5IDAuMDg1OSwwLjAyNzMgMC4wODU5LDAuMDI3MyAwLjA3NDIsLTAuMDE5NSAwLjA3MDMsLTAuMDg5OCAwLjA3MDMsLTAuMDg5OCAxLjA1MDc4LC0xMC40OTYxIC0xLjEwOTM4LC0xMy4yNzczNSAtMS4xMDkzOCwtMTMuMjc3MzUgLTAuMzE2NDEsMC4wMjczIC0xLjE3NTc4LDAuMjIyNjYgLTEuMTc1NzgsMC4yMjI2NiIgY2xpcC1ydWxlPSJub256ZXJvIi8+PC9jbGlwUGF0aD48Y2xpcFBhdGggaWQ9ImNsaXAtMjQtMSI+PHBhdGggaWQ9InBhdGgxODUyOC02IiBkPSJtIDU5NiwyMDYgaCA2IHYgMTUgaCAtNiB6IG0gMCwwIiBjbGlwLXJ1bGU9Im5vbnplcm8iLz48L2NsaXBQYXRoPjxjbGlwUGF0aCBpZD0iY2xpcC0yNS0zIj48cGF0aCBpZD0icGF0aDE4NTMxLTIiIGQ9Im0gNTk3LjAxNTYyLDIxOS45NTcwMyBjIDAuMDA4LDAuMDY2NCAwLjA1ODYsMC4wODIgMC4wNTg2LDAuMDgyIDAuMDcwMywwLjAyNzMgMC4xMDU0NywtMC4wNDMgMC4xMDU0NywtMC4wNDMgMC43MDMxMiwtMS4wMTE3MiAzLjg2NzE4LC01LjY4MzU5IDQuNTExNzIsLTguNTM1MTUgMCwwIDAuMzUxNTYsLTEuMzc4OTEgMC4wMTE3LC0yLjMxMjUgMCwwIC0wLjQ3NjU2LC0xLjc4MTI1IC0yLjQyMTg3LC0yLjI1IDAsMCAtMC41NTg1OSwtMC4xNDA2MyAtMS4xNDg0NCwtMC4yMjY1NyAwLDAgLTIuMTcxODcsMi43ODUxNiAtMS4xMTcxOSwxMy4yODUxNiIgY2xpcC1ydWxlPSJub256ZXJvIi8+PC9jbGlwUGF0aD48Y2xpcFBhdGggaWQ9ImNsaXAtMjYtMSI+PHBhdGggaWQ9InBhdGgxODg5OS00IiBkPSJtIDU5OCwyMjIgaCA5IHYgMyBoIC05IHogbSAwLDAiIGNsaXAtcnVsZT0ibm9uemVybyIvPjwvY2xpcFBhdGg+PGNsaXBQYXRoIGlkPSJjbGlwLTI3LTQiPjxwYXRoIGlkPSJwYXRoMTg5MDItNCIgZD0ibSA1OTguODA0NjksMjIyLjA3MDMxIGMgMCwwIC0wLjA2MjUsMC4wMDggLTAuMDgyLDAuMDU0NyAwLDAgLTAuMDE1NiwwLjA2NjQgMC4wMzEyLDAuMDk3NyBsIC0wLjAwNCwwLjAwNCBjIDAuNzAzMTIsMC41IDIuODI4MTIsMS45ODA0NyAzLjg1MTU2LDIuMjY1NjMgMCwwIDEuODk0NTMsMC42NDQ1MyAzLjUzOTA2LC0yLjE3MTg4IGwgLTcuMzMyMDMsLTAuMjUzOSB6IG0gMCwwIiBjbGlwLXJ1bGU9Im5vbnplcm8iLz48L2NsaXBQYXRoPjxjbGlwUGF0aCBpZD0iY2xpcC0yOC01Ij48cGF0aCBpZD0icGF0aDE5MjcwLTQiIGQ9Im0gNTk4LDIxNSBoIDExIHYgNyBoIC0xMSB6IG0gMCwwIiBjbGlwLXJ1bGU9Im5vbnplcm8iLz48L2NsaXBQYXRoPjxjbGlwUGF0aCBpZD0iY2xpcC0yOS0xIj48cGF0aCBpZD0icGF0aDE5MjczLTAiIGQ9Im0gNTk4LjY0NDUzLDIyMS4zNjMyOCBjIDAsMCAtMC4wNTg2LDAuMDM5MSAtMC4wMzkxLDAuMTA1NDcgMCwwIDAuMDMxMiwwLjA1NDcgMC4wNzgxLDAuMDU0NyAxLjE1MjM1LDAuMDA0IDUuNTE1NjMsMC4wMDggNS42MjUsLTAuMDExNyAwLDAgMC41NjI1LC0wLjAyMzQgMS4yNjE3MiwtMC4yODkwNiAwLDAgMS41NTA3OCwtMC40OTIxOSAyLjM1NTQ3LC0yLjI0NjEgMCwwIDAuNzE4NzUsLTEuNDMzNTkgMC4xNjQwNiwtMy4xMDU0NyAwLDAgLTYuMjI2NTYsMy4zMjgxMyAtOS40NDUzMSw1LjQ5MjE5IiBjbGlwLXJ1bGU9Im5vbnplcm8iLz48L2NsaXBQYXRoPjxjbGlwUGF0aCBpZD0iY2xpcC0zMC02Ij48cGF0aCBpZD0icGF0aDE5NjQxLTMiIGQ9Im0gNTk4LDIwOSBoIDkgdiAxMiBoIC05IHogbSAwLDAiIGNsaXAtcnVsZT0ibm9uemVybyIvPjwvY2xpcFBhdGg+PGNsaXBQYXRoIGlkPSJjbGlwLTMxLTIiPjxwYXRoIGlkPSJwYXRoMTk2NDQtNiIgZD0ibSA1OTguMDM1MTYsMjIwLjUwNzgxIGMgMCwwIC0wLjAzMTIsMC4wNzAzIDAuMDE5NSwwLjExMzI4IDAsMCAwLjA1MDgsMC4wMzkxIDAuMDk3NiwwLjAwOCAxLjA1MDc4LC0wLjUxOTU0IDUuNDE3OTcsLTIuNzMwNDcgNy4yMjY1NywtNC40ODQzOCAwLDAgMS4xNDQ1MywtMC45MTc5NyAxLjIwNzAzLC0yLjM4NjcyIDAuMTI4OSwtMi4wNDI5NyAtMS45MzM2LC0zLjkzMzU5IC0xLjkzMzYsLTMuOTMzNTkgMCwwIC0zLjgyMDMxLDQuNjA1NDcgLTYuNjE3MTgsMTAuNjgzNTkiIGNsaXAtcnVsZT0ibm9uemVybyIvPjwvY2xpcFBhdGg+PC9kZWZzPjxnIHRyYW5zZm9ybT0idHJhbnNsYXRlKC05My44NTY3NzEsLTc4LjU5ODIxOSkiIGlkPSJsYXllcjEiPjxwYXRoIGQ9Im0gMTAzLjg1NjY4LDc4LjU5ODIxOSBjIC01LjUzOTk4OSwwIC05Ljk5OTkwOSw0LjQ1OTkxIC05Ljk5OTkwOSw5Ljk5OTkxIHYgMi4yODYxNiA3LjcxMzc0MSAxMC4wMDA0MyBoIDkuOTk5OTA5IDQuNzQwOCA1LjI1OTEyIGMgNS41Mzk5OSwwIDEwLjAwMDQyLC00LjQ2MDQzIDEwLjAwMDQyLC0xMC4wMDA0MyB2IC00Ljk5OTY5NCAtNS4wMDAyMDcgLTkuOTk5OTEgaCAtMTAuMDAwNDIgLTQuMDM1NDMgeiIgc3R5bGU9ImZpbGw6I2M3MDAwYjtzdHJva2Utd2lkdGg6MS4xNzU0NjtzdHJva2UtbGluZWNhcDpyb3VuZDtzdHJva2UtZGFzaGFycmF5OjIuMzUwOTIsIDIuMzUwOTI7cGFpbnQtb3JkZXI6bWFya2VycyBzdHJva2UgZmlsbDtmaWxsLW9wYWNpdHk6MSIgaWQ9InJlY3QxLTIiLz48ZyB0cmFuc2Zvcm09Im1hdHJpeCgxLjkzODY1NywwLDAsMS45Mzg2NTcsLTEwMi4xNzkyOCwtODcuODc5Mzc1KSIgaWQ9ImczIj48ZyBzdHlsZT0iZmlsbDojZmZmZmZmO2ZpbGwtb3BhY2l0eToxIiB0cmFuc2Zvcm09Im1hdHJpeCgxLjIyNzIxNDIsMCwwLDEuMjI3MjE0MiwtMjQuNzQ0NTQ5LC0yMS4yNjk1MjEpIiBpZD0iZzEwODU4Ij48cGF0aCBzdHlsZT0iZmlsbDojZmZmZmZmO2ZpbGwtb3BhY2l0eToxO3N0cm9rZS13aWR0aDowLjM1Mjc3OCIgaWQ9InBhdGgyNjEwOCIgZD0ibSAxMDUuNjAyNDMsOTcuMDI5NjE1IGggLTAuNjQ3NjggdiAtMC41NzA1MSBoIC0wLjI4NjYzIHYgMS40MTI0OSBoIDAuMjg2NjMgdiAtMC41NzMyNiBoIDAuNjQ3NjggdiAwLjU3MzI2IGggMC4yODY2MyB2IC0xLjQxMjQ5IGggLTAuMjg2NjMgeiBtIDAsMCIgZmlsbC1vcGFjaXR5PSIxIiBmaWxsPSIjMjMxODE0IiBmaWxsLXJ1bGU9Im5vbnplcm8iLz48cGF0aCBzdHlsZT0iZmlsbDojZmZmZmZmO2ZpbGwtb3BhY2l0eToxO3N0cm9rZS13aWR0aDowLjM1Mjc3OCIgaWQ9InBhdGgyNjExMCIgZD0ibSAxMDcuMjE2MTEsOTcuMjY4MDE1IGMgMCwwLjIzMDE0IC0wLjExMywwLjM1Mjc4IC0wLjMxOTcsMC4zNTI3OCAtMC4yMDk0NywwIC0wLjMyMzg0LC0wLjEyNjc4IC0wLjMyMzg0LC0wLjM2MjQyIHYgLTAuNzk3ODkgaCAtMC4yODY2MyB2IDAuODA3NTMgYyAwLDAuMzk4MjYgMC4yMjA0OCwwLjYyNTYzIDAuNjA2MzQsMC42MjU2MyAwLjM4ODYsMCAwLjYxMDQ2LC0wLjIzMjg5IDAuNjEwNDYsLTAuNjM2NjUgdiAtMC43OTc4OSBoIC0wLjI4NjYzIHogbSAwLDAiIGZpbGwtb3BhY2l0eT0iMSIgZmlsbD0iIzIzMTgxNCIgZmlsbC1ydWxlPSJub256ZXJvIi8+PHBhdGggc3R5bGU9ImZpbGw6I2ZmZmZmZjtmaWxsLW9wYWNpdHk6MTtzdHJva2Utd2lkdGg6MC4zNTI3NzgiIGlkPSJwYXRoMjYxMTIiIGQ9Im0gMTEwLjUzMDMsOTcuNDMwNjI1IC0wLjMyMTA5LC0wLjk3MTUyIGggLTAuMjM0MjYgbCAtMC4zMTk3MSwwLjk3MTUyIC0wLjMxMjgxLC0wLjk3MDE0IGggLTAuMzA0NTUgbCAwLjQ5MTk2LDEuNDEyNDkgaCAwLjIzNzAyIGwgMC4zMjEwOCwtMC45Mjg4IDAuMzIxMDksMC45Mjg4IGggMC4yMzk3OCBsIDAuNDkwNTgsLTEuNDEyNDkgaCAtMC4yOTYyOCB6IG0gMCwwIiBmaWxsLW9wYWNpdHk9IjEiIGZpbGw9IiMyMzE4MTQiIGZpbGwtcnVsZT0ibm9uemVybyIvPjxwYXRoIHN0eWxlPSJmaWxsOiNmZmZmZmY7ZmlsbC1vcGFjaXR5OjE7c3Ryb2tlLXdpZHRoOjAuMzUyNzc4IiBpZD0icGF0aDI2MTE0IiBkPSJtIDExMS42NTM0LDk3LjI2Mzg4NSBoIDAuNTIyMjcgdiAtMC4yNTYzMiBoIC0wLjUyMjI3IHYgLTAuMjg5MzggaCAwLjc1NzkyIHYgLTAuMjU3NyBoIC0xLjA0MDQyIHYgMS40MTExMSBoIDEuMDY2NiB2IC0wLjI1NzY5IGggLTAuNzg0MSB6IG0gMCwwIiBmaWxsLW9wYWNpdHk9IjEiIGZpbGw9IiMyMzE4MTQiIGZpbGwtcnVsZT0ibm9uemVybyIvPjxwYXRoIHN0eWxlPSJmaWxsOiNmZmZmZmY7ZmlsbC1vcGFjaXR5OjE7c3Ryb2tlLXdpZHRoOjAuMzUyNzc4IiBpZD0icGF0aDI2MTE2IiBkPSJtIDExMi43ODA2Myw5Ny44NzAyMTUgaCAwLjI4MjUgdiAtMS40MTExMSBoIC0wLjI4MjUgeiBtIDAsMCIgZmlsbC1vcGFjaXR5PSIxIiBmaWxsPSIjMjMxODE0IiBmaWxsLXJ1bGU9Im5vbnplcm8iLz48cGF0aCBzdHlsZT0iZmlsbDojZmZmZmZmO2ZpbGwtb3BhY2l0eToxO3N0cm9rZS13aWR0aDowLjM1Mjc3OCIgaWQ9InBhdGgyNjExOCIgZD0ibSAxMDguMzkyOTYsOTYuODE3Mzk1IDAuMjAzOTUsMC40NzI2NyBoIC0xMGUtNCBsIDAuMDEzOCwwLjAzMzEgaCAtMC40MzI3IGwgMC4wMTM4LC0wLjAzMzEgeiBtIDAuMzIzODQsMC43NjA2OCAwLjEyNjc4LDAuMjkzNTIgaCAwLjMwMDQxIGwgLTAuNjE1OTksLTEuNDA0MjIgLTAuMDA3LC0wLjAwOCBoIC0wLjI0OTQyIGwgLTAuNjIyODcsMS40MTI0OSBoIDAuMjkyMTQgbCAwLjEyMTI3LC0wLjI3NDIzIDAuMDA4LC0wLjAxOTMgeiBtIDAsMCIgZmlsbC1vcGFjaXR5PSIxIiBmaWxsPSIjMjMxODE0IiBmaWxsLXJ1bGU9Im5vbnplcm8iLz48L2c+PGcgdHJhbnNmb3JtPSJtYXRyaXgoMS4yMjcyMTQyLDAsMCwxLjIyNzIxNDIsLTI0LjczMzgyNiwtMjEuMjY5NTIxKSIgc3R5bGU9ImZpbGw6I2Y5ZjlmOSIgaWQ9ImcxMDg4NCI+PGcgc3R5bGU9ImZpbGw6I2Y5ZjlmOSIgdHJhbnNmb3JtPSJtYXRyaXgoMC4zNTI3Nzc3OCwwLDAsMC4zNTI3Nzc3OCwtMTAxLjUzNDYzLDE2LjQxNzEzOCkiIGlkPSJnMjYxMjQiIGNsaXAtcGF0aD0idXJsKCNjbGlwLTE2LTkpIj48ZyBzdHlsZT0iZmlsbDojZjlmOWY5IiBpZD0iZzI2MTIyIiBjbGlwLXBhdGg9InVybCgjY2xpcC0xNy0xKSI+PHBhdGggc3R5bGU9ImZpbGw6I2Y5ZjlmOSIgaWQ9InBhdGgyNjEyMCIgZD0ibSA1ODYuMDM5MDYsMjIwLjY2MDE2IHYgLTEwLjgzNTk0IGggOC43MzQzOCB2IDEwLjgzNTk0IHogbSAwLDAiIGZpbGw9InVybCgjcmFkaWFsLXBhdHRlcm4tOCkiIGZpbGwtcnVsZT0ibm9uemVybyIvPjwvZz48L2c+PGcgc3R5bGU9ImZpbGw6I2Y5ZjlmOSIgdHJhbnNmb3JtPSJtYXRyaXgoMC4zNTI3Nzc3OCwwLDAsMC4zNTI3Nzc3OCwtMTAxLjUzNDYzLDE2LjQxNzEzOCkiIGlkPSJnMjYxMzAiIGNsaXAtcGF0aD0idXJsKCNjbGlwLTE4LTYpIj48ZyBzdHlsZT0iZmlsbDojZjlmOWY5IiBpZD0iZzI2MTI4IiBjbGlwLXBhdGg9InVybCgjY2xpcC0xOS03KSI+PHBhdGggc3R5bGU9ImZpbGw6I2Y5ZjlmOSIgaWQ9InBhdGgyNjEyNiIgZD0ibSA1ODYuNjMyODEsMjI0LjgyNDIyIHYgLTIuNzYxNzIgaCA3LjQzNzUgdiAyLjc2MTcyIHogbSAwLDAiIGZpbGw9InVybCgjcmFkaWFsLXBhdHRlcm4tOSkiIGZpbGwtcnVsZT0ibm9uemVybyIvPjwvZz48L2c+PGcgc3R5bGU9ImZpbGw6I2Y5ZjlmOSIgdHJhbnNmb3JtPSJtYXRyaXgoMC4zNTI3Nzc3OCwwLDAsMC4zNTI3Nzc3OCwtMTAxLjUzNDYzLDE2LjQxNzEzOCkiIGlkPSJnMjYxMzYiIGNsaXAtcGF0aD0idXJsKCNjbGlwLTIwLTEpIj48ZyBzdHlsZT0iZmlsbDojZjlmOWY5IiBpZD0iZzI2MTM0IiBjbGlwLXBhdGg9InVybCgjY2xpcC0yMS01KSI+PHBhdGggc3R5bGU9ImZpbGw6I2Y5ZjlmOSIgaWQ9InBhdGgyNjEzMiIgZD0ibSA1ODQuMTEzMjgsMjIxLjU1MDc4IHYgLTUuNjY0MDYgaCAxMC4wODIwMyB2IDUuNjY0MDYgeiBtIDAsMCIgZmlsbD0idXJsKCNyYWRpYWwtcGF0dGVybi0xMCkiIGZpbGwtcnVsZT0ibm9uemVybyIvPjwvZz48L2c+PGcgc3R5bGU9ImZpbGw6I2Y5ZjlmOSIgdHJhbnNmb3JtPSJtYXRyaXgoMC4zNTI3Nzc3OCwwLDAsMC4zNTI3Nzc3OCwtMTAxLjUzNDYzLDE2LjQxNzEzOCkiIGlkPSJnMjYxNDIiIGNsaXAtcGF0aD0idXJsKCNjbGlwLTIyLTEpIj48ZyBzdHlsZT0iZmlsbDojZjlmOWY5IiBpZD0iZzI2MTQwIiBjbGlwLXBhdGg9InVybCgjY2xpcC0yMy0zKSI+PHBhdGggc3R5bGU9ImZpbGw6I2Y5ZjlmOSIgaWQ9InBhdGgyNjEzOCIgZD0ibSA1OTAuNzE4NzUsMjIwLjA1ODU5IHYgLTEzLjM4NjcyIGggNi4wODU5NCB2IDEzLjM4NjcyIHogbSAwLDAiIGZpbGw9InVybCgjcmFkaWFsLXBhdHRlcm4tMTEpIiBmaWxsLXJ1bGU9Im5vbnplcm8iLz48L2c+PC9nPjxnIHN0eWxlPSJmaWxsOiNmOWY5ZjkiIHRyYW5zZm9ybT0ibWF0cml4KDAuMzUyNzc3NzgsMCwwLDAuMzUyNzc3NzgsLTEwMS41MzQ2MywxNi40MTcxMzgpIiBpZD0iZzI2MTQ4IiBjbGlwLXBhdGg9InVybCgjY2xpcC0yNC0xKSI+PGcgc3R5bGU9ImZpbGw6I2Y5ZjlmOSIgaWQ9ImcyNjE0NiIgY2xpcC1wYXRoPSJ1cmwoI2NsaXAtMjUtMykiPjxwYXRoIHN0eWxlPSJmaWxsOiNmOWY5ZjkiIGlkPSJwYXRoMjYxNDQiIGQ9Im0gNTk1Ljk2MDk0LDIyMC4wNjY0MSB2IC0xMy4zOTQ1NCBoIDYuMDgyMDMgdiAxMy4zOTQ1NCB6IG0gMCwwIiBmaWxsPSJ1cmwoI3JhZGlhbC1wYXR0ZXJuLTEyKSIgZmlsbC1ydWxlPSJub256ZXJvIi8+PC9nPjwvZz48ZyBzdHlsZT0iZmlsbDojZjlmOWY5IiB0cmFuc2Zvcm09Im1hdHJpeCgwLjM1Mjc3Nzc4LDAsMCwwLjM1Mjc3Nzc4LC0xMDEuNTM0NjMsMTYuNDE3MTM4KSIgaWQ9ImcyNjE1NCIgY2xpcC1wYXRoPSJ1cmwoI2NsaXAtMjYtMSkiPjxnIHN0eWxlPSJmaWxsOiNmOWY5ZjkiIGlkPSJnMjYxNTIiIGNsaXAtcGF0aD0idXJsKCNjbGlwLTI3LTQpIj48cGF0aCBzdHlsZT0iZmlsbDojZjlmOWY5IiBpZD0icGF0aDI2MTUwIiBkPSJtIDU5OC43MDcwMywyMjUuMTM2NzIgdiAtMy4wNzAzMSBoIDcuNDMzNTkgdiAzLjA3MDMxIHogbSAwLDAiIGZpbGw9InVybCgjcmFkaWFsLXBhdHRlcm4tMTMpIiBmaWxsLXJ1bGU9Im5vbnplcm8iLz48L2c+PC9nPjxnIHN0eWxlPSJmaWxsOiNmOWY5ZjkiIHRyYW5zZm9ybT0ibWF0cml4KDAuMzUyNzc3NzgsMCwwLDAuMzUyNzc3NzgsLTEwMS41MzQ2MywxNi40MTcxMzgpIiBpZD0iZzI2MTYwIiBjbGlwLXBhdGg9InVybCgjY2xpcC0yOC01KSI+PGcgc3R5bGU9ImZpbGw6I2Y5ZjlmOSIgaWQ9ImcyNjE1OCIgY2xpcC1wYXRoPSJ1cmwoI2NsaXAtMjktMSkiPjxwYXRoIHN0eWxlPSJmaWxsOiNmOWY5ZjkiIGlkPSJwYXRoMjYxNTYiIGQ9Im0gNTk4LjU4NTk0LDIyMS41MzEyNSB2IC01LjY2MDE2IGggMTAuMDU4NTkgdiA1LjY2MDE2IHogbSAwLDAiIGZpbGw9InVybCgjcmFkaWFsLXBhdHRlcm4tMTQpIiBmaWxsLXJ1bGU9Im5vbnplcm8iLz48L2c+PC9nPjxnIHN0eWxlPSJmaWxsOiNmOWY5ZjkiIHRyYW5zZm9ybT0ibWF0cml4KDAuMzUyNzc3NzgsMCwwLDAuMzUyNzc3NzgsLTEwMS41MzQ2MywxNi40MTcxMzgpIiBpZD0iZzI2MTY2IiBjbGlwLXBhdGg9InVybCgjY2xpcC0zMC02KSI+PGcgc3R5bGU9ImZpbGw6I2Y5ZjlmOSIgaWQ9ImcyNjE2NCIgY2xpcC1wYXRoPSJ1cmwoI2NsaXAtMzEtMikiPjxwYXRoIHN0eWxlPSJmaWxsOiNmOWY5ZjkiIGlkPSJwYXRoMjYxNjIiIGQ9Im0gNTk4LjAwMzkxLDIyMC42NjAxNiB2IC0xMC44MzU5NCBoIDguNzEwOTMgdiAxMC44MzU5NCB6IG0gMCwwIiBmaWxsPSJ1cmwoI3JhZGlhbC1wYXR0ZXJuLTE1KSIgZmlsbC1ydWxlPSJub256ZXJvIi8+PC9nPjwvZz48L2c+PC9nPjwvZz48L3N2Zz4=;resizable=0;" parent="1" vertex="1">
          <mxGeometry x="1725" y="255" width="30" height="30" as="geometry" />
        </mxCell>
        <mxCell id="7goHa-sb4eDq98V5vhiT-9" value="" style="shape=image;verticalLabelPosition=bottom;labelBackgroundColor=default;verticalAlign=top;aspect=fixed;imageAspect=0;image=data:image/svg+xml,PHN2ZyB4bWxucz0iaHR0cDovL3d3dy53My5vcmcvMjAwMC9zdmciIHhtbDpzcGFjZT0icHJlc2VydmUiIGlkPSJzdmcxNDQwIiB2ZXJzaW9uPSIxLjEiIHZpZXdCb3g9IjAgMCAzMC4wMDAyMzQgMzAuMDAwMjQiIGhlaWdodD0iMzAuMDAwMjRtbSIgd2lkdGg9IjMwLjAwMDIzNW1tIj48ZGVmcyBpZD0iZGVmczE0MzciLz48ZyB0cmFuc2Zvcm09InRyYW5zbGF0ZSgtOTMuODU2Nzc1LC03OC41OTgyMikiIGlkPSJsYXllcjEiPjxwYXRoIGQ9Im0gMTAzLjg1NjY4LDc4LjU5ODIyIGMgLTUuNTM5OTg1LDAgLTkuOTk5OTA1LDQuNDU5OTEgLTkuOTk5OTA1LDkuOTk5OTA4IHYgMi4yODYxNiA3LjcxMzc0IDEwLjAwMDQzMiBoIDkuOTk5OTA1IDQuNzQwOCA1LjI1OTExIGMgNS41Mzk5OSwwIDEwLjAwMDQyLC00LjQ2MDQzIDEwLjAwMDQyLC0xMC4wMDA0MzIgdiAtNC45OTk2OSAtNS4wMDAyMSAtOS45OTk5MDggaCAtMTAuMDAwNDIgLTQuMDM1NDIgeiIgc3R5bGU9ImZpbGw6IzM3NzFjODtmaWxsLW9wYWNpdHk6MTtzdHJva2Utd2lkdGg6MS4xNzU0NjtzdHJva2UtbGluZWNhcDpyb3VuZDtzdHJva2UtZGFzaGFycmF5OjIuMzUwOTIsIDIuMzUwOTI7cGFpbnQtb3JkZXI6bWFya2VycyBzdHJva2UgZmlsbCIgaWQ9InJlY3QxLTIiLz48ZyBzdHlsZT0iZmlsbDpub25lO3N0cm9rZTojZmZmZmZmO3N0cm9rZS13aWR0aDozMy40MzI2O3N0cm9rZS1kYXNoYXJyYXk6bm9uZSIgdHJhbnNmb3JtPSJtYXRyaXgoMC4wMzQwMzQ2NCwwLDAsMC4wMzQwMzQ2NCwxMDIuNjMxOTYsODMuOTA1MjA5KSIgaWQ9ImcxIj4mI3hhOwk8cGF0aCBzdHlsZT0iZmlsbDpub25lO3N0cm9rZTojZmZmZmZmO3N0cm9rZS13aWR0aDozMy40MzI2O3N0cm9rZS1kYXNoYXJyYXk6bm9uZSIgaWQ9InBhdGgxLTIiIGQ9Im0gMTgyLjksNTUxLjcgYyAwLDAgMTc1LjQsLTIyMS4yMzg0MiAxNzUuNCwtMzU3LjEgQyAzNTguMyw1OC43Mzg0MjMgMjY5LjUsNy45IDE4Mi45LDcuNyA5Ni4zLDcuOSA3LjUsNTkuMDgyODkgNy41LDE5NC42IDcuNSwzMzAuMTE3MTEgMTgyLjksNTUxLjcgMTgyLjksNTUxLjcgWiBNIDEyMi4yLDE4Ny4yIGMgMCwtMzMuNiAyNy4yLC02MC44IDYwLjgsLTYwLjggMzMuNiwwIDYwLjgsMjcuMiA2MC44LDYwLjggMCwzMy42IC0yNy4zLDYwLjggLTYwLjksNjAuOCAtMzMuNSwwIC02MC43LC0yNy4yIC02MC43LC02MC44IHoiIGZpbGw9IiMwMGFlZWYiLz4mI3hhOzwvZz48L2c+PC9zdmc+;resizable=0;" parent="1" vertex="1">
          <mxGeometry x="1745" y="345" width="30" height="30" as="geometry" />
        </mxCell>
        <mxCell id="7goHa-sb4eDq98V5vhiT-43" style="edgeStyle=orthogonalEdgeStyle;rounded=0;orthogonalLoop=1;jettySize=auto;html=1;entryX=0.5;entryY=0;entryDx=0;entryDy=0;" parent="1" target="7goHa-sb4eDq98V5vhiT-34" edge="1">
          <mxGeometry relative="1" as="geometry">
            <mxPoint x="2300" y="335" as="sourcePoint" />
          </mxGeometry>
        </mxCell>
        <mxCell id="7goHa-sb4eDq98V5vhiT-40" value="DNS" style="shape=image;verticalLabelPosition=bottom;verticalAlign=top;imageAspect=0;aspect=fixed;image=data:image/svg+xml,PHN2ZyB2ZXJzaW9uPSIxLjEiIHZpZXdCb3g9IjAgMCA3MiA3MiIgeG1sbnM9Imh0dHA6Ly93d3cudzMub3JnLzIwMDAvc3ZnIj4KPHRpdGxlPuS8geS4muW6lOeUqC9ETlM8L3RpdGxlPgo8ZyBmaWxsPSJub25lIiBmaWxsLXJ1bGU9ImV2ZW5vZGQiPgo8cmVjdCB3aWR0aD0iNzIiIGhlaWdodD0iNzIiIHJ4PSIxNiIgZmlsbD0iIzE0NzZGRiIvPgo8Y2lyY2xlIGN4PSIzNi4yIiBjeT0iMzYuMiIgcj0iMjMuNiIgZmlsbD0iI2ZmZiIvPgo8bGluZSB4MT0iMTQuNTI0IiB4Mj0iNTcuNDc2IiB5MT0iMjUuNzg1IiB5Mj0iMjUuNzg1IiBzdHJva2U9IiMxNDc2RkYiIHN0cm9rZS1saW5lY2FwPSJyb3VuZCIgc3Ryb2tlLWxpbmVqb2luPSJyb3VuZCIgc3Ryb2tlLXdpZHRoPSIxLjUiLz4KPGxpbmUgeDE9IjE0LjUyNCIgeDI9IjU3LjQ3NiIgeTE9IjQ2LjIwMSIgeTI9IjQ2LjIwMSIgc3Ryb2tlPSIjMTQ3NkZGIiBzdHJva2UtbGluZWNhcD0icm91bmQiIHN0cm9rZS1saW5lam9pbj0icm91bmQiIHN0cm9rZS13aWR0aD0iMS41Ii8+CjxlbGxpcHNlIGN4PSIzNi4xNzEiIGN5PSIzNS43MDUiIHJ4PSIxMS43NSIgcnk9IjIyLjc1IiBzdHJva2U9IiMxNDc2RkYiIHN0cm9rZS13aWR0aD0iMS41Ii8+CjxwYXRoIGQ9Im0zNiAxMmMxMy4yNTUgMCAyNCAxMC43NDUgMjQgMjRzLTEwLjc0NSAyNC0yNCAyNC0yNC0xMC43NDUtMjQtMjQgMTAuNzQ1LTI0IDI0LTI0em0wIDEuNzE0M2MtMTIuMzA4IDAtMjIuMjg2IDkuOTc3Ny0yMi4yODYgMjIuMjg2czkuOTc3NyAyMi4yODYgMjIuMjg2IDIyLjI4NiAyMi4yODYtOS45Nzc3IDIyLjI4Ni0yMi4yODYtOS45Nzc3LTIyLjI4Ni0yMi4yODYtMjIuMjg2eiIgZmlsbD0iIzY4QTdGRiIgZmlsbC1ydWxlPSJub256ZXJvIi8+CjxyZWN0IHg9IjE3LjE0MyIgeT0iMjYuNTcxIiB3aWR0aD0iMzguNzYyIiBoZWlnaHQ9IjE4Ljg1NyIgZmlsbD0iI2ZmZiIvPgo8cGF0aCBkPSJtNTAuOTIyIDM0LjcxNmgtMS4wNTM4di05Ljk5M2UtNGgtMy44OTExYy0wLjY5MTU0IDAtMS4yNTM1LTAuNjA5NTQtMS4yNTM1LTEuMzU5di0xLjI3OWMwLTAuNzQ5NDQgMC41NjE5NC0xLjM1OSAxLjI1MzUtMS4zNTloNy4yNTMydi0wLjk5OTI1aC03LjI1MzJjLTEuMjc1OCAwLTIuMzE1NyAxLjA1ODItMi4zMTU3IDIuMzU4MnYxLjI3OWMwIDEuMyAxLjA0IDIuMzU4MiAyLjMxNTcgMi4zNTgyaDEuMDUzOHY5Ljk5MmUtNGgzLjg5MTFjMC42OTA0NyAwIDEuMjUzNSAwLjYwOTU0IDEuMjUzNSAxLjM1OXYyLjI3ODNjMCAwLjc0OTQ0LTAuNTYzIDEuMzU5LTEuMjUzNSAxLjM1OWgtNy4yNTIxdjAuOTk5MjVoNy4yNTIxYzEuMjc2OCAwIDIuMzE1Ny0xLjA1ODIgMi4zMTU3LTIuMzU4MnYtMi4yNzgzYzAtMS4zLTEuMDM4OS0yLjM1ODItMi4zMTU3LTIuMzU4MnptLTkuMzc2Ni00Ljk5NjNoLTEuMDYyM3YxMC45OTZoLTAuMzcxNzljLTEuMTIzOSAwLTEuNjQ2NS0wLjMwNTc3LTEuOTg5Ni0xLjE3MjFsLTIuODE5My03LjY3OTJjLTAuMjExMzktMC41MzE2LTAuODU1MTMtMi4xNDk0LTMuMDAzLTIuMTQ5NGgtMC44NDU1NnYwLjAwNDk5NjNoLTAuNTMxMTN2MTEuOTkxaDEuMDYyM3YtMTAuOTk3aDAuMzE0NDNjMC45NDY0OCAwIDEuNTAzMSAwLjQyNzY4IDEuOTE1MyAxLjQ2NTlsMi44MjAzIDcuNjc5MiAwLjU0NDk0LTAuMTUxODktMC41NDA2OSAwLjE2Mzg4YzAuNDk5MjcgMS4yNTcxIDEuNDc2NiAxLjg0MzYgMy4wNzIxIDEuODQzNmgxLjQzNDF2LTAuOTk5MjUtMTAuOTk2em0tMTMuODA5IDkuNjMyOGMwIDAuNzQ5NDQtMC41ODYzNyAxLjM1OS0xLjMwNjYgMS4zNTloLTYuMTI5M3YtOS45OTI1aDYuMTI5M2MwLjcyMDIyIDAgMS4zMDY2IDAuNjA5NTQgMS4zMDY2IDEuMzU5djcuMjc0NXptLTEuMzA2Ni05LjYzMjhoLTcuMTkxNnYxMS45OTFoNy4xOTE2YzEuMzA2NiAwIDIuMzY4OS0xLjA1ODIgMi4zNjg5LTIuMzU4MnYtNy4yNzQ1YzAtMS4zLTEuMDYyMy0yLjM1ODItMi4zNjg5LTIuMzU4MnoiIGZpbGw9IiMxNDc2RkYiIHN0cm9rZT0iIzE0NzZGRiIgc3Ryb2tlLXdpZHRoPSIuNjI4NTciLz4KPC9nPgo8L3N2Zz4K" parent="1" vertex="1">
          <mxGeometry x="2280.25" y="274" width="40" height="40" as="geometry" />
        </mxCell>
        <mxCell id="7goHa-sb4eDq98V5vhiT-6" value="" style="shape=image;verticalLabelPosition=bottom;labelBackgroundColor=default;verticalAlign=top;aspect=fixed;imageAspect=0;image=data:image/svg+xml,PHN2ZyB4bWxucz0iaHR0cDovL3d3dy53My5vcmcvMjAwMC9zdmciIHhtbDpzcGFjZT0icHJlc2VydmUiIGlkPSJzdmcxNDQwIiB2ZXJzaW9uPSIxLjEiIHZpZXdCb3g9IjAgMCAzMCAzMCIgaGVpZ2h0PSIzMG1tIiB3aWR0aD0iMzBtbSI+PGRlZnMgaWQ9ImRlZnMxNDM3Ii8+PGcgdHJhbnNmb3JtPSJ0cmFuc2xhdGUoLTEwMS44MzczOSwtODYuNTA0MDEzKSIgaWQ9ImxheWVyMSI+PHBhdGggZD0ibSAxMTEuODM3MTgsODYuNTAzODk0IGMgLTUuNTM5OTksMCAtOS45OTk5MSw0LjQ1OTkxIC05Ljk5OTkxLDkuOTk5OTEgdiAyLjI4NjE2IDcuNzEzNzM2IDEwLjAwMDQzIGggOS45OTk5MSA0Ljc0MDggNS4yNTkxMSBjIDUuNTM5OTksMCAxMC4wMDA0MiwtNC40NjA0MyAxMC4wMDA0MiwtMTAuMDAwNDMgdiAtNC45OTk2OSAtNS4wMDAyMDYgLTkuOTk5OTEgaCAtMTAuMDAwNDIgLTQuMDM1NDIgeiIgc3R5bGU9ImZpbGw6I2Y4NTgzNTtmaWxsLW9wYWNpdHk6MTtzdHJva2Utd2lkdGg6MS4xNzU0NjtzdHJva2UtbGluZWNhcDpyb3VuZDtzdHJva2UtZGFzaGFycmF5OjIuMzUwOTIsIDIuMzUwOTI7cGFpbnQtb3JkZXI6bWFya2VycyBzdHJva2UgZmlsbCIgaWQ9InJlY3QxLTIiLz48ZyB0cmFuc2Zvcm09InRyYW5zbGF0ZSgtMjYuOTg3NSwtMjEuNjk1ODM3KSIgaWQ9ImcxIj48cGF0aCBzdHlsZT0iZmlsbC1ydWxlOmV2ZW5vZGQ7c3Ryb2tlOm5vbmU7c3Ryb2tlLXdpZHRoOjAuNDE2NjY3IiBmaWxsPSIjZmZmZmZmIiBpZD0i5b2i54q257uT5ZCIIiBkPSJtIDEzOS4zMzk2NSwxMzAuNjgzMDIgYyAtMy4wNDU3MiwwIC01LjUxNDc2LC0yLjQ1NTIxIC01LjUxNDc2LC01LjQ4Mzg4IDAsLTIuODE2MDEgMi4xMzQ1MSwtNS4xMzYyOCA0Ljg4MjQyLC01LjQ0ODIyIDAuNTQxNywtMi4zMTE5MyAyLjYyNzM3LC00LjAzNDI0IDUuMTE3NTgsLTQuMDM0MjQgMi40OTAyMSwwIDQuNTc1ODgsMS43MjIzMSA1LjExODA3LDQuMDM0MzcgMi43NDc0MiwwLjMxMTgxIDQuODgxOTMsMi42MzIwOCA0Ljg4MTkzLDUuNDQ4MDkgMCwzLjAyODY3IC0yLjQ2OTA0LDUuNDgzODggLTUuNTE0NzYsNS40ODM4OCB6Ii8+PHBvbHlnb24gc3R5bGU9ImZpbGw6bm9uZTtmaWxsLXJ1bGU6ZXZlbm9kZCIgdHJhbnNmb3JtPSJtYXRyaXgoMC40MTY2NjY2NywwLDAsMC40MTY2NjY2NywxMjguODI0ODksMTA4LjE5OTg1KSIgcG9pbnRzPSIyMy4zMTgwNTEsMjcuMjA1MjE0IDI2Ljk3NjUyOSw0MS43MDkwNTggMzcuMTQyOTY0LDMwLjk1MjM5MyIgc3Ryb2tlLXdpZHRoPSIxLjUiIHN0cm9rZT0iI2Y4NTgzNSIgaWQ9Iui3r+W+hC0xMyIvPjxjaXJjbGUgc3R5bGU9ImZpbGwtcnVsZTpldmVub2RkO3N0cm9rZTpub25lO3N0cm9rZS13aWR0aDowLjQxNjY2NyIgcj0iMC45MDE2NjExIiBjeT0iMTI1LjU3ODYyIiBjeD0iMTQwLjA3NDg5IiBmaWxsPSIjZjg1ODM1IiBpZD0i5qSt5ZyG5b2iIi8+PGNpcmNsZSBzdHlsZT0iZmlsbC1ydWxlOmV2ZW5vZGQ7c3Ryb2tlOm5vbmU7c3Ryb2tlLXdpZHRoOjAuNDE2NjY3IiByPSIwLjkwMTY2MTEiIGN5PSIxMjEuMDc3MDUiIGN4PSIxNDQuNDM5NjUiIGZpbGw9IiNmODU4MzUiIGlkPSJjaXJjbGUxIi8+PC9nPjwvZz48L3N2Zz4=;resizable=0;" parent="1" vertex="1">
          <mxGeometry x="1765" y="440" width="30" height="30" as="geometry" />
        </mxCell>
        <mxCell id="7goHa-sb4eDq98V5vhiT-12" value="" style="shape=image;verticalLabelPosition=bottom;labelBackgroundColor=default;verticalAlign=top;aspect=fixed;imageAspect=0;image=data:image/svg+xml,PHN2ZyB4bWxucz0iaHR0cDovL3d3dy53My5vcmcvMjAwMC9zdmciIHhtbDpzcGFjZT0icHJlc2VydmUiIGlkPSJzdmcxNDQwIiB2ZXJzaW9uPSIxLjEiIHZpZXdCb3g9IjAgMCAzMCAzMCIgaGVpZ2h0PSIzMG1tIiB3aWR0aD0iMzBtbSI+PGRlZnMgaWQ9ImRlZnMxNDM3Ij4mI3hhOwkmI3hhOwkmI3hhOwkmI3hhOwkmI3hhOwkmI3hhOwkmI3hhOwkmI3hhOyYjeGE7CQkmI3hhOwkmI3hhOwkJJiN4YTsJJiN4YTsJCSYjeGE7CTwvZGVmcz48ZyB0cmFuc2Zvcm09InRyYW5zbGF0ZSgtMTAxLjgzNzM5LC04Ni41MDQwMTMpIiBpZD0ibGF5ZXIxIj48cGF0aCBkPSJtIDExMS44MzcxOCw4Ni41MDM4OTUgYyAtNS41Mzk5OSwwIC05Ljk5OTkxLDQuNDU5OTEgLTkuOTk5OTEsOS45OTk5MSB2IDIuMjg2MTYgNy43MTM3MzUgMTAuMDAwNDMgaCA5Ljk5OTkxIDQuNzQwOCA1LjI1OTExIGMgNS41Mzk5OSwwIDEwLjAwMDQyLC00LjQ2MDQzIDEwLjAwMDQyLC0xMC4wMDA0MyB2IC00Ljk5OTY5IC01LjAwMDIwNSAtOS45OTk5MSBoIC0xMC4wMDA0MiAtNC4wMzU0MiB6IiBzdHlsZT0iZmlsbDojNWVjYzQ5O2ZpbGwtb3BhY2l0eToxO3N0cm9rZS13aWR0aDoxLjE3NTQ2O3N0cm9rZS1saW5lY2FwOnJvdW5kO3N0cm9rZS1kYXNoYXJyYXk6Mi4zNTA5MiwgMi4zNTA5MjtwYWludC1vcmRlcjptYXJrZXJzIHN0cm9rZSBmaWxsIiBpZD0icmVjdDEtMiIvPjxwYXRoIHN0eWxlPSJmaWxsOiNmZmZmZmY7c3Ryb2tlLXdpZHRoOjAuNDU0NTQ1IiBpZD0icGF0aDEiIGQ9Im0gMTE2LjgzNzM5LDkyLjQxMzEwMyBjIDUsMCA5LjA5MDkxLDQuMDkwOTExIDkuMDkwOTEsOS4wOTA5MDcgMCw1IC00LjA5MDkxLDkuMDkwOTEgLTkuMDkwOTEsOS4wOTA5MSAtNSwwIC05LjA5MDkxLC00LjA5MDkxIC05LjA5MDkxLC05LjA5MDkxIDAsLTQuOTk5OTk2IDQuMDkwOTEsLTkuMDkwOTA3IDkuMDkwOTEsLTkuMDkwOTA3IG0gMCwtMC45MDkwOTEgYyAtNS41NDU0NSwwIC0xMCw0LjQ1NDU0MiAtMTAsOS45OTk5OTggMCw1LjU0NTQ1IDQuNDU0NTUsMTAgMTAsMTAgNS41NDU0NiwwIDEwLC00LjQ1NDU1IDEwLC0xMCAwLC01LjU0NTQ1NiAtNC40NTQ1NCwtOS45OTk5OTggLTEwLC05Ljk5OTk5OCB6Ii8+PHBhdGggc3R5bGU9ImZpbGw6I2ZmZmZmZjtzdHJva2Utd2lkdGg6MC40NTQ1NDUiIGlkPSJwYXRoMiIgZD0ibSAxMTIuNjEwMTIsOTguNTQ5NDY0IGMgLTAuMzE4MTgsMCAtMC42MzYzNywtMC4xMzYzNiAtMC44NjM2NCwtMC4zNjM2MyAtMC40NTQ1NCwtMC40NTQ1NSAtMC40NTQ1NCwtMS4yMjcyOCAwLC0xLjcyNzI4IDAuMjI3MjcsLTAuMjI3MjcgMC41NDU0NiwtMC4zNjM2MyAwLjg2MzY0LC0wLjM2MzYzIDAuMzE4MTgsMCAwLjYzNjM2LDAuMTM2MzYgMC44NjM2MywwLjM2MzYzIDAuNDU0NTUsMC40NTQ1NSAwLjQ1NDU1LDEuMjI3MjggMCwxLjcyNzI4IC0wLjIyNzI3LDAuMjI3MjcgLTAuNTQ1NDUsMC4zNjM2MyAtMC44NjM2MywwLjM2MzYzIHoiLz48cGF0aCBzdHlsZT0iZmlsbDojZmZmZmZmO3N0cm9rZS13aWR0aDowLjQ1NDU0NSIgaWQ9InBhdGgzIiBkPSJtIDExNC45NzM3NSwxMDcuOTEzMSBjIC0wLjMxODE4LDAgLTAuNjM2MzYsLTAuMTM2MzYgLTAuODYzNjMsLTAuMzYzNjQgLTAuNDU0NTUsLTAuNDU0NTQgLTAuNDU0NTUsLTEuMjI3MjcgMCwtMS43MjcyNyAwLjIyNzI3LC0wLjIyNzI3IDAuNTQ1NDUsLTAuMzYzNjQgMC44NjM2MywtMC4zNjM2NCAwLjMxODE5LDAgMC42MzYzNywwLjEzNjM3IDAuODYzNjQsMC4zNjM2NCAwLjQ1NDU1LDAuNDU0NTUgMC40NTQ1NSwxLjIyNzI3IDAsMS43MjcyNyAtMC4yMjcyNywwLjIyNzI4IC0wLjU0NTQ1LDAuMzYzNjQgLTAuODYzNjQsMC4zNjM2NCB6Ii8+PHBhdGggc3R5bGU9ImZpbGw6I2ZmZmZmZjtzdHJva2Utd2lkdGg6MC40NTQ1NDUiIGlkPSJwYXRoNCIgZD0ibSAxMjEuOTczNzUsMTAwLjkxMzEgYyAtMC4zMTgxOCwwIC0wLjYzNjM2LC0wLjEzNjM2IC0wLjg2MzYzLC0wLjM2MzY0IC0wLjQ1NDU1LC0wLjQ1NDU0IC0wLjQ1NDU1LC0xLjIyNzI2NiAwLC0xLjcyNzI2NiAwLjIyNzI3LC0wLjIyNzI3IDAuNTQ1NDUsLTAuMzYzNjQgMC44NjM2MywtMC4zNjM2NCAwLjMxODE5LDAgMC42MzYzNywwLjEzNjM3IDAuODYzNjQsMC4zNjM2NCAwLjIyNzI3LDAuMjI3MjcgMC4zNjM2NCwwLjU0NTQ1IDAuMzYzNjQsMC44NjM2NCAwLDAuMzE4MTc2IC0wLjEzNjM3LDAuNjM2MzU2IC0wLjM2MzY0LDAuODYzNjI2IC0wLjIyNzI3LDAuMjI3MjggLTAuNTQ1NDUsMC4zNjM2NCAtMC44NjM2NCwwLjM2MzY0IHoiLz48cmVjdCBzdHlsZT0iZmlsbDojZmZmZmZmO3N0cm9rZS13aWR0aDowLjI1NTtzdHJva2U6I2ZmZmZmZjtzdHJva2UtZGFzaGFycmF5Om5vbmUiIGlkPSJyZWN0NCIgaGVpZ2h0PSI3Ljc3MjkxOTciIHdpZHRoPSIwLjQwOTEwMTAxIiB0cmFuc2Zvcm09InJvdGF0ZSgtMTQuMTQ2MDIyKSIgeT0iMTIyLjg1NjQ4IiB4PSI4NS4xNzk2MjYiLz48cmVjdCBzdHlsZT0iZmlsbDojZmZmZmZmO3N0cm9rZS13aWR0aDowLjI1NTtzdHJva2U6I2ZmZmZmZjtzdHJva2UtZGFzaGFycmF5Om5vbmUiIGlkPSJyZWN0NSIgaGVpZ2h0PSIwLjQwOTA4NzI0IiB3aWR0aD0iOC4wNDUzODI1IiB0cmFuc2Zvcm09InJvdGF0ZSgtNDUuMDY0ODIzKSIgeT0iMTU2LjUxNjI3IiB4PSI2LjU5MTMxNDgiLz48cmVjdCBzdHlsZT0iZmlsbDojZmZmZmZmO3N0cm9rZS13aWR0aDowLjI1NTtzdHJva2U6I2ZmZmZmZjtzdHJva2UtZGFzaGFycmF5Om5vbmUiIGlkPSJyZWN0NiIgaGVpZ2h0PSI3LjUwMDM2ODYiIHdpZHRoPSIwLjQwOTExMDk5IiB0cmFuc2Zvcm09InJvdGF0ZSgtNzUuODQ4NDIzKSIgeT0iMTM0LjA4MDczIiB4PSItNjcuMDYxODA2Ii8+PC9nPjwvc3ZnPg==;resizable=0;imageBackground=none;" parent="1" vertex="1">
          <mxGeometry x="1775" y="485" width="30" height="30" as="geometry" />
        </mxCell>
        <mxCell id="7goHa-sb4eDq98V5vhiT-15" value="NodePool - mongodb" style="rounded=0;whiteSpace=wrap;html=1;dashed=1;strokeColor=#999999;verticalAlign=top;" parent="1" vertex="1">
          <mxGeometry x="1812" y="620.5" width="303" height="170" as="geometry" />
        </mxCell>
        <mxCell id="7goHa-sb4eDq98V5vhiT-16" value="Pods mongodb" style="rounded=0;whiteSpace=wrap;html=1;dashed=1;strokeColor=#999999;verticalAlign=top;dashPattern=1 2;" parent="1" vertex="1">
          <mxGeometry x="1903" y="650.5" width="192" height="134" as="geometry" />
        </mxCell>
        <mxCell id="7goHa-sb4eDq98V5vhiT-17" value="" style="rounded=0;whiteSpace=wrap;html=1;fillColor=#dae8fc;strokeColor=#6c8ebf;" parent="1" vertex="1">
          <mxGeometry x="1952.25" y="684.5" width="64" height="40" as="geometry" />
        </mxCell>
        <mxCell id="7goHa-sb4eDq98V5vhiT-18" value="" style="rounded=0;whiteSpace=wrap;html=1;fillColor=#dae8fc;strokeColor=#6c8ebf;" parent="1" vertex="1">
          <mxGeometry x="1962.25" y="694.5" width="64" height="40" as="geometry" />
        </mxCell>
        <mxCell id="7goHa-sb4eDq98V5vhiT-19" value="" style="rounded=0;whiteSpace=wrap;html=1;fillColor=#dae8fc;strokeColor=#6c8ebf;" parent="1" vertex="1">
          <mxGeometry x="1972.25" y="704.5" width="64" height="40" as="geometry" />
        </mxCell>
        <mxCell id="7goHa-sb4eDq98V5vhiT-20" value="" style="rounded=0;whiteSpace=wrap;html=1;fillColor=#dae8fc;strokeColor=#6c8ebf;" parent="1" vertex="1">
          <mxGeometry x="1982.25" y="714.5" width="64" height="40" as="geometry" />
        </mxCell>
        <mxCell id="7goHa-sb4eDq98V5vhiT-21" value="POD" style="rounded=0;whiteSpace=wrap;html=1;fillColor=#dae8fc;strokeColor=#6c8ebf;" parent="1" vertex="1">
          <mxGeometry x="1992.25" y="724.5" width="64" height="40" as="geometry" />
        </mxCell>
        <mxCell id="7goHa-sb4eDq98V5vhiT-22" value="&lt;div style=&quot;&quot;&gt;K8S Cluster&amp;nbsp;&lt;/div&gt;&lt;div style=&quot;&quot;&gt;(1 master node)&lt;/div&gt;" style="image;sketch=0;aspect=fixed;html=1;points=[];align=left;fontSize=12;image=img/lib/mscae/Kubernetes.svg;labelPosition=right;verticalLabelPosition=middle;verticalAlign=middle;" parent="1" vertex="1">
          <mxGeometry x="1801.37" y="558.5" width="40.63" height="39" as="geometry" />
        </mxCell>
        <mxCell id="7goHa-sb4eDq98V5vhiT-24" value="1 Nodes&#xa;(Worker)&#xa;s7n.xlarge.2&#xa;4 Vcpu&#xa;8 GiB&#xa;" style="shape=image;verticalLabelPosition=bottom;verticalAlign=top;imageAspect=0;aspect=fixed;image=data:image/svg+xml,PHN2ZyB2ZXJzaW9uPSIxLjEiIHZpZXdCb3g9IjAgMCAyNCAyNCIgeG1sbnM9Imh0dHA6Ly93d3cudzMub3JnLzIwMDAvc3ZnIj4KPHRpdGxlPuiuoeeuly9FQ1M8L3RpdGxlPgo8ZyBmaWxsPSJub25lIiBmaWxsLXJ1bGU9ImV2ZW5vZGQiPgo8cmVjdCB3aWR0aD0iMjQuMDA3IiBoZWlnaHQ9IjI0LjAwNyIgcng9IjUuMDAxNCIgZmlsbD0iI0Y4NTgzNSIgZmlsbC1ydWxlPSJub256ZXJvIi8+CjxwYXRoIGQ9Im04LjAwNDcgMTguMDA1LTEuNzk4M2UtNCAtMC4wMDcxNTc3Yy0yLjIzMjEtMC4xMzIwNC00LjAwMzQtMi4wNzQ0LTQuMDAzNC00LjQ1MTIgMC0yLjQxOTMgMS44MzUyLTQuMzg4NSA0LjEyMzYtNC40NTY1IDAuNTUwNjMtMS43OTIgMi4xNTIxLTMuMDg4NCA0LjA0MTktMy4wODg0IDEuODk4MiAwIDMuNTA1NSAxLjMwNzkgNC4wNDkxIDMuMTEyMyAyLjEzMDQgMC4yMzg2IDMuNzg5OCAyLjEzMjEgMy43ODk4IDQuNDMyNiAwIDIuNDI3MS0xLjg0NzEgNC40MDEyLTQuMTQ1OCA0LjQ1NzFsLTAuMTAwMjMgMC4wMDEyMTc2aC03Ljc1NDd6IiBmaWxsPSIjZmZmIi8+CjxyZWN0IHg9IjYuNjQzMSIgeT0iMTEuMjI3IiB3aWR0aD0iMTAuNzU1IiBoZWlnaHQ9IjMuMjkwMiIgcng9IjEuNjQ1MSIgZmlsbD0iI0Y4NTgzNSIgZmlsbC1ydWxlPSJub256ZXJvIi8+CjxwYXRoIGQ9Im03LjY0NDggMTUuNTA3IDguNzY3IDAuMDM3NTE5YzAuMjAxMTQgOC42MDdlLTQgMC4zNjM0OSAwLjE2NTIzIDAuMzYyNjQgMC4zNjcxMy04LjI1M2UtNCAwLjE5MjcyLTAuMTUwMDYgMC4zNDk5OC0wLjMzODU2IDAuMzYzMTNsLTAuMDI3MTg0IDguODYzZS00IC04Ljc2Ny0wLjAzNzUxOWMtMC4yMDExNC04LjYwN2UtNCAtMC4zNjM0OS0wLjE2NTIzLTAuMzYyNjQtMC4zNjcxMyA4LjI1MjZlLTQgLTAuMTkyNzIgMC4xNTAwNi0wLjM0OTk4IDAuMzM4NTYtMC4zNjMxM2wwLjAyNzE4NC04Ljg2M2UtNHoiIGZpbGw9IiNGODU4MzUiIGZpbGwtcnVsZT0ibm9uemVybyIvPgo8Y2lyY2xlIGN4PSIxNS42NTUiIGN5PSIxMi45NDgiIHI9IjEuMDAwMyIgZmlsbD0iI2ZmZiIgZmlsbC1ydWxlPSJub256ZXJvIi8+CjwvZz4KPC9zdmc+Cg==" parent="1" vertex="1">
          <mxGeometry x="1835" y="650.5" width="40" height="40" as="geometry" />
        </mxCell>
        <mxCell id="7goHa-sb4eDq98V5vhiT-33" value="ELB" style="shape=image;verticalLabelPosition=middle;verticalAlign=middle;imageAspect=0;aspect=fixed;image=data:image/svg+xml,PHN2ZyB2ZXJzaW9uPSIxLjEiIHZpZXdCb3g9IjAgMCA3MiA3MiIgeG1sbnM9Imh0dHA6Ly93d3cudzMub3JnLzIwMDAvc3ZnIiB4bWxuczp4bGluaz0iaHR0cDovL3d3dy53My5vcmcvMTk5OS94bGluayI+Cjx0aXRsZT7nvZHnu5wvRUxCPC90aXRsZT4KPGRlZnM+CjxlbGxpcHNlIGlkPSJhIiBjeD0iMzYuMDA1IiBjeT0iMTUuNTg1IiByeD0iNS4wMDI4IiByeT0iNSIvPgo8ZmlsdGVyIGlkPSJiIiB4PSItNDAlIiB5PSItNDAlIiB3aWR0aD0iMTk5LjklIiBoZWlnaHQ9IjIwMCUiPgo8ZmVPZmZzZXQgZHg9IjEiIGR5PSIxIiBpbj0iU291cmNlQWxwaGEiIHJlc3VsdD0ic2hhZG93T2Zmc2V0T3V0ZXIxIi8+CjxmZUdhdXNzaWFuQmx1ciBpbj0ic2hhZG93T2Zmc2V0T3V0ZXIxIiByZXN1bHQ9InNoYWRvd0JsdXJPdXRlcjEiIHN0ZERldmlhdGlvbj0iMS41Ii8+CjxmZUNvbG9yTWF0cml4IGluPSJzaGFkb3dCbHVyT3V0ZXIxIiB2YWx1ZXM9IjAgMCAwIDAgMC4xNTE1NDgyODMgICAwIDAgMCAwIDAuNDAyNDUyOTAxICAgMCAwIDAgMCAwLjcwNzE0NDQ3NSAgMCAwIDAgMC41IDAiLz4KPC9maWx0ZXI+CjwvZGVmcz4KPGcgZmlsbD0ibm9uZSIgZmlsbC1ydWxlPSJldmVub2RkIj4KPHJlY3Qgd2lkdGg9IjcyIiBoZWlnaHQ9IjcyIiByeD0iMTYiIGZpbGw9IiMxNDc2RkYiLz4KPGcgdHJhbnNmb3JtPSJ0cmFuc2xhdGUoMTIgMTIpIj4KPHBhdGggZD0ibTIyLjE2NSA3LjExMjdjMC4xNzIzNiAwLjA5MDU0NSAwLjM1MDE4IDAuMTcwMTggMC41MzY3MyAwLjIzNDU1djMzLjMwN2MtMC43MzMwOSAwLjI1NDE4LTEuMzYxNSAwLjcxMDE4LTEuODE3NSAxLjMwNjlsLTE0LjU1MS02Ljk0OGMwLjA4OTQ1NS0wLjI4OTA5IDAuMTUyNzMtMC41OTAxOCAwLjE1MjczLTAuOTA3NjQgMC0wLjk3Mi0wLjQ2MzY0LTEuODMyNy0xLjE3NDktMi40MTJsMTYuODUzLTI0LjU4em0xOS4zNDcgMjYuOTkyYzAgMC4zMjk0NSAwLjA2NjU0NiAwLjY0MDM2IDAuMTYzNjQgMC45MzgxOGwtMTQuNTcyIDYuOTA1NWMtMC40NTYtMC41OTAxOC0xLjA3ODktMS4wNDE4LTEuODA2NS0xLjI5NDl2LTMzLjMwN2MwLjIxNDkxLTAuMDc0MTgyIDAuNDE4OTEtMC4xNjggMC42MTUyNy0wLjI3NzA5bDE2LjgyOCAyNC41NzljLTAuNzQxODIgMC41NzkyNy0xLjIyODQgMS40NTg1LTEuMjI4NCAyLjQ1NTZ6bTMuMjQ0NC0zLjE1NzFjLTAuMjk2NzMgMC0wLjU3ODE4IDAuMDUxMjczLTAuODUyIDAuMTIzMjdsLTE2Ljk4My0yNC44MDNjMC41OTU2NC0wLjY2NjU1IDAuOTY5ODItMS41MjYyIDAuOTY5ODItMi40Nzg1IDAtMi4wOTAyLTEuNzQ0NC0zLjc4OTgtMy44OTEzLTMuNzg5OC0yLjE0OTEgMC0zLjg5MjQgMS42OTk2LTMuODkyNCAzLjc4OTggMCAwLjk4NCAwLjM5NiAxLjg3MzEgMS4wMjg3IDIuNTQ3M2wtMTYuOTc1IDI0Ljc1NWMtMC4yOTIzNi0wLjA4NTA5MS0wLjU5NzgyLTAuMTQ0LTAuOTE5NjQtMC4xNDQtMS43ODkxIDAtMy4yNDIyIDEuNDE2LTMuMjQyMiAzLjE1NzEgMCAxLjc0MzMgMS40NTMxIDMuMTU4MiAzLjI0MjIgMy4xNTgyIDAuNDczNDUgMCAwLjkxODU1LTAuMTAzNjQgMS4zMjMzLTAuMjgwMzZsMTUuNTYzIDcuNDMxM2MwLjExMDE4IDEuOTk1MyAxLjc5MzUgMy41ODU4IDMuODcxNiAzLjU4NTggMi4wODM2IDAgMy43NzM1LTEuNjAxNSAzLjg3MTYtMy42MDY1bDE1LjU5Ny03LjM5MmMwLjM5NiAwLjE2NjkxIDAuODMwMTggMC4yNjE4MiAxLjI4ODQgMC4yNjE4MiAxLjc4OTEgMCAzLjI0MzMtMS40MTQ5IDMuMjQzMy0zLjE1ODIgMC0xLjc0MTEtMS40NTQyLTMuMTU3MS0zLjI0MzMtMy4xNTcxeiIgZmlsbD0iI2ZmZiIgc3Ryb2tlPSIjZmZmIi8+CjxwYXRoIGlkPSLot6/lvoQiIGQ9Im00NC43NTcgMzZjLTEuMDczNSAwLTEuOTQ2Mi0wLjg0OTgyLTEuOTQ2Mi0xLjg5NDkgMC0xLjA0NCAwLjg3MjczLTEuODk0OSAxLjk0NjItMS44OTQ5IDEuMDcyNCAwIDEuOTQ1MSAwLjg1MDkxIDEuOTQ1MSAxLjg5NDkgMCAxLjA0NTEtMC44NzI3MyAxLjg5NDktMS45NDUxIDEuODk0OXoiIGZpbGw9IiMxNDc2RkYiLz4KPHBhdGggaWQ9ImMiIGQ9Im0yNCA0Ni43MzhjLTEuNDMxMyAwLTIuNTk0Mi0xLjEzMzUtMi41OTQyLTIuNTI2NXMxLjE2MjktMi41MjY1IDIuNTk0Mi0yLjUyNjVjMS40MzAyIDAgMi41OTQyIDEuMTMzNSAyLjU5NDIgMi41MjY1cy0xLjE2NCAyLjUyNjUtMi41OTQyIDIuNTI2NXoiIGZpbGw9IiMxNDc2RkYiLz4KPHBhdGggZD0ibTEuMjk3MSAzNC4xMDVjMC0xLjA0NCAwLjg3MjczLTEuODk0OSAxLjk0NTEtMS44OTQ5IDEuMDc0NSAwIDEuOTQ2MiAwLjg1MDkxIDEuOTQ2MiAxLjg5NDkgMCAxLjA0NTEtMC44NzE2NCAxLjg5NDktMS45NDYyIDEuODk0OS0xLjA3MjQgMC0xLjk0NTEtMC44NDk4Mi0xLjk0NTEtMS44OTQ5eiIgZmlsbD0iIzE0NzZGRiIvPgo8L2c+Cjx1c2UgZmlsbD0iYmxhY2siIGZpbHRlcj0idXJsKCNiKSIgeGxpbms6aHJlZj0iI2EiLz4KPHVzZSBmaWxsPSIjRkZGRkZGIiBmaWxsLXJ1bGU9ImV2ZW5vZGQiIHhsaW5rOmhyZWY9IiNhIi8+CjwvZz4KPC9zdmc+Cg==;labelPosition=right;align=left;" parent="1" vertex="1">
          <mxGeometry x="2281" y="512" width="40" height="40" as="geometry" />
        </mxCell>
        <mxCell id="7goHa-sb4eDq98V5vhiT-47" value="CodeArts Deploy" style="shape=image;verticalLabelPosition=bottom;verticalAlign=top;imageAspect=0;aspect=fixed;image=data:image/svg+xml,PHN2ZyB2ZXJzaW9uPSIxLjEiIHZpZXdCb3g9IjAgMCAyNCAyNCIgeG1sbnM9Imh0dHA6Ly93d3cudzMub3JnLzIwMDAvc3ZnIj4KPHRpdGxlPuW8gOWPkeS4jui/kOe7tC9Db2RlQXJ0cyBEZXBsb3k8L3RpdGxlPgo8ZyBmaWxsLXJ1bGU9ImV2ZW5vZGQiPgo8cmVjdCB3aWR0aD0iMjQuMDA3IiBoZWlnaHQ9IjI0LjAwNyIgcng9IjUuMzM0OCIgZmlsbD0iIzI0QzI1MSIvPgo8cGF0aCBkPSJtNS4yNjQzIDQuMDAxMWMtMC42OTY1NSAwLTEuMjYzMyAwLjU2ODE1LTEuMjYzMyAxLjI2NjJ2OS4zODg3YzAgMC42MTA3MSAwLjQxNDI5IDEuMzI2MiAwLjk0NDI2IDEuNjI4OGw2LjExNzcgMy40OTI5YzAuMjU3MTYgMC4xNDY5NSAwLjU5MTA3IDAuMjI3NyAwLjk0MDI2IDAuMjI3N3MwLjY4MzA5LTAuMDgwNzQ5IDAuOTQwMjYtMC4yMjc3bDYuMTE3My0zLjQ5MjljMC41Mjk5Ni0wLjMwMjYzIDAuOTQ0NjItMS4wMTgxIDAuOTQ0NjItMS42Mjg4di05LjM4ODdjMC0wLjY5ODAxLTAuNTY3MDYtMS4yNjYyLTEuMjYzNi0xLjI2NjJoLTEzLjQ3N3oiIGZpbGw9IiNmZmYiLz4KPGcgdHJhbnNmb3JtPSJ0cmFuc2xhdGUoNi42Njg1IDYuMDAxNikiIGZpbGw9IiMyNEMyNTEiPgo8cmVjdCB3aWR0aD0iNC42Njc5IiBoZWlnaHQ9IjguNjY5IiByeD0iLjY2Njg1Ii8+CjxyZWN0IHg9IjUuMzM0OCIgd2lkdGg9IjUuMzM0OCIgaGVpZ2h0PSI0LjAwMTEiIHJ4PSIuNjY2ODUiLz4KPHJlY3QgeD0iNS4zMzQ4IiB5PSI0LjY2NzkiIHdpZHRoPSI1LjMzNDgiIGhlaWdodD0iNC4wMDExIiByeD0iLjY2Njg1Ii8+CjwvZz4KPC9nPgo8L3N2Zz4K" parent="1" vertex="1">
          <mxGeometry x="2267.25" y="845" width="40" height="40" as="geometry" />
        </mxCell>
        <mxCell id="7goHa-sb4eDq98V5vhiT-48" value="CodeArts Build" style="shape=image;verticalLabelPosition=bottom;verticalAlign=top;imageAspect=0;aspect=fixed;image=data:image/svg+xml,PHN2ZyB2ZXJzaW9uPSIxLjEiIHZpZXdCb3g9IjAgMCAyNCAyNCIgeG1sbnM9Imh0dHA6Ly93d3cudzMub3JnLzIwMDAvc3ZnIj4KPHRpdGxlPuW8gOWPkeS4jui/kOe7tC9Db2RlQXJ0cyBCdWlsZDwvdGl0bGU+CjxnIGZpbGw9Im5vbmUiIGZpbGwtcnVsZT0iZXZlbm9kZCI+CjxyZWN0IHdpZHRoPSIyNC4wMDciIGhlaWdodD0iMjQuMDA3IiByeD0iNS4zMzQ4IiBmaWxsPSIjMTQ3NkZGIi8+CjxwYXRoIGQ9Im01LjI2NDMgNC4wMDExYy0wLjY5NjU1IDAtMS4yNjMzIDAuNTY4MTUtMS4yNjMzIDEuMjY2MnY5LjM4ODdjMCAwLjYxMDcxIDAuNDE0MjkgMS4zMjYyIDAuOTQ0MjYgMS42Mjg4bDYuMTE3NyAzLjQ5MjljMC4yNTcxNiAwLjE0Njk1IDAuNTkxMDcgMC4yMjc3IDAuOTQwMjYgMC4yMjc3czAuNjgzMDktMC4wODA3NDkgMC45NDAyNi0wLjIyNzdsNi4xMTczLTMuNDkyOWMwLjUyOTk2LTAuMzAyNjMgMC45NDQ2Mi0xLjAxODEgMC45NDQ2Mi0xLjYyODh2LTkuMzg4N2MwLTAuNjk4MDEtMC41NjcwNi0xLjI2NjItMS4yNjM2LTEuMjY2MmgtMTMuNDc3eiIgZmlsbD0iI2ZmZiIvPgo8cmVjdCB4PSI2LjgwNzQiIHk9IjcuMDAxOSIgd2lkdGg9IjEwLjM5MiIgaGVpZ2h0PSI3LjMzNTMiIHJ4PSIuNjY2ODUiIGZpbGw9IiMxNDc2RkYiLz4KPGxpbmUgeDE9IjEwLjE2OSIgeDI9IjEzLjgzNyIgeTE9IjkuMTY5MiIgeTI9IjkuMTY5MiIgc3Ryb2tlPSIjZmZmIiBzdHJva2UtbGluZWNhcD0icm91bmQiIHN0cm9rZS1saW5lam9pbj0icm91bmQiIHN0cm9rZS13aWR0aD0iLjUwMDE0Ii8+CjwvZz4KPC9zdmc+Cg==" parent="1" vertex="1">
          <mxGeometry x="2164.5" y="845" width="40" height="40" as="geometry" />
        </mxCell>
        <mxCell id="xP71LCpEv_oWyjJhIy4p-1" value="Istio Ingress" style="whiteSpace=wrap;html=1;" vertex="1" parent="1">
          <mxGeometry x="2231.5" y="558.5" width="139" height="41.5" as="geometry" />
        </mxCell>
        <mxCell id="uheoIy9ivWZ8LDRsBI1E-1" value="NAT Gateway" style="shape=image;verticalLabelPosition=bottom;verticalAlign=top;imageAspect=0;aspect=fixed;image=data:image/svg+xml,PHN2ZyB2ZXJzaW9uPSIxLjEiIHZpZXdCb3g9IjAgMCA3MiA3MiIgeG1sbnM9Imh0dHA6Ly93d3cudzMub3JnLzIwMDAvc3ZnIj4KPHRpdGxlPue9kee7nC9OQVQ8L3RpdGxlPgo8ZyBmaWxsLXJ1bGU9ImV2ZW5vZGQiPgo8cmVjdCB3aWR0aD0iNzIiIGhlaWdodD0iNzIiIHJ4PSIxNiIgZmlsbD0iIzI1QzI1MSIvPgo8cGF0aCBkPSJtMTYuNTcxIDEyYy0yLjUyNDYgMC00LjU3MTQgMi4wNDY5LTQuNTcxNCA0LjU3MTR2MzguODU3YzAgMi41MjQ2IDIuMDQ2OSA0LjU3MTQgNC41NzE0IDQuNTcxNGgzOC44NTdjMi41MjQ2IDAgNC41NzE0LTIuMDQ2OSA0LjU3MTQtNC41NzE0di0zOC44NTdjMC0yLjUyNDYtMi4wNDY5LTQuNTcxNC00LjU3MTQtNC41NzE0aC0zOC44NTd6IiBmaWxsPSIjZmZmIi8+CjxwYXRoIGQ9Im00NC4yNTcgNDcuOTk5LTIuMDAzMSAyLjQwMzV2LTkuNDQ0MmMwLTAuMzQyMTItMC4yNzc2Ni0wLjYxOTc4LTAuNjE5NzgtMC42MTk3OC0wLjM0MzM2IDAtMC42MTk3OCAwLjI3NzY2LTAuNjE5NzggMC42MTk3OHYxMS4xNTZjMCAwLjI2MTU1IDAuMTYzNjIgMC40OTMzNCAwLjQwOTA1IDAuNTgyNTkgMC4wNjk0MTUgMC4wMjYwMzEgMC4xNDAwNyAwLjAzNzE4NyAwLjIxMDcyIDAuMDM3MTg3IDAuMTgwOTcgMCAwLjM1NTc1LTAuMDc4MDkyIDAuNDc1OTktMC4yMjMxMmwzLjA5ODktMy43MTg3YzAuMjE4MTYtMC4yNjI3OSAwLjE4MzQ1LTAuNjUzMjQtMC4wNzgwOTItMC44NzI2NS0wLjI2MTU1LTAuMjE5NC0wLjY1NTcyLTAuMTg0NjktMC44NzM4OSAwLjA3OTMzMSIgZmlsbD0iIzI1QzI1MSIgc3Ryb2tlPSIjMjVDMjUxIiBzdHJva2Utd2lkdGg9IjEuMiIvPgo8cGF0aCBkPSJtMjkuNzQ2IDQwLjk1OHYxMS4xNTZjMCAwLjM0MjEyIDAuMjc3NjYgMC42MTk3OCAwLjYxOTc4IDAuNjE5NzhzMC42MTk3OC0wLjI3NzY2IDAuNjE5NzgtMC42MTk3OHYtMTEuMTU2YzAtMC4zNDIxMi0wLjI3NzY2LTAuNjE5NzgtMC42MTk3OC0wLjYxOTc4cy0wLjYxOTc4IDAuMjc3NjYtMC42MTk3OCAwLjYxOTc4eiIgZmlsbD0iIzI1QzI1MSIgc3Ryb2tlPSIjMjVDMjUxIiBzdHJva2Utd2lkdGg9IjEuMiIvPgo8cGF0aCBkPSJtNDIuMjU0IDI4LjU2M3YtOC42NzY5YzAtMC4zNDIxMi0wLjI3NzY2LTAuNjE5NzgtMC42MTk3OC0wLjYxOTc4cy0wLjYxOTc4IDAuMjc3NjYtMC42MTk3OCAwLjYxOTc4djguNjc2OWgtMTAuMDI5di04LjY3NjljMC0wLjI2MDMxLTAuMTYzNjItMC40OTMzNC0wLjQwOTA1LTAuNTgyNTktMC4yNDc5MS0wLjA5MDQ4Ny0wLjUyMDYxLTAuMDE0ODc1LTAuNjg2NzEgMC4xODU5M2wtMy4wOTg5IDMuNzE4N2MtMC4yMTk0IDAuMjYyNzktMC4xODM0NSAwLjY1NDQ4IDAuMDc4MDkyIDAuODczODkgMC4yNjI3OSAwLjIxNjkyIDAuNjUyMDEgMC4xODM0NSAwLjg3MjY1LTAuMDc5MzMxbDIuMDA0NC0yLjQwNDd2Ni45NjUxaC0zLjY2MjNjLTQuNzgzNCAwLTguNjc2OSAzLjYxNDUtOC42NzY5IDguMDU3MXMzLjg5MzQgOC4wNTcxIDguNjc2OSA4LjA1NzFjMC4zNDIxMiAwIDAuNjE5NzgtMC4yNzc2NiAwLjYxOTc4LTAuNjE5NzhzLTAuMjc3NjYtMC42MTk3OC0wLjYxOTc4LTAuNjE5NzhjLTQuMTAxNyAwLTcuNDM3My0zLjA1OTItNy40MzczLTYuODE3NSAwLTMuNzU5NiAzLjMzNTYtNi44MTc1IDcuNDM3My02LjgxNzVoMTkuODMzYzQuMTAxNyAwIDcuNDM3MyAzLjA1OCA3LjQzNzMgNi44MTc1IDAgMy43NTgzLTMuMzM1NiA2LjgxNzUtNy40MzczIDYuODE3NS0wLjM0MjEyIDAtMC42MTk3OCAwLjI3NzY2LTAuNjE5NzggMC42MTk3OHMwLjI3NzY2IDAuNjE5NzggMC42MTk3OCAwLjYxOTc4YzQuNzgzNCAwIDguNjc2OS0zLjYxNDUgOC42NzY5LTguMDU3MXMtMy44OTM0LTguMDU3MS04LjY3NjktOC4wNTcxaC0zLjY2MjN6IiBmaWxsPSIjMjVDMjUxIiBzdHJva2U9IiMyNUMyNTEiIHN0cm9rZS13aWR0aD0iMS4yIi8+CjwvZz4KPC9zdmc+Cg==" vertex="1" parent="1">
          <mxGeometry x="2515" y="744.5" width="40" height="40" as="geometry" />
        </mxCell>
        <mxCell id="uheoIy9ivWZ8LDRsBI1E-5" style="edgeStyle=orthogonalEdgeStyle;rounded=0;orthogonalLoop=1;jettySize=auto;html=1;" edge="1" parent="1" source="uheoIy9ivWZ8LDRsBI1E-2" target="7goHa-sb4eDq98V5vhiT-35">
          <mxGeometry relative="1" as="geometry">
            <Array as="points">
              <mxPoint x="2535" y="173" />
            </Array>
          </mxGeometry>
        </mxCell>
        <mxCell id="uheoIy9ivWZ8LDRsBI1E-2" value="EIP 300 mbit/s" style="shape=image;verticalLabelPosition=bottom;verticalAlign=top;imageAspect=0;aspect=fixed;image=data:image/svg+xml,PHN2ZyB2ZXJzaW9uPSIxLjEiIHZpZXdCb3g9IjAgMCA3MiA3MiIgeG1sbnM9Imh0dHA6Ly93d3cudzMub3JnLzIwMDAvc3ZnIj4KPHRpdGxlPue9kee7nC9FSVA8L3RpdGxlPgo8ZyBmaWxsPSJub25lIiBmaWxsLXJ1bGU9ImV2ZW5vZGQiPgo8cmVjdCB3aWR0aD0iNzIiIGhlaWdodD0iNzIiIHJ4PSIxNiIgZmlsbD0iIzdEQ0MyOSIvPgo8cGF0aCBpZD0iYSIgZD0ibTM2IDEyYy0xMy4yIDAtMjQgMTAuOC0yNCAyNHMxMC44IDI0IDI0IDI0IDI0LTEwLjggMjQtMjQtMTAuOC0yNC0yNC0yNCIgZmlsbD0iI2ZmZiIvPgo8cGF0aCBkPSJtMjguOTA5IDQzLjYzNmMwLjMwMTI1IDAgMC41NDU0NS0wLjI0NDIxIDAuNTQ1NDUtMC41NDU0NXYtMTYuMzY0YzAtMC4zMDEyNS0wLjI0NDIxLTAuNTQ1NDUtMC41NDU0NS0wLjU0NTQ1cy0wLjU0NTQ1IDAuMjQ0MjEtMC41NDU0NSAwLjU0NTQ1djE2LjM2NGMwIDAuMzAxMjUgMC4yNDQyMSAwLjU0NTQ1IDAuNTQ1NDUgMC41NDU0NXptNy41OTA5LTE2LjM2NGg2LjU5MDljMi4xMDU1IDAgMy44MTgyIDEuNzEyNyAzLjgxODIgMy44MTgyIDAgMi4xMDU1LTEuNzEyNyAzLjgxODItMy44MTgyIDMuODE4MmgtNy4wOTA5di03LjEzNjRjMC0wLjI3NjE0IDAuMjIzODYtMC41IDAuNS0wLjV6bS0wLjUgOC43MjczaDcuMDkwOWMyLjcxMDkgMCA0LjkwOTEtMi4xOTgyIDQuOTA5MS00LjkwOTFzLTIuMTk4Mi00LjkwOTEtNC45MDkxLTQuOTA5MWgtNy42ODE4Yy0wLjI3NjE0IDAtMC41IDAuMjIzODYtMC41IDAuNXYxNi40MDljMCAwLjMwMTI1IDAuMjQ0MjEgMC41NDU0NSAwLjU0NTQ1IDAuNTQ1NDUgMC4zMDEyNSAwIDAuNTQ1NDUtMC4yNDQyMSAwLjU0NTQ1LTAuNTQ1NDV2LTcuMDkwOXoiIGZpbGw9IiM3RENDMjkiIHN0cm9rZT0iIzdEQ0MyOSIgc3Ryb2tlLXdpZHRoPSIxLjIiLz4KPHBhdGggZD0ibTIzLjg2MyA0Ny45MzJjMy4wODc4IDMuMTQwNSA3LjM4NSA1LjA4OCAxMi4xMzcgNS4wODggNC44MTExIDAgOS4xNTYtMS45OTYyIDEyLjI1Mi01LjIwNTYiIHN0cm9rZT0iIzdEQ0MyOSIgc3Ryb2tlLWxpbmVjYXA9InJvdW5kIiBzdHJva2Utd2lkdGg9IjEuOCIvPgo8L2c+Cjwvc3ZnPgo=;" vertex="1" parent="1">
          <mxGeometry x="2515" y="366" width="40" height="40" as="geometry" />
        </mxCell>
        <mxCell id="uheoIy9ivWZ8LDRsBI1E-4" style="edgeStyle=orthogonalEdgeStyle;rounded=0;orthogonalLoop=1;jettySize=auto;html=1;exitX=0.501;exitY=-0.028;exitDx=0;exitDy=0;exitPerimeter=0;" edge="1" parent="1" source="uheoIy9ivWZ8LDRsBI1E-1">
          <mxGeometry relative="1" as="geometry">
            <mxPoint x="2535" y="740.5" as="sourcePoint" />
            <mxPoint x="2535" y="426" as="targetPoint" />
          </mxGeometry>
        </mxCell>
        <mxCell id="uheoIy9ivWZ8LDRsBI1E-6" style="edgeStyle=orthogonalEdgeStyle;rounded=0;orthogonalLoop=1;jettySize=auto;html=1;exitX=1;exitY=0.825;exitDx=0;exitDy=0;exitPerimeter=0;entryX=0.004;entryY=0.532;entryDx=0;entryDy=0;entryPerimeter=0;" edge="1" parent="1" source="7goHa-sb4eDq98V5vhiT-11" target="uheoIy9ivWZ8LDRsBI1E-1">
          <mxGeometry relative="1" as="geometry">
            <mxPoint x="2550" y="957" as="sourcePoint" />
            <mxPoint x="2510" y="766" as="targetPoint" />
          </mxGeometry>
        </mxCell>
      </root>
    </mxGraphModel>
  </diagram>
  <diagram id="Iusr2edT3UbxkwOKNa3c" name="Software">
    <mxGraphModel dx="828" dy="2089" grid="1" gridSize="10" guides="1" tooltips="1" connect="1" arrows="1" fold="1" page="1" pageScale="1" pageWidth="850" pageHeight="1100" math="0" shadow="0">
      <root>
        <mxCell id="0" />
        <mxCell id="1" parent="0" />
        <mxCell id="AyNov7O-gYgKs4udSRPE-22" value="" style="group" parent="1" vertex="1" connectable="0">
          <mxGeometry x="1325" y="70" width="395" height="320" as="geometry" />
        </mxCell>
        <mxCell id="AyNov7O-gYgKs4udSRPE-23" value="Horizontal Pod Auto Scaling" style="rounded=1;whiteSpace=wrap;html=1;fillColor=none;strokeColor=#00abed;dashed=1;absoluteArcSize=1;imageHeight=24;arcSize=20;fontColor=#00abed;verticalAlign=top;align=left;spacingLeft=34;fontFamily=Arial;spacingTop=2;" parent="AyNov7O-gYgKs4udSRPE-22" vertex="1">
          <mxGeometry width="394.99999999999994" height="320" as="geometry" />
        </mxCell>
        <mxCell id="AyNov7O-gYgKs4udSRPE-24" value="" style="shape=image;verticalLabelPosition=bottom;labelBackgroundColor=default;verticalAlign=top;aspect=fixed;imageAspect=0;image=data:image/svg+xml,PHN2ZyB4bWxucz0iaHR0cDovL3d3dy53My5vcmcvMjAwMC9zdmciIHhtbDpzcGFjZT0icHJlc2VydmUiIGlkPSJzdmcxNDQwIiB2ZXJzaW9uPSIxLjEiIHZpZXdCb3g9IjAgMCAzMC4wMDAyMzQgMzAuMDAwMjQiIGhlaWdodD0iMzAuMDAwMjRtbSIgd2lkdGg9IjMwLjAwMDIzNW1tIj48ZGVmcyBpZD0iZGVmczE0MzciLz48ZyB0cmFuc2Zvcm09InRyYW5zbGF0ZSgtOTMuODU2Nzc1LC03OC41OTgyMikiIGlkPSJsYXllcjEiPjxwYXRoIGQ9Im0gMTAzLjg1NjY4LDc4LjU5ODIyIGMgLTUuNTM5OTg1LDAgLTkuOTk5OTA1LDQuNDU5OTEgLTkuOTk5OTA1LDkuOTk5OTA4IHYgMi4yODYxNiA3LjcxMzc0IDEwLjAwMDQzMiBoIDkuOTk5OTA1IDQuNzQwOCA1LjI1OTExIGMgNS41Mzk5OSwwIDEwLjAwMDQyLC00LjQ2MDQzIDEwLjAwMDQyLC0xMC4wMDA0MzIgdiAtNC45OTk2OSAtNS4wMDAyMSAtOS45OTk5MDggaCAtMTAuMDAwNDIgLTQuMDM1NDIgeiIgc3R5bGU9ImZpbGw6IzAwYWJlZDtmaWxsLW9wYWNpdHk6MTtzdHJva2Utd2lkdGg6MS4xNzU0NjtzdHJva2UtbGluZWNhcDpyb3VuZDtzdHJva2UtZGFzaGFycmF5OjIuMzUwOTIsIDIuMzUwOTI7cGFpbnQtb3JkZXI6bWFya2VycyBzdHJva2UgZmlsbCIgaWQ9InJlY3QxLTIiLz48cGF0aCBzdHlsZT0ic3Ryb2tlOm5vbmU7c3Ryb2tlLXdpZHRoOjEuMjQ5NjYiIGZpbGwtcnVsZT0ibm9uemVybyIgZmlsbD0iI2ZmZmZmZiIgaWQ9Iui3r+W+hOWkh+S7vS0yMiIgZD0ibSAxMTUuNDE0NzMsOTQuNjg2MDY2IC0wLjA1ODMsMC4zMjE2IGMgLTAuMTI2OSwwLjY4MTEzIC0wLjI2MTkxLDEuMzE3MDggLTAuNDEyNTIsMS45MTQ3MSBsIC0wLjAyNDIsMC4wOTUgLTAuMDczNiwwLjI3NzMzIC0wLjA0OTgsMC4xNzgzOCAtMC4wNTAzLDAuMTczMDMgLTAuMDUwNywwLjE2NzU5IC0wLjA1MTEsMC4xNjIwMiBjIC0wLjAwOCwwLjAyNjUgLTAuMDE3MSwwLjA1MjggLTAuMDI1NywwLjA3ODkgbCAtMC4wNTE1LDAuMTUzNDggYyAtMC4wMDksMC4wMjUxIC0wLjAxNzIsMC4wNSAtMC4wMjU5LDAuMDc0NiBsIC0wLjA1MTksMC4xNDQ2OSBjIC0wLjAwOSwwLjAyMzYgLTAuMDE3MywwLjA0NyAtMC4wMjYsMC4wNzAxIGwgLTAuMDUyLDAuMTM1NjYgLTAuMDUyLDAuMTI5NTEgLTAuMDUxOSwwLjEyMzIzIC0wLjA1MTgsMC4xMTY4NiBjIC0wLjAwOSwwLjAxODkgLTAuMDE3MiwwLjAzNzYgLTAuMDI1OCwwLjA1NiBsIC0wLjA1MTUsMC4xMDcwOSBjIC0wLjAwOCwwLjAxNzMgLTAuMDE3MSwwLjAzNDMgLTAuMDI1NiwwLjA1MTEgbCAtMC4wNTEsMC4wOTcxIGMgLTAuMDA4LDAuMDE1NiAtMC4wMTY5LDAuMDMxIC0wLjAyNTQsMC4wNDYgbCAtMC4wNTAzLDAuMDg2OCBjIC0wLjAwOCwwLjAxMzkgLTAuMDE2NywwLjAyNzUgLTAuMDI1LDAuMDQwOCBsIC0wLjA0OTUsMC4wNzYzIGMgLTAuMTU1OTgsMC4yMzAzOSAtMC4zMDI3NywwLjM1MzM5IC0wLjQzMDYxLDAuMzUzMzkgLTAuMTk5OCwwIC0wLjQwODgyLC0wLjIyMDMxIC0wLjYxMzM4LC0wLjYzNzEyIGwgLTAuMDQ3MSwtMC4wOTk3IGMgLTAuMDM5MiwtMC4wODU5IC0wLjA3ODIsLTAuMTc5MDkgLTAuMTE2ODYsLTAuMjc5MjYgbCAtMC4wNDYzLC0wLjEyMzU3IC0wLjA0NiwtMC4xMzAyNSAtMC4wNDU2LC0wLjEzNjg4IGMgLTAuMDA4LC0wLjAyMzQgLTAuMDE1MSwtMC4wNDcgLTAuMDIyNiwtMC4wNzA5IGwgLTAuMDQ1LC0wLjE0NjY4IC0wLjA0NDUsLTAuMTUzMTQgYyAtMC4wMDcsLTAuMDI2IC0wLjAxNDcsLTAuMDUyNCAtMC4wMjIxLC0wLjA3OSBsIC0wLjA0MzgsLTAuMTYyNjkgLTAuMDQzMiwtMC4xNjkgLTAuMDQyNiwtMC4xNzUyMiAtMC4wNDIsLTAuMTgxMzggLTAuMDQxMywtMC4xODc0OCAtMC4wNDA2LC0wLjE5MzUyIC0wLjA1MTUsLTAuMjYyMDUgLTAuMDYyNywtMC4zNDQ3NyAtMC4xNTI0OCwtMC44ODQ2MiAtMC4yNjcwNSwtMS41NzY2NCAtMC4yMjYzMSwtMS4yNDEgLTAuMTM0OTEsLTAuNzE5MjUgLTAuMDk1MiwtMC40OTU3NiAtMC4wODgyLC0wLjQ0NTQ2IC0wLjA0NzEsLTAuMjI4ODUgLTAuMDUzNCwtMC4yNDY5OSAtMC4wNTA0LC0wLjIyNTMzIC0wLjA3NTgsLTAuMzI2MzMgYyAtMC4wMDgsLTAuMDM1NSAtMC4wMTY5LC0wLjA3MDcgLTAuMDI1MywtMC4xMDU2NiBsIC0wLjA1MDgsLTAuMjA2NjIgLTAuMDUxLC0wLjIwMDM1IC0wLjA1MTMsLTAuMTk0MDYgLTAuMDUxNiwtMC4xODc3NSAtMC4wNTIsLTAuMTgxNDIgLTAuMDUyNSwtMC4xNzUwNyAtMC4wNTMsLTAuMTY4NyAtMC4wNTM2LC0wLjE2MjMyIGMgLTAuMDE4LC0wLjA1MyAtMC4wMzYsLTAuMTA1MDEgLTAuMDU0MiwtMC4xNTU5MiBsIC0wLjA1NDksLTAuMTQ5NDkgLTAuMDU1NywtMC4xNDMwNSBjIC0wLjM5MjM0LC0wLjk3ODc0IC0wLjg0NDE3LC0xLjQ4MjYyIC0xLjQ0NTI3LC0xLjQ4MjYyIC0wLjU5NjQxLDAgLTEuMDM2MzEsMC41MDQzNSAtMS40MTU1MSwxLjQ4OTQ4IGwgLTAuMDUzOCwwLjE0NCBjIC0wLjAwOSwwLjAyNDUgLTAuMDE3OCwwLjA0OTQgLTAuMDI2NiwwLjA3NDUgbCAtMC4wNTI2LDAuMTUzNzggYyAtMC4wMDksMC4wMjYyIC0wLjAxNzQsMC4wNTI2IC0wLjAyNjEsMC4wNzkzIGwgLTAuMDUxNywwLjE2MzUzIGMgLTAuMDA5LDAuMDI3OCAtMC4wMTcxLDAuMDU1OSAtMC4wMjU2LDAuMDg0MiBsIC0wLjA1MDgsMC4xNzMyNSBjIC0wLjAwOCwwLjAyOTQgLTAuMDE2OCwwLjA1OTEgLTAuMDI1MiwwLjA4OTEgbCAtMC4wNTAxLDAuMTgyOTMgLTAuMDQ5NywwLjE4OTM2IC0wLjA0OTQsMC4xOTU3OCAtMC4wNDkxLDAuMjAyMTggLTAuMDQ4OSwwLjIwODU3IC0wLjA0ODgsMC4yMTQ5NCAtMC4wNDg3LDAuMjIxMzEgLTAuMDYyNCwwLjI5MzUyIC0wLjA2MTIsMC4zMDU0OSAtMC4wODcyLDAuNDU1NjkgLTAuMTEyODcsMC42MDk2MyAtMC4zNjgwMSwyLjA0MjQ4IC0wLjI2MjAyLDEuMjM0MzYgLTAuMDQwNCwwLjE4NDgxIC0wLjA4LDAuMzU3NiBjIC0wLjAyNjYsMC4xMTY3IC0wLjA1MzEsMC4yMzEwNCAtMC4wNzk2LDAuMzQzMzUgbCAtMC4wNzk5LDAuMzMxMjUgYyAtMC4wMjY4LDAuMTA4NjMgLTAuMDUzNywwLjIxNTYgLTAuMDgwOSwwLjMyMTI2IGwgLTAuMDY1OCwwLjI1MDkzIC0wLjA0OTksMC4xODMxNSAtMC4wNTAzLDAuMTc4MjQgLTAuMDUwNSwwLjE3MzIgLTAuMDUwNywwLjE2ODAyIC0wLjA1MDgsMC4xNjI3MSAtMC4wNTA4LDAuMTU3MjcgLTAuMDUwNywwLjE1MTcxIC0wLjA3NTcsMC4yMTY4MSAtMC4wNTAxLDAuMTM3MiAtMC4wNDk3LDAuMTMxMTYgLTAuMDQ5MiwwLjEyNDk5IC0wLjA3MjcsMC4xNzU2NSAtMC4wNDc2LDAuMTA5IGMgLTAuMDA4LDAuMDE3NiAtMC4wMTU3LDAuMDM1IC0wLjAyMzUsMC4wNTIgbCAtMC4wNDY0LDAuMDk5IC0wLjA0NTQsMC4wOTIyIGMgLTAuMDA4LDAuMDE0OCAtMC4wMTQ5LDAuMDI5MyAtMC4wMjI0LDAuMDQzNSBsIC0wLjA0MzksMC4wODE3IC0wLjA0MjgsMC4wNzQ2IC0wLjA0MTUsMC4wNjczIGMgLTAuMTA5MDQsMC4xNjk1MyAtMC4yMDQwMywwLjI1OTkyIC0wLjI3NzUsMC4yNTk5MiAtMC4xOTk4NiwwIC0wLjM5OTg4LC0wLjE2NjQ0IC0wLjU5MTIsLTAuNDgyNDkgbCAtMC4wNDU3LC0wLjA3ODcgYyAtMC4wMTUyLC0wLjAyNzIgLTAuMDMwMywtMC4wNTUzIC0wLjA0NTQsLTAuMDg0NCBsIC0wLjA0NSwtMC4wOSBjIC0wLjAxNDksLTAuMDMxIC0wLjAyOTgsLTAuMDYyOCAtMC4wNDQ2LC0wLjA5NTYgbCAtMC4wNDQxLC0wLjEwMTE4IC0wLjA0MzcsLTAuMTA2NjYgYyAtMC4wMDcsLTAuMDE4MiAtMC4wMTQ0LC0wLjAzNjcgLTAuMDIxNiwtMC4wNTU0IGwgLTAuMDQyOSwtMC4xMTQ4IGMgLTAuMDA3LC0wLjAxOTYgLTAuMDE0MiwtMC4wMzk0IC0wLjAyMTMsLTAuMDU5NCBsIC0wLjA0MjEsLTAuMTIyODEgYyAtMC4wMDcsLTAuMDIwOSAtMC4wMTM5LC0wLjA0MiAtMC4wMjA4LC0wLjA2MzQgbCAtMC4wNDEyLC0wLjEzMDcxIC0wLjA0MDYsLTAuMTM1OTEgLTAuMDM5OSwtMC4xNDEwNyBjIC0wLjAwNywtMC4wMjM5IC0wLjAxMzIsLTAuMDQ4MSAtMC4wMTk3LC0wLjA3MjQgbCAtMC4wMzg5LC0wLjE0ODY5IC0wLjAzODIsLTAuMTUzNzEgLTAuMDM3NSwtMC4xNTg2OCAtMC4wMzY3LC0wLjE2MzYgLTAuMDM1OSwtMC4xNjg0NiAtMC4wMzUxLC0wLjE3MzI4IC0wLjA1MSwtMC4yNjg4MiAtMC4wMzI5LC0wLjE4NTA5IC0wLjAzMiwtMC4xODk3MSAtMC4wMzEsLTAuMTk0MyAtMC4wMzAxLC0wLjE5ODgyIC0wLjA0MzIsLTAuMzA2NjIgLTAuMDI3NSwtMC4yMDk5MiAtMC4wMjY1LC0wLjIxNDI3IC0wLjAyNTQsLTAuMjE4NTYgLTAuMDM1OSwtMC4zMzU3OSAtMC4wMjI1LC0wLjIyOTA4IC0wLjA1NDMsLTAuNjEwMzEgLTAuMDI0LC0wLjI1MTY1IC0wLjAyNTIsLTAuMjQ0MzMgLTAuMDI2NCwtMC4yMzcwNSBjIC0wLjAwNSwtMC4wMzg5IC0wLjAwOSwtMC4wNzc1IC0wLjAxMzcsLTAuMTE1NzkgbCAtMC4wMjgyLC0wLjIyNjE2IC0wLjAyOTUsLTAuMjE4OTIgYyAtMC4wMDUsLTAuMDM1OSAtMC4wMTAxLC0wLjA3MTUgLTAuMDE1MiwtMC4xMDY3NiBsIC0wLjAzMTQsLTAuMjA4MTMgLTAuMDMyOCwtMC4yMDA5NSAtMC4wMzQxLC0wLjE5MzgxIC0wLjAzNTUsLTAuMTg2NjggYyAtMC4wMDYsLTAuMDMwNSAtMC4wMTIxLC0wLjA2MDcgLTAuMDE4MywtMC4wOTA3IGwgLTAuMDM3NiwtMC4xNzYwNCBjIC0wLjAwNiwtMC4wMjg4IC0wLjAxMjgsLTAuMDU3MiAtMC4wMTkzLC0wLjA4NTQgbCAtMC4wMzk3LC0wLjE2NTQ1IGMgLTAuMTk1NTIsLTAuNzgyNjkgLTAuNDQyMDksLTEuMzE5MDcgLTAuNzUxMTMsLTEuNjIxMTcgLTAuMTc2NjUsLTAuMTcyNjkgLTAuNDU4OTcsLTAuMTY4NTggLTAuNjMwNTgsMC4wMDkgLTAuMTYyNTgsMC4xNjg0IC0wLjE2NzQ3LDAuNDMyMjQgLTAuMDE3MywwLjYwNjM3IGwgMC4wMjY1LDAuMDI4MiBjIDAuMDk2LDAuMDkzOCAwLjE4ODYsMC4yNDczMSAwLjI3NjU1LDAuNDU5MDYgbCAwLjAzNzQsMC4wOTQzIDAuMDM2OCwwLjEwMTQzIDAuMDM2MiwwLjEwODUyIGMgMC4wMDYsMC4wMTg3IDAuMDExOSwwLjAzNzYgMC4wMTc5LDAuMDU2OSBsIDAuMDM1MiwwLjExOTExIGMgMC4wMTE2LDAuMDQwOSAwLjAyMzEsMC4wODI5IDAuMDM0NSwwLjEyNjEzIGwgMC4wMzM5LDAuMTMzMTUgYyAwLjAwNiwwLjAyMjggMC4wMTExLDAuMDQ1OCAwLjAxNjcsMC4wNjkyIGwgMC4wMzI4LDAuMTQzNjEgMC4wMzIsMC4xNTA1NiBjIDAuMDA1LDAuMDI1NyAwLjAxMDUsMC4wNTE2IDAuMDE1NywwLjA3NzkgbCAwLjAzMDgsMC4xNjA5MyAwLjAzLDAuMTY3ODIgMC4wMjkyLDAuMTc0NjkgMC4wMjg0LDAuMTgxNTIgMC4wMjc1LDAuMTg4MzUgMC4wMjY2LDAuMTk1MTMgMC4wMjU3LDAuMjAxOTEgMC4wMjQ3LDAuMjA4NjUgMC4wMjM4LDAuMjE1MzcgMC4wMjI4LDAuMjIyMDcgMC4wMzIzLDAuMzQ1NjIgMC4wMzE5LDAuMzY1OTYgMC4wMjI4LDAuMjQzMzQgMC4wMzYzLDAuMzU3MjYgMC4wMjU3LDAuMjMyOTQgMC4wMjY4LDAuMjI4NzEgMC4wMjgsMC4yMjQ0NiAwLjAyOTIsMC4yMjAxNSAwLjAzMDMsMC4yMTU4MSAwLjA0NzgsMC4zMTU1MSBjIDAuMDA1LDAuMDM0NSAwLjAxMSwwLjA2ODggMC4wMTY1LDAuMTAyOTYgbCAwLjAzNCwwLjIwMjU4IGMgMC4wMDYsMC4wMzM0IDAuMDExNiwwLjA2NjYgMC4wMTc0LDAuMDk5NiBsIDAuMDM1OCwwLjE5NTg0IGMgMC4wMDYsMC4wMzIzIDAuMDEyMiwwLjA2NDMgMC4wMTg0LDAuMDk2MiBsIDAuMDM3NywwLjE4OTA3IDAuMDM4OSwwLjE4NDQxIGMgMC4wMDcsMC4wMzAzIDAuMDEzMiwwLjA2MDUgMC4wMTk5LDAuMDkwNSBsIDAuMDQwOCwwLjE3NzQ1IDAuMDQyMSwwLjE3Mjc1IGMgMC4wMTQzLDAuMDU2OCAwLjAyODcsMC4xMTI4MSAwLjA0MzQsMC4xNjgwMiBsIDAuMDQ0NywwLjE2MzI2IGMgMC4wMTUxLDAuMDUzNiAwLjAzMDQsMC4xMDY0NSAwLjA0NiwwLjE1ODQ2IGwgMC4wNDczLDAuMTUzNjIgMC4wNDg2LDAuMTQ4NzMgYyAwLjQ0Mzc2LDEuMzE2NTk0IDEuMDQ5OTEsMi4wMzYwMTQgMS44NTAyNywyLjAzNjAxNCAwLjQ2OTg5LDAgMC44NTI0NCwtMC4zMjQzNCAxLjE5NTkxLC0wLjk1MDE1NCBsIDAuMDYyLC0wLjExNzEgYyAwLjAxMDMsLTAuMDIwMSAwLjAyMDUsLTAuMDQwNCAwLjAzMDcsLTAuMDYxIGwgMC4wNjA5LC0wLjEyNzAxIGMgMC4wMTAxLC0wLjAyMTcgMC4wMjAxLC0wLjA0MzcgMC4wMzAyLC0wLjA2NiBsIDAuMDU5OCwtMC4xMzY4NSAwLjA1OTIsLTAuMTQzMzcgYyAwLjAyOTUsLTAuMDczMyAwLjA1ODcsLTAuMTQ5MDYgMC4wODc5LC0wLjIyNzIyIGwgMC4wNTgsLTAuMTU5NTQgMC4wNTc2LC0wLjE2NTk2IGMgMC4wMSwtMC4wMjgyIDAuMDE5MSwtMC4wNTY2IDAuMDI4NywtMC4wODU0IGwgMC4wNTcyLC0wLjE3NTUzIDAuMDU3LC0wLjE4MTg2IDAuMDU2OCwtMC4xODgxNyAwLjA1NjcsLTAuMTk0NDQgMC4wNTY3LC0wLjIwMDcgMC4wNTY3LC0wLjIwNjkxIDAuMDU2OCwtMC4yMTMwOSAwLjA0MjEsLTAuMTYxODMgMC4wODI5LC0wLjMyOTQzIGMgMC4wMTM3LC0wLjA1NTYgMC4wMjc0LC0wLjExMTY4IDAuMDQxLC0wLjE2ODE3IGwgMC4wODE1LC0wLjM0NDYyIDAuMDgxNCwtMC4zNTc1NCBjIDAuMDEzNiwtMC4wNjA4IDAuMDI3MywtMC4xMjIyIDAuMDQwOSwtMC4xODQzIGwgMC4zMDczNSwtMS40NDM0OCAwLjM1NzcxLC0xLjk4NDY2IDAuMTI2NjMsLTAuNjg0OTIgMC4wNzc5LC0wLjQwNzQzIDAuMDU3NCwtMC4yODc5NSAwLjA2MywtMC4yOTY0NSAwLjA0MywtMC4xOTMxMiAwLjA0MzQsLTAuMTg4MTcgMC4wNDM4LC0wLjE4MzEgMC4wNjYyLC0wLjI2NDkgMC4wNDQ0LC0wLjE2OTk1IDAuMDQ0NSwtMC4xNjQ0OCAwLjA0NDUsLTAuMTU4OTIgMC4wNDQ1LC0wLjE1MzIzIDAuMDQ0NSwtMC4xNDc0NSAwLjA0NDMsLTAuMTQxNTQgMC4wNDQxLC0wLjEzNTUyIGMgMC4wMDcsLTAuMDIyMSAwLjAxNDcsLTAuMDQzOSAwLjAyMiwtMC4wNjU1IGwgMC4wNDM3LC0wLjEyNjI5IDAuMDY0OCwtMC4xNzc1OSAwLjA0MjcsLTAuMTEwMzUgMC4wNDIxLC0wLjEwMzc3IDAuMDQxNSwtMC4wOTcxIDAuMDQwOSwtMC4wOTAzIGMgMC4wMDcsLTAuMDE0NSAwLjAxMzUsLTAuMDI4NyAwLjAyMDIsLTAuMDQyNiBsIDAuMDM5OCwtMC4wNzk5IGMgMC4wMjYyLC0wLjA1MDkgMC4wNTE5LC0wLjA5NzEgMC4wNzcsLTAuMTM4NDEgbCAwLjAzNzEsLTAuMDU4MyBjIDAuMDg1NCwtMC4xMjc0NiAwLjE2MjUyLC0wLjE5NDM4IDAuMjI3NjIsLTAuMTk0MzggMC4wMjk5LDAgMC4wOTY0LDAuMDQxMyAwLjE5NDc3LDAuMTYzMTUgMC4xMzExLDAuMTYyMzQgMC4yNjkzNywwLjQxNzYyIDAuNDA3NTEsMC43NTUwMSAwLjE2NjEyLDAuNDA1NzEgMC4zMjYyMSwwLjkxMzA0IDAuNDgyMzEsMS41MTQ1NSBsIDAuMDYyMiwwLjI0NTYxIDAuMDYxOCwwLjI1NTU1IDAuMDYxNSwwLjI2NTM5IDAuMDYxMSwwLjI3NTExIDAuMDY4NywwLjMyODI4IDAuMDk3NSwwLjQ5MjI3IDAuMTA2MDgsMC41NTQxNSAwLjM4ODA2LDIuMTIyMjcgMC4yOTEwNiwxLjcyNTI2IDAuMDk4NSwwLjU2MjkzIDAuMDYzMSwwLjM0MTUzIDAuMDE3NSwwLjA4OTYgYyAwLjAxNDUsMC4wNzI2IDAuMDI5MSwwLjE0NDE0IDAuMDQzOCwwLjIxNDcgbCAwLjA2NjksMC4zMTA3OSAwLjA0NTUsMC4xOTk2NCAwLjA0NjMsMC4xOTM1NSAwLjA0NzEsMC4xODc0NSAwLjA0ODEsMC4xODEzIDAuMDQ5MSwwLjE3NTEzIGMgMC40Mjk4LDEuNDkwOTI0IDAuOTc5NzQsMi4yODI2MTQgMS44NTA0MywyLjI4MjYxNCAwLjY3MSwwIDEuMTg0MDEsLTAuNTU3MjUgMS42MjE5NCwtMS41ODIxMDQgbCAwLjA2MjEsLTAuMTQ5NTggMC4wNjExLC0wLjE1NTg5IDAuMDYwMiwtMC4xNjIxMiAwLjA1OTMsLTAuMTY4MzIgMC4wNTg1LC0wLjE3NDQ1IDAuMDU3NywtMC4xODA1MSBjIDAuMDEsLTAuMDMwNiAwLjAxOTEsLTAuMDYxNCAwLjAyODYsLTAuMDkyNSBsIDAuMDU2NywtMC4xODk1MiAwLjA1NjEsLTAuMTk1NDQgMC4wNTU1LC0wLjIwMTMxIDAuMDU1LC0wLjIwNzEyIDAuMDU0NiwtMC4yMTI4OCBjIDAuMTM4NDUsLTAuNTQ5MzkgMC4yNjM0NywtMS4xMjY4NiAwLjM4MDkyLC0xLjczODgxIGwgMC4wOTg1LC0wLjUzMzIyIDAuMTg2OTQsLTEuMDczMzggMC4wMjIsLTAuMTM1NyAwLjAzMzIsLTAuMjIyMyAwLjAzNDcsLTAuMjUyMjIgMC4xMjc0MSwtMC45OTQ5OCAwLjA1MDIsLTAuMzcyOTYgMC4wMjQ5LC0wLjE3NTYgYyAwLjA4NzIsLTAuNjA0MzcgMC4xODMzNCwtMS4xNTAwNSAwLjMwNDMyLC0xLjY5OTI5IDAuMDUzMywtMC4yNDE5NSAtMC4wOTg0LC0wLjQ4MTU3IC0wLjMzODg2LC0wLjUzNTIxIC0wLjI0MDQ0LC0wLjA1MzYgLTAuNDc4NTcsMC4wOTkgLTAuNTMxODcsMC4zNDA5OSAtMC4xMTA0LDAuNTAxMTQgLTAuMjAwNjUsMC45OTc4NSAtMC4yODE5LDEuNTMyODEgbCAtMC4wNDcxLDAuMzIxMjkgLTAuMDM3OSwwLjI3NDcxIC0wLjE0MTIzLDEuMDk5MDMgLTAuMDQ0OSwwLjMyOTg5IC0wLjAzMTQsMC4yMTA4NCBjIC0wLjAwMywwLjAyMiAtMC4wMDcsMC4wNDM2IC0wLjAxMDIsMC4wNjQ4IHoiLz48cGF0aCBzdHlsZT0iZmlsbDojZmZmZmZmO2ZpbGwtcnVsZTpub256ZXJvO3N0cm9rZTojZmZmZmZmO3N0cm9rZS13aWR0aDowLjYyNDgzIiBpZD0idXNlMiIgZD0ibSAxMTUuNDY2NDMsOTMuNTAzODU2IGMgNS41ZS00LDAuMDAzIDguNWUtNCwwLjAwMyA5LjJlLTQsMC4wMDIgbCAtMC4wMTI5LC0wLjExOTQ5IC0wLjA0OCwtMC4zODE5NSAtMC4wOTAzLC0wLjY3NzU3IC0wLjA2NzQsLTAuNDgyMTcgLTAuMDY1LC0wLjQ0NjUxIC0wLjA3MjMsLTAuNDcwMDEgLTAuMDQyNiwtMC4yNjAxNyAtMC4wNDEsLTAuMjM1NSAtMC4wMjYxLC0wLjEzOTk1IC0wLjAzMjcsLTAuMTYzMDEgLTAuMDQxMiwtMC4xOTMyOSBjIC0wLjAwNywtMC4wMzE3IC0wLjAxNCwtMC4wNjMxIC0wLjAyMSwtMC4wOTQ0IGwgLTAuMDQyOSwtMC4xODQwOCAtMC4wNDQsLTAuMTc3ODggLTAuMDQ1MSwtMC4xNzE2IGMgLTAuMDc2LC0wLjI4MDczIC0wLjE1NjE2LC0wLjUzNDk5IC0wLjIzOTYzLC0wLjc2MTMzIGwgLTAuMDUwNSwtMC4xMzI0NSAtMC4wNTEyLC0wLjEyNTY4IGMgLTAuMjgzNjEsLTAuNjcyNSAtMC41OTg5MSwtMS4wMzQ3MyAtMC45MTI1MywtMS4wMzQ3MyAtMC40MzgyOCwwIC0wLjc5NTQyLDAuNTIxNSAtMS4wNjU1MSwxLjU1MzE3IGwgLTAuMDM4OSwwLjE1NDYyIGMgLTAuMDE5MSwwLjA3OTEgLTAuMDM3OCwwLjE2MDk4IC0wLjA1NiwwLjI0NTU2IGwgLTAuMDM1OCwwLjE3Mjc5IC0wLjAzNDUsMC4xODAwNSAtMC4wMzMzLDAuMTg3MjkgLTAuMDMyLDAuMTk0NTQgYyAtMC4wMDUsMC4wMzMgLTAuMDEwNCwwLjA2NjMgLTAuMDE1NSwwLjEgbCAtMC4wMzAxLDAuMjA1MzggLTAuMDI3OSwwLjIwNDg2IC0wLjAyNzIsMC4yMTI3NSBjIC0wLjAwNSwwLjAzNjMgLTAuMDA5LDAuMDczMSAtMC4wMTM1LDAuMTEwNTUgbCAtMC4wMjcyLDAuMjMxODYgLTAuMDcxMSwwLjY1NDkgLTAuMDU3OCwwLjU0MDY1IC0wLjAyODUsMC4yNDkzNCAtMC4wMjcyLDAuMjE5MjUgLTAuMDE3OCwwLjEzMTYxIC0wLjAxNzcsMC4xMjE0OCAtMC4wMTgsMC4xMTI2NiAtMC4wMTg0LDAuMTA1MTIgLTAuMDE0NSwwLjA3OCAtMC4zNjUwOSwyLjM2MiAtMC4wOTk3LDAuNjE5NzYgLTAuMDUwMywwLjI5NzgzIC0wLjAzMzEsMC4xODUyOCAtMC4wMjg0LDAuMTUyMDQgLTAuMDU3NywwLjI5NjAxIC0wLjA1ODgsMC4yODUyNiBjIC0wLjE3ODM2LDAuODM5NzYgLTAuMzc0MTksMS41MzUzNyAtMC42MDE3OSwyLjA5NDA1IC0wLjQwNjAzLDAuOTk2NjM0IC0wLjkyMzAxLDEuNTg1NDI0IC0xLjY1NTY4LDEuNTg1NDI0IC0wLjcxOTE3LDAgLTEuMjIwNzQsLTAuNTgwNDQgLTEuNjEyODEsLTEuNTYwMjQ0IC0wLjI2NzU0LC0wLjY2ODYgLTAuNDg4NzcsLTEuNTM4MDUgLTAuNjg3MzUsLTIuNjE1NzUgbCAtMC4wMzc0LC0wLjIwNzU1IC0wLjAzNDQsLTAuMjAzMTEgLTAuMDY1MiwtMC40MDgxIC0wLjEzMTUxLC0wLjg2NzM0IC0wLjI3ODA0LC0xLjg3NTQ5IC0wLjAyMTIsLTAuMTI4MDUgLTAuMDI1MSwtMC4xMzUxMyAtMC4yNDY0NywtMS40NDg2OSAtMC4xMDUwNSwtMC42MDIzMiAtMC4wNzU1LC0wLjQxNzQyIC0wLjA1NDUsLTAuMjg2ODkgLTAuMDM1OCwtMC4xNzcwNSAtMC4wNDIxLC0wLjE5NTA2IC0wLjA0MjksLTAuMTg4OTYgLTAuMDQzNiwtMC4xODI3OSAtMC4wNDQzLC0wLjE3NjU0IC0wLjA0NDksLTAuMTcwMjMgLTAuMDQ1NSwtMC4xNjM4MyAtMC4wNDYsLTAuMTU3MzUgLTAuMDQ2NCwtMC4xNTA4MiAtMC4wNDY4LC0wLjE0NDE5IC0wLjA0NzEsLTAuMTM3NDkgYyAtMC4wMDgsLTAuMDIyNCAtMC4wMTU4LC0wLjA0NDQgLTAuMDIzNywtMC4wNjYyIGwgLTAuMDQ3NSwtMC4xMjczMSAtMC4wNDc2LC0wLjEyMDQxIC0wLjA0NzgsLTAuMTEzNDYgLTAuMDQ3OCwtMC4xMDY0MyBjIC0wLjAzOTksLTAuMDg1NyAtMC4wNzk3LC0wLjE2NDA1IC0wLjExOTM4LC0wLjIzNDc3IGwgLTAuMDQ3NSwtMC4wODEyIGMgLTAuMTU4MTMsLTAuMjU4NDIgLTAuMzEyNzEsLTAuMzkzOTEgLTAuNDUzODksLTAuMzkzOTEgLTAuMjMwODQsMCAtMC40Mjg2OCwwLjA5ODQgLTAuNjAxNDYsMC4zMjE3NyBsIC0wLjAzOTQsMC4wNTM4IGMgLTAuMDEzLDAuMDE4NyAtMC4wMjU5LDAuMDM4MSAtMC4wMzg2LDAuMDU4MyBsIC0wLjAzNzcsMC4wNjI5IGMgLTAuMDEyNCwwLjAyMTcgLTAuMDI0NywwLjA0NDIgLTAuMDM2OSwwLjA2NzUgbCAtMC4wMzYxLDAuMDcyMiAtMC4wMzUzLDAuMDc3IC0wLjAzNDUsMC4wODE5IC0wLjAzMzgsMC4wODY4IC0wLjAzMzEsMC4wOTE4IC0wLjAzMjQsMC4wOTY5IC0wLjAzMTcsMC4xMDIwOSAtMC4wMzExLDAuMTA3MzEgLTAuMDMwNCwwLjExMjYyIC0wLjAyOTgsMC4xMTggLTAuMDI5MiwwLjEyMzQ0IC0wLjA0MjgsMC4xOTU1MyAtMC4wMjc5LDAuMTM3MzggLTAuMDI3NCwwLjE0MzA3IC0wLjA0MDEsMC4yMjU0NSAtMC4wMzkxLDAuMjM4NjkgLTAuMDI1NiwwLjE2NjU5IC0wLjAyNTEsMC4xNzI2NSAtMC4wMjQ4LDAuMTc4NzkgLTAuMDM2NSwwLjI3OTg0IC0wLjAzNTgsMC4yOTQwNCAtMC4wMzUxLDAuMzA4NSAtMC4wMzQ1LDAuMzIzMTkgLTAuMDM0LDAuMzM4MTIgLTAuMDMzNSwwLjM1MzMxIC0wLjA0NDIsMC40OTUxMSAtMC4wMzI4LDAuMzg5NjggYyAtMC4yMDk1NywyLjU0ODkzIC0xLjA4Nzg0LDUuMTE1MjQgLTIuNjI3ODUzLDcuNjk1ODE0IC0wLjE2MTk4LDAuMjcxNDQgLTAuNTA1NTIsMC4zNTUzMyAtMC43NjczMSwwLjE4NzM3IC0wLjI2MTgsLTAuMTY3OTUgLTAuMzQyNywtMC41MjQxNCAtMC4xODA3MiwtMC43OTU1OCAxLjQ1MTc1MywtMi40MzI2ODQgMi4yNzExMzMsLTQuODI2OTA0IDIuNDY1MDczLC03LjE4NTc4NCBsIDAuMDYyLC0wLjczMjk0IDAuMDM2MSwtMC40MDMxOCAwLjAzNTYsLTAuMzc3NzMgMC4wMzUzLC0wLjM1Mzg5IDAuMDMyNiwtMC4zMDY0MSAwLjAyOTMsLTAuMjU4ODggMC4wMjk3LC0wLjI0NTcxIDAuMDMwMiwtMC4yMzM0NSAwLjAzMDksLTAuMjIyMSBjIDAuMDA1LC0wLjAzNjEgMC4wMTA1LC0wLjA3MTggMC4wMTU4LC0wLjEwNzA3IGwgMC4wMzIyLC0wLjIwNjc1IDAuMDMzMywtMC4xOTc2NSAwLjAzNDUsLTAuMTg5NDUgYyAwLjAwNiwtMC4wMzA5IDAuMDExOCwtMC4wNjE2IDAuMDE3OCwtMC4wOTE5IGwgMC4wMzY2LC0wLjE3ODg0IDAuMDM4MywtMC4xNzI5IGMgMC4wMTMsLTAuMDU2NyAwLjAyNjQsLTAuMTEyNjQgMC4wNCwtMC4xNjc4NSBsIDAuMDQyLC0wLjE2MzcyIDAuMDIxNywtMC4wODA2IGMgMC4zOTQ4NCwtMS40Mzg1NCAxLjA1Nzk4LC0yLjI0MTA1IDIuMTI3NjQsLTIuMjQxMDUgMC45MDU1MywwIDEuNDk0MTksMC43NjE4NyAxLjk0OTEyLDIuMTY3NzUgbCAwLjA1NCwwLjE3MTc5IGMgMC4wMDksMC4wMjkxIDAuMDE3NywwLjA1ODUgMC4wMjY1LDAuMDg4MiBsIDAuMDUyMiwwLjE4MDk3IDAuMDUxMSwwLjE4NzA1IDAuMDUsMC4xOTMwNyAwLjA0OSwwLjE5OTA1IDAuMDQ4MiwwLjIwNDk5IDAuMDQ3MywwLjIxMDg3IDAuMDU5MiwwLjI3NzY3IDAuMDU2MiwwLjI4NjU3IDAuMDc5NCwwLjQzMTc5IDAuMDg0NSwwLjQ3ODM2IDAuMzAxNzcsMS43Njk3OSAwLjAxNiwwLjA4NTcgMC4wNCwwLjI0OTcgMC4zNjYsMi40NTU0MSAwLjA3MjcsMC40NjQ0NiAwLjA0MjIsMC4yNTQ4IDAuMDE4NiwwLjEwNjUzIGMgMC4wMzM1LDAuMTg2NzMgMC4wNjc1LDAuMzY2NyAwLjEwMjI0LDAuNTM5OCBsIDAuMDUyNiwwLjI1NDUxIGMgMC4xNTAzOSwwLjcwNjQ2IDAuMzEzMTcsMS4yODgyMSAwLjQ5MzEzLDEuNzM3OTMgMC4yMzU2MywwLjU4ODg1IDAuNDU4OTIsMC44NDcyMyAwLjU4MzA4LDAuODQ3MjMgMC4xNDM2MiwwIDAuMzgwMzMsLTAuMjY5NTYgMC42Mjg3LC0wLjg3OTIyIDAuMTMyNDEsLTAuMzI1IDAuMjU2MDIsLTAuNzE2OTYgMC4zNzI4NiwtMS4xNzQxOCBsIDAuMDU3OSwtMC4yMzQwMyBjIDAuMDI4NywtMC4xMTk3MyAwLjA1NjksLTAuMjQzNTIgMC4wODQ4LC0wLjM3MTM0IGwgMC4wNTUzLC0wLjI2MTAyIDAuMDU0NCwtMC4yNzE3MyAwLjA2MiwtMC4zMjg5NyAwLjAzNzcsLTAuMjE1MzcgMC4wNjU0LC0wLjM5NTI1IDAuMTQ4NDMsLTAuOTQyMzcgMC4yNjkwNCwtMS43NDgyOSAwLjAyNiwtMC4xNTQzNyAwLjAxNTksLTAuMDg2NyAwLjAxNTcsLTAuMDk0OCAwLjAxNTcsLTAuMTA0IDAuMDIzOSwtMC4xNzU0NiAwLjAyNDksLTAuMjAxOTEgMC4wMzkyLC0wLjM0OTQ1IDAuMDg4MiwtMC44MjcgMC4wNDI4LC0wLjM3ODgzIDAuMDI4LC0wLjIzMjUgMC4wMjgzLC0wLjIyMTE4IDAuMDI5MiwtMC4yMTM5MSBjIDAuMTUyMDUsLTEuMDc5IDAuMzQ3MDIsLTEuOTEwMDcgMC42Mzc5NywtMi41NTgxOCAwLjQwMTY2LC0wLjg5NDcgMC45OTU5NCwtMS40MjM5OSAxLjgwNjc1LC0xLjQyMzk5IDEuMDQ1NzYsMCAxLjcyMTkzLDAuODg3MjIgMi4yMDE2NywyLjQ0NTU2IGwgMC4wNTI1LDAuMTc1OSAwLjA1MDksMC4xODEzNSAwLjA0OTQsMC4xODY3NSBjIDAuMDA4LDAuMDMxNiAwLjAxNjIsMC4wNjM0IDAuMDI0MiwwLjA5NTQgbCAwLjA0NzMsMC4xOTQ3MSAwLjA0NTksMC4xOTk5NCBjIDAuMDA3LDAuMDMzOCAwLjAxNSwwLjA2NzcgMC4wMjI0LDAuMTAxOTEgbCAwLjA0MzksMC4yMDc2NiAwLjAzNTUsMC4xNzcwMSAwLjAyODksMC4xNTUyNiBjIDAuMDA1LDAuMDI3MiAwLjAxLDAuMDU1IDAuMDE0OSwwLjA4MzQgbCAwLjAzMDQsMC4xNzY3OSAwLjA2MjQsMC4zODUzNCAwLjA2MjcsMC40MTE4NiAwLjEwNjgxLDAuNzQ1NzggMC4wOTkyLDAuNzM5MDkgMC4wNjE2LDAuNDk4MjkgMC4wMDQsMC4wMzk5IC0xLjZlLTQsMC4wMDUgLTAuMDAyLC0wLjAwOCAwLjA0MzcsMC4yODg4OSAwLjE2MTM1LDEuMDk4NTUgMC4wMTI0LDAuMDggYyAwLjEyNTA2LDAuNzk4NTIgMC4yNjI2NywxLjUxMzcxIDAuNDMxNywyLjE4OTE5IDAuMzc3NzEsMS41MDkzNiAwLjg2Njc4LDIuNjA0ODMgMS40NTIxLDMuMTMwNjA0IDAuMjMyNjgsMC4yMDkgMC4yNTc5LDAuNTc0MDEgMC4wNTYzLDAuODE1MjYgLTAuMjAxNTgsMC4yNDEyNSAtMC41NTM2MSwwLjI2NzM5IC0wLjc4NjI5LDAuMDU4NCAtMC44MDIwOCwtMC43MjA0NyAtMS4zNzEwNSwtMS45OTQ4NzQgLTEuODAxMjMsLTMuNzEzOTU0IC0wLjE2MjYsLTAuNjQ5NzkgLTAuMjk2MzksLTEuMzI3MzggLTAuNDE3MTYsLTIuMDY5NTcgbCAtMC4wNTQ3LC0wLjM0NzcxIHoiLz48L2c+PC9zdmc+;resizable=0;" parent="AyNov7O-gYgKs4udSRPE-22" vertex="1">
          <mxGeometry width="30" height="30" as="geometry" />
        </mxCell>
        <mxCell id="f0SKtiM8mEt6jpDEU50T-1" value="" style="rounded=0;whiteSpace=wrap;html=1;dashed=1;strokeColor=#999999;verticalAlign=top;dashPattern=12 12;fillColor=#CCE5FF;" parent="1" vertex="1">
          <mxGeometry x="1180" y="-54.5" width="1010" height="584.5" as="geometry" />
        </mxCell>
        <mxCell id="f0SKtiM8mEt6jpDEU50T-2" value="NodePool - litoralpuro" style="rounded=0;whiteSpace=wrap;html=1;dashed=1;strokeColor=#999999;verticalAlign=top;" parent="1" vertex="1">
          <mxGeometry x="1231" y="38.5" width="499" height="371.5" as="geometry" />
        </mxCell>
        <mxCell id="f0SKtiM8mEt6jpDEU50T-3" value="Pods litoralpuro" style="rounded=0;whiteSpace=wrap;html=1;dashed=1;strokeColor=#999999;verticalAlign=top;dashPattern=1 2;" parent="1" vertex="1">
          <mxGeometry x="1323" y="69.5" width="366" height="266.5" as="geometry" />
        </mxCell>
        <mxCell id="AyNov7O-gYgKs4udSRPE-19" value="" style="group" parent="1" vertex="1" connectable="0">
          <mxGeometry x="1195" width="570" height="430" as="geometry" />
        </mxCell>
        <mxCell id="AyNov7O-gYgKs4udSRPE-20" value="Horizontal Node Auto Scaling" style="rounded=1;whiteSpace=wrap;html=1;fillColor=none;strokeColor=#00abed;dashed=1;absoluteArcSize=1;imageHeight=24;arcSize=20;fontColor=#00abed;verticalAlign=top;align=left;spacingLeft=34;fontFamily=Arial;spacingTop=2;" parent="AyNov7O-gYgKs4udSRPE-19" vertex="1">
          <mxGeometry width="570" height="430" as="geometry" />
        </mxCell>
        <mxCell id="AyNov7O-gYgKs4udSRPE-21" value="" style="shape=image;verticalLabelPosition=bottom;labelBackgroundColor=default;verticalAlign=top;aspect=fixed;imageAspect=0;image=data:image/svg+xml,PHN2ZyB4bWxucz0iaHR0cDovL3d3dy53My5vcmcvMjAwMC9zdmciIHhtbDpzcGFjZT0icHJlc2VydmUiIGlkPSJzdmcxNDQwIiB2ZXJzaW9uPSIxLjEiIHZpZXdCb3g9IjAgMCAzMC4wMDAyMzQgMzAuMDAwMjQiIGhlaWdodD0iMzAuMDAwMjRtbSIgd2lkdGg9IjMwLjAwMDIzNW1tIj48ZGVmcyBpZD0iZGVmczE0MzciLz48ZyB0cmFuc2Zvcm09InRyYW5zbGF0ZSgtOTMuODU2Nzc1LC03OC41OTgyMikiIGlkPSJsYXllcjEiPjxwYXRoIGQ9Im0gMTAzLjg1NjY4LDc4LjU5ODIyIGMgLTUuNTM5OTg1LDAgLTkuOTk5OTA1LDQuNDU5OTEgLTkuOTk5OTA1LDkuOTk5OTA4IHYgMi4yODYxNiA3LjcxMzc0IDEwLjAwMDQzMiBoIDkuOTk5OTA1IDQuNzQwOCA1LjI1OTExIGMgNS41Mzk5OSwwIDEwLjAwMDQyLC00LjQ2MDQzIDEwLjAwMDQyLC0xMC4wMDA0MzIgdiAtNC45OTk2OSAtNS4wMDAyMSAtOS45OTk5MDggaCAtMTAuMDAwNDIgLTQuMDM1NDIgeiIgc3R5bGU9ImZpbGw6IzAwYWJlZDtmaWxsLW9wYWNpdHk6MTtzdHJva2Utd2lkdGg6MS4xNzU0NjtzdHJva2UtbGluZWNhcDpyb3VuZDtzdHJva2UtZGFzaGFycmF5OjIuMzUwOTIsIDIuMzUwOTI7cGFpbnQtb3JkZXI6bWFya2VycyBzdHJva2UgZmlsbCIgaWQ9InJlY3QxLTIiLz48cGF0aCBzdHlsZT0ic3Ryb2tlOm5vbmU7c3Ryb2tlLXdpZHRoOjEuMjQ5NjYiIGZpbGwtcnVsZT0ibm9uemVybyIgZmlsbD0iI2ZmZmZmZiIgaWQ9Iui3r+W+hOWkh+S7vS0yMiIgZD0ibSAxMTUuNDE0NzMsOTQuNjg2MDY2IC0wLjA1ODMsMC4zMjE2IGMgLTAuMTI2OSwwLjY4MTEzIC0wLjI2MTkxLDEuMzE3MDggLTAuNDEyNTIsMS45MTQ3MSBsIC0wLjAyNDIsMC4wOTUgLTAuMDczNiwwLjI3NzMzIC0wLjA0OTgsMC4xNzgzOCAtMC4wNTAzLDAuMTczMDMgLTAuMDUwNywwLjE2NzU5IC0wLjA1MTEsMC4xNjIwMiBjIC0wLjAwOCwwLjAyNjUgLTAuMDE3MSwwLjA1MjggLTAuMDI1NywwLjA3ODkgbCAtMC4wNTE1LDAuMTUzNDggYyAtMC4wMDksMC4wMjUxIC0wLjAxNzIsMC4wNSAtMC4wMjU5LDAuMDc0NiBsIC0wLjA1MTksMC4xNDQ2OSBjIC0wLjAwOSwwLjAyMzYgLTAuMDE3MywwLjA0NyAtMC4wMjYsMC4wNzAxIGwgLTAuMDUyLDAuMTM1NjYgLTAuMDUyLDAuMTI5NTEgLTAuMDUxOSwwLjEyMzIzIC0wLjA1MTgsMC4xMTY4NiBjIC0wLjAwOSwwLjAxODkgLTAuMDE3MiwwLjAzNzYgLTAuMDI1OCwwLjA1NiBsIC0wLjA1MTUsMC4xMDcwOSBjIC0wLjAwOCwwLjAxNzMgLTAuMDE3MSwwLjAzNDMgLTAuMDI1NiwwLjA1MTEgbCAtMC4wNTEsMC4wOTcxIGMgLTAuMDA4LDAuMDE1NiAtMC4wMTY5LDAuMDMxIC0wLjAyNTQsMC4wNDYgbCAtMC4wNTAzLDAuMDg2OCBjIC0wLjAwOCwwLjAxMzkgLTAuMDE2NywwLjAyNzUgLTAuMDI1LDAuMDQwOCBsIC0wLjA0OTUsMC4wNzYzIGMgLTAuMTU1OTgsMC4yMzAzOSAtMC4zMDI3NywwLjM1MzM5IC0wLjQzMDYxLDAuMzUzMzkgLTAuMTk5OCwwIC0wLjQwODgyLC0wLjIyMDMxIC0wLjYxMzM4LC0wLjYzNzEyIGwgLTAuMDQ3MSwtMC4wOTk3IGMgLTAuMDM5MiwtMC4wODU5IC0wLjA3ODIsLTAuMTc5MDkgLTAuMTE2ODYsLTAuMjc5MjYgbCAtMC4wNDYzLC0wLjEyMzU3IC0wLjA0NiwtMC4xMzAyNSAtMC4wNDU2LC0wLjEzNjg4IGMgLTAuMDA4LC0wLjAyMzQgLTAuMDE1MSwtMC4wNDcgLTAuMDIyNiwtMC4wNzA5IGwgLTAuMDQ1LC0wLjE0NjY4IC0wLjA0NDUsLTAuMTUzMTQgYyAtMC4wMDcsLTAuMDI2IC0wLjAxNDcsLTAuMDUyNCAtMC4wMjIxLC0wLjA3OSBsIC0wLjA0MzgsLTAuMTYyNjkgLTAuMDQzMiwtMC4xNjkgLTAuMDQyNiwtMC4xNzUyMiAtMC4wNDIsLTAuMTgxMzggLTAuMDQxMywtMC4xODc0OCAtMC4wNDA2LC0wLjE5MzUyIC0wLjA1MTUsLTAuMjYyMDUgLTAuMDYyNywtMC4zNDQ3NyAtMC4xNTI0OCwtMC44ODQ2MiAtMC4yNjcwNSwtMS41NzY2NCAtMC4yMjYzMSwtMS4yNDEgLTAuMTM0OTEsLTAuNzE5MjUgLTAuMDk1MiwtMC40OTU3NiAtMC4wODgyLC0wLjQ0NTQ2IC0wLjA0NzEsLTAuMjI4ODUgLTAuMDUzNCwtMC4yNDY5OSAtMC4wNTA0LC0wLjIyNTMzIC0wLjA3NTgsLTAuMzI2MzMgYyAtMC4wMDgsLTAuMDM1NSAtMC4wMTY5LC0wLjA3MDcgLTAuMDI1MywtMC4xMDU2NiBsIC0wLjA1MDgsLTAuMjA2NjIgLTAuMDUxLC0wLjIwMDM1IC0wLjA1MTMsLTAuMTk0MDYgLTAuMDUxNiwtMC4xODc3NSAtMC4wNTIsLTAuMTgxNDIgLTAuMDUyNSwtMC4xNzUwNyAtMC4wNTMsLTAuMTY4NyAtMC4wNTM2LC0wLjE2MjMyIGMgLTAuMDE4LC0wLjA1MyAtMC4wMzYsLTAuMTA1MDEgLTAuMDU0MiwtMC4xNTU5MiBsIC0wLjA1NDksLTAuMTQ5NDkgLTAuMDU1NywtMC4xNDMwNSBjIC0wLjM5MjM0LC0wLjk3ODc0IC0wLjg0NDE3LC0xLjQ4MjYyIC0xLjQ0NTI3LC0xLjQ4MjYyIC0wLjU5NjQxLDAgLTEuMDM2MzEsMC41MDQzNSAtMS40MTU1MSwxLjQ4OTQ4IGwgLTAuMDUzOCwwLjE0NCBjIC0wLjAwOSwwLjAyNDUgLTAuMDE3OCwwLjA0OTQgLTAuMDI2NiwwLjA3NDUgbCAtMC4wNTI2LDAuMTUzNzggYyAtMC4wMDksMC4wMjYyIC0wLjAxNzQsMC4wNTI2IC0wLjAyNjEsMC4wNzkzIGwgLTAuMDUxNywwLjE2MzUzIGMgLTAuMDA5LDAuMDI3OCAtMC4wMTcxLDAuMDU1OSAtMC4wMjU2LDAuMDg0MiBsIC0wLjA1MDgsMC4xNzMyNSBjIC0wLjAwOCwwLjAyOTQgLTAuMDE2OCwwLjA1OTEgLTAuMDI1MiwwLjA4OTEgbCAtMC4wNTAxLDAuMTgyOTMgLTAuMDQ5NywwLjE4OTM2IC0wLjA0OTQsMC4xOTU3OCAtMC4wNDkxLDAuMjAyMTggLTAuMDQ4OSwwLjIwODU3IC0wLjA0ODgsMC4yMTQ5NCAtMC4wNDg3LDAuMjIxMzEgLTAuMDYyNCwwLjI5MzUyIC0wLjA2MTIsMC4zMDU0OSAtMC4wODcyLDAuNDU1NjkgLTAuMTEyODcsMC42MDk2MyAtMC4zNjgwMSwyLjA0MjQ4IC0wLjI2MjAyLDEuMjM0MzYgLTAuMDQwNCwwLjE4NDgxIC0wLjA4LDAuMzU3NiBjIC0wLjAyNjYsMC4xMTY3IC0wLjA1MzEsMC4yMzEwNCAtMC4wNzk2LDAuMzQzMzUgbCAtMC4wNzk5LDAuMzMxMjUgYyAtMC4wMjY4LDAuMTA4NjMgLTAuMDUzNywwLjIxNTYgLTAuMDgwOSwwLjMyMTI2IGwgLTAuMDY1OCwwLjI1MDkzIC0wLjA0OTksMC4xODMxNSAtMC4wNTAzLDAuMTc4MjQgLTAuMDUwNSwwLjE3MzIgLTAuMDUwNywwLjE2ODAyIC0wLjA1MDgsMC4xNjI3MSAtMC4wNTA4LDAuMTU3MjcgLTAuMDUwNywwLjE1MTcxIC0wLjA3NTcsMC4yMTY4MSAtMC4wNTAxLDAuMTM3MiAtMC4wNDk3LDAuMTMxMTYgLTAuMDQ5MiwwLjEyNDk5IC0wLjA3MjcsMC4xNzU2NSAtMC4wNDc2LDAuMTA5IGMgLTAuMDA4LDAuMDE3NiAtMC4wMTU3LDAuMDM1IC0wLjAyMzUsMC4wNTIgbCAtMC4wNDY0LDAuMDk5IC0wLjA0NTQsMC4wOTIyIGMgLTAuMDA4LDAuMDE0OCAtMC4wMTQ5LDAuMDI5MyAtMC4wMjI0LDAuMDQzNSBsIC0wLjA0MzksMC4wODE3IC0wLjA0MjgsMC4wNzQ2IC0wLjA0MTUsMC4wNjczIGMgLTAuMTA5MDQsMC4xNjk1MyAtMC4yMDQwMywwLjI1OTkyIC0wLjI3NzUsMC4yNTk5MiAtMC4xOTk4NiwwIC0wLjM5OTg4LC0wLjE2NjQ0IC0wLjU5MTIsLTAuNDgyNDkgbCAtMC4wNDU3LC0wLjA3ODcgYyAtMC4wMTUyLC0wLjAyNzIgLTAuMDMwMywtMC4wNTUzIC0wLjA0NTQsLTAuMDg0NCBsIC0wLjA0NSwtMC4wOSBjIC0wLjAxNDksLTAuMDMxIC0wLjAyOTgsLTAuMDYyOCAtMC4wNDQ2LC0wLjA5NTYgbCAtMC4wNDQxLC0wLjEwMTE4IC0wLjA0MzcsLTAuMTA2NjYgYyAtMC4wMDcsLTAuMDE4MiAtMC4wMTQ0LC0wLjAzNjcgLTAuMDIxNiwtMC4wNTU0IGwgLTAuMDQyOSwtMC4xMTQ4IGMgLTAuMDA3LC0wLjAxOTYgLTAuMDE0MiwtMC4wMzk0IC0wLjAyMTMsLTAuMDU5NCBsIC0wLjA0MjEsLTAuMTIyODEgYyAtMC4wMDcsLTAuMDIwOSAtMC4wMTM5LC0wLjA0MiAtMC4wMjA4LC0wLjA2MzQgbCAtMC4wNDEyLC0wLjEzMDcxIC0wLjA0MDYsLTAuMTM1OTEgLTAuMDM5OSwtMC4xNDEwNyBjIC0wLjAwNywtMC4wMjM5IC0wLjAxMzIsLTAuMDQ4MSAtMC4wMTk3LC0wLjA3MjQgbCAtMC4wMzg5LC0wLjE0ODY5IC0wLjAzODIsLTAuMTUzNzEgLTAuMDM3NSwtMC4xNTg2OCAtMC4wMzY3LC0wLjE2MzYgLTAuMDM1OSwtMC4xNjg0NiAtMC4wMzUxLC0wLjE3MzI4IC0wLjA1MSwtMC4yNjg4MiAtMC4wMzI5LC0wLjE4NTA5IC0wLjAzMiwtMC4xODk3MSAtMC4wMzEsLTAuMTk0MyAtMC4wMzAxLC0wLjE5ODgyIC0wLjA0MzIsLTAuMzA2NjIgLTAuMDI3NSwtMC4yMDk5MiAtMC4wMjY1LC0wLjIxNDI3IC0wLjAyNTQsLTAuMjE4NTYgLTAuMDM1OSwtMC4zMzU3OSAtMC4wMjI1LC0wLjIyOTA4IC0wLjA1NDMsLTAuNjEwMzEgLTAuMDI0LC0wLjI1MTY1IC0wLjAyNTIsLTAuMjQ0MzMgLTAuMDI2NCwtMC4yMzcwNSBjIC0wLjAwNSwtMC4wMzg5IC0wLjAwOSwtMC4wNzc1IC0wLjAxMzcsLTAuMTE1NzkgbCAtMC4wMjgyLC0wLjIyNjE2IC0wLjAyOTUsLTAuMjE4OTIgYyAtMC4wMDUsLTAuMDM1OSAtMC4wMTAxLC0wLjA3MTUgLTAuMDE1MiwtMC4xMDY3NiBsIC0wLjAzMTQsLTAuMjA4MTMgLTAuMDMyOCwtMC4yMDA5NSAtMC4wMzQxLC0wLjE5MzgxIC0wLjAzNTUsLTAuMTg2NjggYyAtMC4wMDYsLTAuMDMwNSAtMC4wMTIxLC0wLjA2MDcgLTAuMDE4MywtMC4wOTA3IGwgLTAuMDM3NiwtMC4xNzYwNCBjIC0wLjAwNiwtMC4wMjg4IC0wLjAxMjgsLTAuMDU3MiAtMC4wMTkzLC0wLjA4NTQgbCAtMC4wMzk3LC0wLjE2NTQ1IGMgLTAuMTk1NTIsLTAuNzgyNjkgLTAuNDQyMDksLTEuMzE5MDcgLTAuNzUxMTMsLTEuNjIxMTcgLTAuMTc2NjUsLTAuMTcyNjkgLTAuNDU4OTcsLTAuMTY4NTggLTAuNjMwNTgsMC4wMDkgLTAuMTYyNTgsMC4xNjg0IC0wLjE2NzQ3LDAuNDMyMjQgLTAuMDE3MywwLjYwNjM3IGwgMC4wMjY1LDAuMDI4MiBjIDAuMDk2LDAuMDkzOCAwLjE4ODYsMC4yNDczMSAwLjI3NjU1LDAuNDU5MDYgbCAwLjAzNzQsMC4wOTQzIDAuMDM2OCwwLjEwMTQzIDAuMDM2MiwwLjEwODUyIGMgMC4wMDYsMC4wMTg3IDAuMDExOSwwLjAzNzYgMC4wMTc5LDAuMDU2OSBsIDAuMDM1MiwwLjExOTExIGMgMC4wMTE2LDAuMDQwOSAwLjAyMzEsMC4wODI5IDAuMDM0NSwwLjEyNjEzIGwgMC4wMzM5LDAuMTMzMTUgYyAwLjAwNiwwLjAyMjggMC4wMTExLDAuMDQ1OCAwLjAxNjcsMC4wNjkyIGwgMC4wMzI4LDAuMTQzNjEgMC4wMzIsMC4xNTA1NiBjIDAuMDA1LDAuMDI1NyAwLjAxMDUsMC4wNTE2IDAuMDE1NywwLjA3NzkgbCAwLjAzMDgsMC4xNjA5MyAwLjAzLDAuMTY3ODIgMC4wMjkyLDAuMTc0NjkgMC4wMjg0LDAuMTgxNTIgMC4wMjc1LDAuMTg4MzUgMC4wMjY2LDAuMTk1MTMgMC4wMjU3LDAuMjAxOTEgMC4wMjQ3LDAuMjA4NjUgMC4wMjM4LDAuMjE1MzcgMC4wMjI4LDAuMjIyMDcgMC4wMzIzLDAuMzQ1NjIgMC4wMzE5LDAuMzY1OTYgMC4wMjI4LDAuMjQzMzQgMC4wMzYzLDAuMzU3MjYgMC4wMjU3LDAuMjMyOTQgMC4wMjY4LDAuMjI4NzEgMC4wMjgsMC4yMjQ0NiAwLjAyOTIsMC4yMjAxNSAwLjAzMDMsMC4yMTU4MSAwLjA0NzgsMC4zMTU1MSBjIDAuMDA1LDAuMDM0NSAwLjAxMSwwLjA2ODggMC4wMTY1LDAuMTAyOTYgbCAwLjAzNCwwLjIwMjU4IGMgMC4wMDYsMC4wMzM0IDAuMDExNiwwLjA2NjYgMC4wMTc0LDAuMDk5NiBsIDAuMDM1OCwwLjE5NTg0IGMgMC4wMDYsMC4wMzIzIDAuMDEyMiwwLjA2NDMgMC4wMTg0LDAuMDk2MiBsIDAuMDM3NywwLjE4OTA3IDAuMDM4OSwwLjE4NDQxIGMgMC4wMDcsMC4wMzAzIDAuMDEzMiwwLjA2MDUgMC4wMTk5LDAuMDkwNSBsIDAuMDQwOCwwLjE3NzQ1IDAuMDQyMSwwLjE3Mjc1IGMgMC4wMTQzLDAuMDU2OCAwLjAyODcsMC4xMTI4MSAwLjA0MzQsMC4xNjgwMiBsIDAuMDQ0NywwLjE2MzI2IGMgMC4wMTUxLDAuMDUzNiAwLjAzMDQsMC4xMDY0NSAwLjA0NiwwLjE1ODQ2IGwgMC4wNDczLDAuMTUzNjIgMC4wNDg2LDAuMTQ4NzMgYyAwLjQ0Mzc2LDEuMzE2NTk0IDEuMDQ5OTEsMi4wMzYwMTQgMS44NTAyNywyLjAzNjAxNCAwLjQ2OTg5LDAgMC44NTI0NCwtMC4zMjQzNCAxLjE5NTkxLC0wLjk1MDE1NCBsIDAuMDYyLC0wLjExNzEgYyAwLjAxMDMsLTAuMDIwMSAwLjAyMDUsLTAuMDQwNCAwLjAzMDcsLTAuMDYxIGwgMC4wNjA5LC0wLjEyNzAxIGMgMC4wMTAxLC0wLjAyMTcgMC4wMjAxLC0wLjA0MzcgMC4wMzAyLC0wLjA2NiBsIDAuMDU5OCwtMC4xMzY4NSAwLjA1OTIsLTAuMTQzMzcgYyAwLjAyOTUsLTAuMDczMyAwLjA1ODcsLTAuMTQ5MDYgMC4wODc5LC0wLjIyNzIyIGwgMC4wNTgsLTAuMTU5NTQgMC4wNTc2LC0wLjE2NTk2IGMgMC4wMSwtMC4wMjgyIDAuMDE5MSwtMC4wNTY2IDAuMDI4NywtMC4wODU0IGwgMC4wNTcyLC0wLjE3NTUzIDAuMDU3LC0wLjE4MTg2IDAuMDU2OCwtMC4xODgxNyAwLjA1NjcsLTAuMTk0NDQgMC4wNTY3LC0wLjIwMDcgMC4wNTY3LC0wLjIwNjkxIDAuMDU2OCwtMC4yMTMwOSAwLjA0MjEsLTAuMTYxODMgMC4wODI5LC0wLjMyOTQzIGMgMC4wMTM3LC0wLjA1NTYgMC4wMjc0LC0wLjExMTY4IDAuMDQxLC0wLjE2ODE3IGwgMC4wODE1LC0wLjM0NDYyIDAuMDgxNCwtMC4zNTc1NCBjIDAuMDEzNiwtMC4wNjA4IDAuMDI3MywtMC4xMjIyIDAuMDQwOSwtMC4xODQzIGwgMC4zMDczNSwtMS40NDM0OCAwLjM1NzcxLC0xLjk4NDY2IDAuMTI2NjMsLTAuNjg0OTIgMC4wNzc5LC0wLjQwNzQzIDAuMDU3NCwtMC4yODc5NSAwLjA2MywtMC4yOTY0NSAwLjA0MywtMC4xOTMxMiAwLjA0MzQsLTAuMTg4MTcgMC4wNDM4LC0wLjE4MzEgMC4wNjYyLC0wLjI2NDkgMC4wNDQ0LC0wLjE2OTk1IDAuMDQ0NSwtMC4xNjQ0OCAwLjA0NDUsLTAuMTU4OTIgMC4wNDQ1LC0wLjE1MzIzIDAuMDQ0NSwtMC4xNDc0NSAwLjA0NDMsLTAuMTQxNTQgMC4wNDQxLC0wLjEzNTUyIGMgMC4wMDcsLTAuMDIyMSAwLjAxNDcsLTAuMDQzOSAwLjAyMiwtMC4wNjU1IGwgMC4wNDM3LC0wLjEyNjI5IDAuMDY0OCwtMC4xNzc1OSAwLjA0MjcsLTAuMTEwMzUgMC4wNDIxLC0wLjEwMzc3IDAuMDQxNSwtMC4wOTcxIDAuMDQwOSwtMC4wOTAzIGMgMC4wMDcsLTAuMDE0NSAwLjAxMzUsLTAuMDI4NyAwLjAyMDIsLTAuMDQyNiBsIDAuMDM5OCwtMC4wNzk5IGMgMC4wMjYyLC0wLjA1MDkgMC4wNTE5LC0wLjA5NzEgMC4wNzcsLTAuMTM4NDEgbCAwLjAzNzEsLTAuMDU4MyBjIDAuMDg1NCwtMC4xMjc0NiAwLjE2MjUyLC0wLjE5NDM4IDAuMjI3NjIsLTAuMTk0MzggMC4wMjk5LDAgMC4wOTY0LDAuMDQxMyAwLjE5NDc3LDAuMTYzMTUgMC4xMzExLDAuMTYyMzQgMC4yNjkzNywwLjQxNzYyIDAuNDA3NTEsMC43NTUwMSAwLjE2NjEyLDAuNDA1NzEgMC4zMjYyMSwwLjkxMzA0IDAuNDgyMzEsMS41MTQ1NSBsIDAuMDYyMiwwLjI0NTYxIDAuMDYxOCwwLjI1NTU1IDAuMDYxNSwwLjI2NTM5IDAuMDYxMSwwLjI3NTExIDAuMDY4NywwLjMyODI4IDAuMDk3NSwwLjQ5MjI3IDAuMTA2MDgsMC41NTQxNSAwLjM4ODA2LDIuMTIyMjcgMC4yOTEwNiwxLjcyNTI2IDAuMDk4NSwwLjU2MjkzIDAuMDYzMSwwLjM0MTUzIDAuMDE3NSwwLjA4OTYgYyAwLjAxNDUsMC4wNzI2IDAuMDI5MSwwLjE0NDE0IDAuMDQzOCwwLjIxNDcgbCAwLjA2NjksMC4zMTA3OSAwLjA0NTUsMC4xOTk2NCAwLjA0NjMsMC4xOTM1NSAwLjA0NzEsMC4xODc0NSAwLjA0ODEsMC4xODEzIDAuMDQ5MSwwLjE3NTEzIGMgMC40Mjk4LDEuNDkwOTI0IDAuOTc5NzQsMi4yODI2MTQgMS44NTA0MywyLjI4MjYxNCAwLjY3MSwwIDEuMTg0MDEsLTAuNTU3MjUgMS42MjE5NCwtMS41ODIxMDQgbCAwLjA2MjEsLTAuMTQ5NTggMC4wNjExLC0wLjE1NTg5IDAuMDYwMiwtMC4xNjIxMiAwLjA1OTMsLTAuMTY4MzIgMC4wNTg1LC0wLjE3NDQ1IDAuMDU3NywtMC4xODA1MSBjIDAuMDEsLTAuMDMwNiAwLjAxOTEsLTAuMDYxNCAwLjAyODYsLTAuMDkyNSBsIDAuMDU2NywtMC4xODk1MiAwLjA1NjEsLTAuMTk1NDQgMC4wNTU1LC0wLjIwMTMxIDAuMDU1LC0wLjIwNzEyIDAuMDU0NiwtMC4yMTI4OCBjIDAuMTM4NDUsLTAuNTQ5MzkgMC4yNjM0NywtMS4xMjY4NiAwLjM4MDkyLC0xLjczODgxIGwgMC4wOTg1LC0wLjUzMzIyIDAuMTg2OTQsLTEuMDczMzggMC4wMjIsLTAuMTM1NyAwLjAzMzIsLTAuMjIyMyAwLjAzNDcsLTAuMjUyMjIgMC4xMjc0MSwtMC45OTQ5OCAwLjA1MDIsLTAuMzcyOTYgMC4wMjQ5LC0wLjE3NTYgYyAwLjA4NzIsLTAuNjA0MzcgMC4xODMzNCwtMS4xNTAwNSAwLjMwNDMyLC0xLjY5OTI5IDAuMDUzMywtMC4yNDE5NSAtMC4wOTg0LC0wLjQ4MTU3IC0wLjMzODg2LC0wLjUzNTIxIC0wLjI0MDQ0LC0wLjA1MzYgLTAuNDc4NTcsMC4wOTkgLTAuNTMxODcsMC4zNDA5OSAtMC4xMTA0LDAuNTAxMTQgLTAuMjAwNjUsMC45OTc4NSAtMC4yODE5LDEuNTMyODEgbCAtMC4wNDcxLDAuMzIxMjkgLTAuMDM3OSwwLjI3NDcxIC0wLjE0MTIzLDEuMDk5MDMgLTAuMDQ0OSwwLjMyOTg5IC0wLjAzMTQsMC4yMTA4NCBjIC0wLjAwMywwLjAyMiAtMC4wMDcsMC4wNDM2IC0wLjAxMDIsMC4wNjQ4IHoiLz48cGF0aCBzdHlsZT0iZmlsbDojZmZmZmZmO2ZpbGwtcnVsZTpub256ZXJvO3N0cm9rZTojZmZmZmZmO3N0cm9rZS13aWR0aDowLjYyNDgzIiBpZD0idXNlMiIgZD0ibSAxMTUuNDY2NDMsOTMuNTAzODU2IGMgNS41ZS00LDAuMDAzIDguNWUtNCwwLjAwMyA5LjJlLTQsMC4wMDIgbCAtMC4wMTI5LC0wLjExOTQ5IC0wLjA0OCwtMC4zODE5NSAtMC4wOTAzLC0wLjY3NzU3IC0wLjA2NzQsLTAuNDgyMTcgLTAuMDY1LC0wLjQ0NjUxIC0wLjA3MjMsLTAuNDcwMDEgLTAuMDQyNiwtMC4yNjAxNyAtMC4wNDEsLTAuMjM1NSAtMC4wMjYxLC0wLjEzOTk1IC0wLjAzMjcsLTAuMTYzMDEgLTAuMDQxMiwtMC4xOTMyOSBjIC0wLjAwNywtMC4wMzE3IC0wLjAxNCwtMC4wNjMxIC0wLjAyMSwtMC4wOTQ0IGwgLTAuMDQyOSwtMC4xODQwOCAtMC4wNDQsLTAuMTc3ODggLTAuMDQ1MSwtMC4xNzE2IGMgLTAuMDc2LC0wLjI4MDczIC0wLjE1NjE2LC0wLjUzNDk5IC0wLjIzOTYzLC0wLjc2MTMzIGwgLTAuMDUwNSwtMC4xMzI0NSAtMC4wNTEyLC0wLjEyNTY4IGMgLTAuMjgzNjEsLTAuNjcyNSAtMC41OTg5MSwtMS4wMzQ3MyAtMC45MTI1MywtMS4wMzQ3MyAtMC40MzgyOCwwIC0wLjc5NTQyLDAuNTIxNSAtMS4wNjU1MSwxLjU1MzE3IGwgLTAuMDM4OSwwLjE1NDYyIGMgLTAuMDE5MSwwLjA3OTEgLTAuMDM3OCwwLjE2MDk4IC0wLjA1NiwwLjI0NTU2IGwgLTAuMDM1OCwwLjE3Mjc5IC0wLjAzNDUsMC4xODAwNSAtMC4wMzMzLDAuMTg3MjkgLTAuMDMyLDAuMTk0NTQgYyAtMC4wMDUsMC4wMzMgLTAuMDEwNCwwLjA2NjMgLTAuMDE1NSwwLjEgbCAtMC4wMzAxLDAuMjA1MzggLTAuMDI3OSwwLjIwNDg2IC0wLjAyNzIsMC4yMTI3NSBjIC0wLjAwNSwwLjAzNjMgLTAuMDA5LDAuMDczMSAtMC4wMTM1LDAuMTEwNTUgbCAtMC4wMjcyLDAuMjMxODYgLTAuMDcxMSwwLjY1NDkgLTAuMDU3OCwwLjU0MDY1IC0wLjAyODUsMC4yNDkzNCAtMC4wMjcyLDAuMjE5MjUgLTAuMDE3OCwwLjEzMTYxIC0wLjAxNzcsMC4xMjE0OCAtMC4wMTgsMC4xMTI2NiAtMC4wMTg0LDAuMTA1MTIgLTAuMDE0NSwwLjA3OCAtMC4zNjUwOSwyLjM2MiAtMC4wOTk3LDAuNjE5NzYgLTAuMDUwMywwLjI5NzgzIC0wLjAzMzEsMC4xODUyOCAtMC4wMjg0LDAuMTUyMDQgLTAuMDU3NywwLjI5NjAxIC0wLjA1ODgsMC4yODUyNiBjIC0wLjE3ODM2LDAuODM5NzYgLTAuMzc0MTksMS41MzUzNyAtMC42MDE3OSwyLjA5NDA1IC0wLjQwNjAzLDAuOTk2NjM0IC0wLjkyMzAxLDEuNTg1NDI0IC0xLjY1NTY4LDEuNTg1NDI0IC0wLjcxOTE3LDAgLTEuMjIwNzQsLTAuNTgwNDQgLTEuNjEyODEsLTEuNTYwMjQ0IC0wLjI2NzU0LC0wLjY2ODYgLTAuNDg4NzcsLTEuNTM4MDUgLTAuNjg3MzUsLTIuNjE1NzUgbCAtMC4wMzc0LC0wLjIwNzU1IC0wLjAzNDQsLTAuMjAzMTEgLTAuMDY1MiwtMC40MDgxIC0wLjEzMTUxLC0wLjg2NzM0IC0wLjI3ODA0LC0xLjg3NTQ5IC0wLjAyMTIsLTAuMTI4MDUgLTAuMDI1MSwtMC4xMzUxMyAtMC4yNDY0NywtMS40NDg2OSAtMC4xMDUwNSwtMC42MDIzMiAtMC4wNzU1LC0wLjQxNzQyIC0wLjA1NDUsLTAuMjg2ODkgLTAuMDM1OCwtMC4xNzcwNSAtMC4wNDIxLC0wLjE5NTA2IC0wLjA0MjksLTAuMTg4OTYgLTAuMDQzNiwtMC4xODI3OSAtMC4wNDQzLC0wLjE3NjU0IC0wLjA0NDksLTAuMTcwMjMgLTAuMDQ1NSwtMC4xNjM4MyAtMC4wNDYsLTAuMTU3MzUgLTAuMDQ2NCwtMC4xNTA4MiAtMC4wNDY4LC0wLjE0NDE5IC0wLjA0NzEsLTAuMTM3NDkgYyAtMC4wMDgsLTAuMDIyNCAtMC4wMTU4LC0wLjA0NDQgLTAuMDIzNywtMC4wNjYyIGwgLTAuMDQ3NSwtMC4xMjczMSAtMC4wNDc2LC0wLjEyMDQxIC0wLjA0NzgsLTAuMTEzNDYgLTAuMDQ3OCwtMC4xMDY0MyBjIC0wLjAzOTksLTAuMDg1NyAtMC4wNzk3LC0wLjE2NDA1IC0wLjExOTM4LC0wLjIzNDc3IGwgLTAuMDQ3NSwtMC4wODEyIGMgLTAuMTU4MTMsLTAuMjU4NDIgLTAuMzEyNzEsLTAuMzkzOTEgLTAuNDUzODksLTAuMzkzOTEgLTAuMjMwODQsMCAtMC40Mjg2OCwwLjA5ODQgLTAuNjAxNDYsMC4zMjE3NyBsIC0wLjAzOTQsMC4wNTM4IGMgLTAuMDEzLDAuMDE4NyAtMC4wMjU5LDAuMDM4MSAtMC4wMzg2LDAuMDU4MyBsIC0wLjAzNzcsMC4wNjI5IGMgLTAuMDEyNCwwLjAyMTcgLTAuMDI0NywwLjA0NDIgLTAuMDM2OSwwLjA2NzUgbCAtMC4wMzYxLDAuMDcyMiAtMC4wMzUzLDAuMDc3IC0wLjAzNDUsMC4wODE5IC0wLjAzMzgsMC4wODY4IC0wLjAzMzEsMC4wOTE4IC0wLjAzMjQsMC4wOTY5IC0wLjAzMTcsMC4xMDIwOSAtMC4wMzExLDAuMTA3MzEgLTAuMDMwNCwwLjExMjYyIC0wLjAyOTgsMC4xMTggLTAuMDI5MiwwLjEyMzQ0IC0wLjA0MjgsMC4xOTU1MyAtMC4wMjc5LDAuMTM3MzggLTAuMDI3NCwwLjE0MzA3IC0wLjA0MDEsMC4yMjU0NSAtMC4wMzkxLDAuMjM4NjkgLTAuMDI1NiwwLjE2NjU5IC0wLjAyNTEsMC4xNzI2NSAtMC4wMjQ4LDAuMTc4NzkgLTAuMDM2NSwwLjI3OTg0IC0wLjAzNTgsMC4yOTQwNCAtMC4wMzUxLDAuMzA4NSAtMC4wMzQ1LDAuMzIzMTkgLTAuMDM0LDAuMzM4MTIgLTAuMDMzNSwwLjM1MzMxIC0wLjA0NDIsMC40OTUxMSAtMC4wMzI4LDAuMzg5NjggYyAtMC4yMDk1NywyLjU0ODkzIC0xLjA4Nzg0LDUuMTE1MjQgLTIuNjI3ODUzLDcuNjk1ODE0IC0wLjE2MTk4LDAuMjcxNDQgLTAuNTA1NTIsMC4zNTUzMyAtMC43NjczMSwwLjE4NzM3IC0wLjI2MTgsLTAuMTY3OTUgLTAuMzQyNywtMC41MjQxNCAtMC4xODA3MiwtMC43OTU1OCAxLjQ1MTc1MywtMi40MzI2ODQgMi4yNzExMzMsLTQuODI2OTA0IDIuNDY1MDczLC03LjE4NTc4NCBsIDAuMDYyLC0wLjczMjk0IDAuMDM2MSwtMC40MDMxOCAwLjAzNTYsLTAuMzc3NzMgMC4wMzUzLC0wLjM1Mzg5IDAuMDMyNiwtMC4zMDY0MSAwLjAyOTMsLTAuMjU4ODggMC4wMjk3LC0wLjI0NTcxIDAuMDMwMiwtMC4yMzM0NSAwLjAzMDksLTAuMjIyMSBjIDAuMDA1LC0wLjAzNjEgMC4wMTA1LC0wLjA3MTggMC4wMTU4LC0wLjEwNzA3IGwgMC4wMzIyLC0wLjIwNjc1IDAuMDMzMywtMC4xOTc2NSAwLjAzNDUsLTAuMTg5NDUgYyAwLjAwNiwtMC4wMzA5IDAuMDExOCwtMC4wNjE2IDAuMDE3OCwtMC4wOTE5IGwgMC4wMzY2LC0wLjE3ODg0IDAuMDM4MywtMC4xNzI5IGMgMC4wMTMsLTAuMDU2NyAwLjAyNjQsLTAuMTEyNjQgMC4wNCwtMC4xNjc4NSBsIDAuMDQyLC0wLjE2MzcyIDAuMDIxNywtMC4wODA2IGMgMC4zOTQ4NCwtMS40Mzg1NCAxLjA1Nzk4LC0yLjI0MTA1IDIuMTI3NjQsLTIuMjQxMDUgMC45MDU1MywwIDEuNDk0MTksMC43NjE4NyAxLjk0OTEyLDIuMTY3NzUgbCAwLjA1NCwwLjE3MTc5IGMgMC4wMDksMC4wMjkxIDAuMDE3NywwLjA1ODUgMC4wMjY1LDAuMDg4MiBsIDAuMDUyMiwwLjE4MDk3IDAuMDUxMSwwLjE4NzA1IDAuMDUsMC4xOTMwNyAwLjA0OSwwLjE5OTA1IDAuMDQ4MiwwLjIwNDk5IDAuMDQ3MywwLjIxMDg3IDAuMDU5MiwwLjI3NzY3IDAuMDU2MiwwLjI4NjU3IDAuMDc5NCwwLjQzMTc5IDAuMDg0NSwwLjQ3ODM2IDAuMzAxNzcsMS43Njk3OSAwLjAxNiwwLjA4NTcgMC4wNCwwLjI0OTcgMC4zNjYsMi40NTU0MSAwLjA3MjcsMC40NjQ0NiAwLjA0MjIsMC4yNTQ4IDAuMDE4NiwwLjEwNjUzIGMgMC4wMzM1LDAuMTg2NzMgMC4wNjc1LDAuMzY2NyAwLjEwMjI0LDAuNTM5OCBsIDAuMDUyNiwwLjI1NDUxIGMgMC4xNTAzOSwwLjcwNjQ2IDAuMzEzMTcsMS4yODgyMSAwLjQ5MzEzLDEuNzM3OTMgMC4yMzU2MywwLjU4ODg1IDAuNDU4OTIsMC44NDcyMyAwLjU4MzA4LDAuODQ3MjMgMC4xNDM2MiwwIDAuMzgwMzMsLTAuMjY5NTYgMC42Mjg3LC0wLjg3OTIyIDAuMTMyNDEsLTAuMzI1IDAuMjU2MDIsLTAuNzE2OTYgMC4zNzI4NiwtMS4xNzQxOCBsIDAuMDU3OSwtMC4yMzQwMyBjIDAuMDI4NywtMC4xMTk3MyAwLjA1NjksLTAuMjQzNTIgMC4wODQ4LC0wLjM3MTM0IGwgMC4wNTUzLC0wLjI2MTAyIDAuMDU0NCwtMC4yNzE3MyAwLjA2MiwtMC4zMjg5NyAwLjAzNzcsLTAuMjE1MzcgMC4wNjU0LC0wLjM5NTI1IDAuMTQ4NDMsLTAuOTQyMzcgMC4yNjkwNCwtMS43NDgyOSAwLjAyNiwtMC4xNTQzNyAwLjAxNTksLTAuMDg2NyAwLjAxNTcsLTAuMDk0OCAwLjAxNTcsLTAuMTA0IDAuMDIzOSwtMC4xNzU0NiAwLjAyNDksLTAuMjAxOTEgMC4wMzkyLC0wLjM0OTQ1IDAuMDg4MiwtMC44MjcgMC4wNDI4LC0wLjM3ODgzIDAuMDI4LC0wLjIzMjUgMC4wMjgzLC0wLjIyMTE4IDAuMDI5MiwtMC4yMTM5MSBjIDAuMTUyMDUsLTEuMDc5IDAuMzQ3MDIsLTEuOTEwMDcgMC42Mzc5NywtMi41NTgxOCAwLjQwMTY2LC0wLjg5NDcgMC45OTU5NCwtMS40MjM5OSAxLjgwNjc1LC0xLjQyMzk5IDEuMDQ1NzYsMCAxLjcyMTkzLDAuODg3MjIgMi4yMDE2NywyLjQ0NTU2IGwgMC4wNTI1LDAuMTc1OSAwLjA1MDksMC4xODEzNSAwLjA0OTQsMC4xODY3NSBjIDAuMDA4LDAuMDMxNiAwLjAxNjIsMC4wNjM0IDAuMDI0MiwwLjA5NTQgbCAwLjA0NzMsMC4xOTQ3MSAwLjA0NTksMC4xOTk5NCBjIDAuMDA3LDAuMDMzOCAwLjAxNSwwLjA2NzcgMC4wMjI0LDAuMTAxOTEgbCAwLjA0MzksMC4yMDc2NiAwLjAzNTUsMC4xNzcwMSAwLjAyODksMC4xNTUyNiBjIDAuMDA1LDAuMDI3MiAwLjAxLDAuMDU1IDAuMDE0OSwwLjA4MzQgbCAwLjAzMDQsMC4xNzY3OSAwLjA2MjQsMC4zODUzNCAwLjA2MjcsMC40MTE4NiAwLjEwNjgxLDAuNzQ1NzggMC4wOTkyLDAuNzM5MDkgMC4wNjE2LDAuNDk4MjkgMC4wMDQsMC4wMzk5IC0xLjZlLTQsMC4wMDUgLTAuMDAyLC0wLjAwOCAwLjA0MzcsMC4yODg4OSAwLjE2MTM1LDEuMDk4NTUgMC4wMTI0LDAuMDggYyAwLjEyNTA2LDAuNzk4NTIgMC4yNjI2NywxLjUxMzcxIDAuNDMxNywyLjE4OTE5IDAuMzc3NzEsMS41MDkzNiAwLjg2Njc4LDIuNjA0ODMgMS40NTIxLDMuMTMwNjA0IDAuMjMyNjgsMC4yMDkgMC4yNTc5LDAuNTc0MDEgMC4wNTYzLDAuODE1MjYgLTAuMjAxNTgsMC4yNDEyNSAtMC41NTM2MSwwLjI2NzM5IC0wLjc4NjI5LDAuMDU4NCAtMC44MDIwOCwtMC43MjA0NyAtMS4zNzEwNSwtMS45OTQ4NzQgLTEuODAxMjMsLTMuNzEzOTU0IC0wLjE2MjYsLTAuNjQ5NzkgLTAuMjk2MzksLTEuMzI3MzggLTAuNDE3MTYsLTIuMDY5NTcgbCAtMC4wNTQ3LC0wLjM0NzcxIHoiLz48L2c+PC9zdmc+;resizable=0;" parent="AyNov7O-gYgKs4udSRPE-19" vertex="1">
          <mxGeometry width="30" height="30" as="geometry" />
        </mxCell>
        <mxCell id="AyNov7O-gYgKs4udSRPE-17" value="API Praias" style="aspect=fixed;sketch=0;html=1;dashed=0;whitespace=wrap;verticalLabelPosition=bottom;verticalAlign=top;fillColor=#2875E2;strokeColor=#ffffff;points=[[0.005,0.63,0],[0.1,0.2,0],[0.9,0.2,0],[0.5,0,0],[0.995,0.63,0],[0.72,0.99,0],[0.5,1,0],[0.28,0.99,0]];shape=mxgraph.kubernetes.icon2;prIcon=pod" parent="AyNov7O-gYgKs4udSRPE-19" vertex="1">
          <mxGeometry x="335" y="238" width="50" height="48" as="geometry" />
        </mxCell>
        <mxCell id="AyNov7O-gYgKs4udSRPE-18" value="API SubscriÃ§Ã£o" style="aspect=fixed;sketch=0;html=1;dashed=0;whitespace=wrap;verticalLabelPosition=bottom;verticalAlign=top;fillColor=#2875E2;strokeColor=#ffffff;points=[[0.005,0.63,0],[0.1,0.2,0],[0.9,0.2,0],[0.5,0,0],[0.995,0.63,0],[0.72,0.99,0],[0.5,1,0],[0.28,0.99,0]];shape=mxgraph.kubernetes.icon2;prIcon=pod" parent="AyNov7O-gYgKs4udSRPE-19" vertex="1">
          <mxGeometry x="245" y="238" width="50" height="48" as="geometry" />
        </mxCell>
        <mxCell id="c3USnsqaI5Ew4Ggvd5Ax-1" value="Istio" style="editableCssRules=.*;html=1;shape=image;verticalLabelPosition=bottom;labelBackgroundColor=#ffffff;verticalAlign=top;aspect=fixed;imageAspect=0;image=data:image/svg+xml,PHN2ZyB4bWxucz0iaHR0cDovL3d3dy53My5vcmcvMjAwMC9zdmciIHhtbG5zOnY9Imh0dHBzOi8vdmVjdGEuaW8vbmFubyIgd2lkdGg9IjE2MCIgaGVpZ2h0PSIyNDAiIHZpZXdCb3g9IjAgMCAxNjAgMjQwIj4mI3hhOwk8c3R5bGUgdHlwZT0idGV4dC9jc3MiPiYjeGE7CS5zdDB7ZmlsbDojNDY2YmIwO30mI3hhOwk8L3N0eWxlPiYjeGE7CTxwYXRoIGNsYXNzPSJzdDAiIGQ9Ik02MCAyNDBMMCAyMTBoMTYwem0wLTE2MEwwIDIwMGw2MC0xMHpNNzAgMHYxOTBsOTAgMTB6Ii8+JiN4YTs8L3N2Zz4=;fontColor=default;" vertex="1" parent="AyNov7O-gYgKs4udSRPE-19">
          <mxGeometry x="305" y="110" width="26" height="40" as="geometry" />
        </mxCell>
        <mxCell id="c3USnsqaI5Ew4Ggvd5Ax-2" value="Cert-Manager" style="aspect=fixed;sketch=0;html=1;dashed=0;whitespace=wrap;verticalLabelPosition=bottom;verticalAlign=top;fillColor=#2875E2;strokeColor=#ffffff;points=[[0.005,0.63,0],[0.1,0.2,0],[0.9,0.2,0],[0.5,0,0],[0.995,0.63,0],[0.72,0.99,0],[0.5,1,0],[0.28,0.99,0]];shape=mxgraph.kubernetes.icon2;prIcon=pod" vertex="1" parent="AyNov7O-gYgKs4udSRPE-19">
          <mxGeometry x="425" y="109.99999999999999" width="50" height="48" as="geometry" />
        </mxCell>
        <mxCell id="AyNov7O-gYgKs4udSRPE-15" value="Website" style="aspect=fixed;sketch=0;html=1;dashed=0;whitespace=wrap;verticalLabelPosition=bottom;verticalAlign=top;fillColor=#2875E2;strokeColor=#ffffff;points=[[0.005,0.63,0],[0.1,0.2,0],[0.9,0.2,0],[0.5,0,0],[0.995,0.63,0],[0.72,0.99,0],[0.5,1,0],[0.28,0.99,0]];shape=mxgraph.kubernetes.icon2;prIcon=pod" parent="AyNov7O-gYgKs4udSRPE-19" vertex="1">
          <mxGeometry x="425" y="238.00000000000006" width="50" height="48" as="geometry" />
        </mxCell>
        <mxCell id="c3USnsqaI5Ew4Ggvd5Ax-7" style="edgeStyle=orthogonalEdgeStyle;rounded=0;orthogonalLoop=1;jettySize=auto;html=1;entryX=0.503;entryY=0.074;entryDx=0;entryDy=0;entryPerimeter=0;" edge="1" parent="AyNov7O-gYgKs4udSRPE-19" target="AyNov7O-gYgKs4udSRPE-18">
          <mxGeometry relative="1" as="geometry">
            <mxPoint x="318" y="180" as="sourcePoint" />
            <Array as="points">
              <mxPoint x="318" y="200" />
              <mxPoint x="270" y="200" />
            </Array>
          </mxGeometry>
        </mxCell>
        <mxCell id="c3USnsqaI5Ew4Ggvd5Ax-8" style="edgeStyle=orthogonalEdgeStyle;rounded=0;orthogonalLoop=1;jettySize=auto;html=1;entryX=0.512;entryY=0.069;entryDx=0;entryDy=0;entryPerimeter=0;" edge="1" parent="AyNov7O-gYgKs4udSRPE-19" target="AyNov7O-gYgKs4udSRPE-17">
          <mxGeometry relative="1" as="geometry">
            <mxPoint x="318" y="180" as="sourcePoint" />
            <Array as="points">
              <mxPoint x="318" y="200" />
              <mxPoint x="361" y="200" />
            </Array>
          </mxGeometry>
        </mxCell>
        <mxCell id="c3USnsqaI5Ew4Ggvd5Ax-9" style="edgeStyle=orthogonalEdgeStyle;rounded=0;orthogonalLoop=1;jettySize=auto;html=1;entryX=0.509;entryY=0.075;entryDx=0;entryDy=0;entryPerimeter=0;" edge="1" parent="AyNov7O-gYgKs4udSRPE-19" target="AyNov7O-gYgKs4udSRPE-15">
          <mxGeometry relative="1" as="geometry">
            <mxPoint x="318" y="180" as="sourcePoint" />
            <Array as="points">
              <mxPoint x="318" y="200" />
              <mxPoint x="450" y="200" />
            </Array>
          </mxGeometry>
        </mxCell>
        <mxCell id="c3USnsqaI5Ew4Ggvd5Ax-10" style="edgeStyle=orthogonalEdgeStyle;rounded=0;orthogonalLoop=1;jettySize=auto;html=1;entryX=1.199;entryY=0.603;entryDx=0;entryDy=0;entryPerimeter=0;" edge="1" parent="AyNov7O-gYgKs4udSRPE-19" source="c3USnsqaI5Ew4Ggvd5Ax-2" target="c3USnsqaI5Ew4Ggvd5Ax-1">
          <mxGeometry relative="1" as="geometry" />
        </mxCell>
        <mxCell id="c3USnsqaI5Ew4Ggvd5Ax-11" value="SSL" style="edgeLabel;html=1;align=center;verticalAlign=middle;resizable=0;points=[];" vertex="1" connectable="0" parent="c3USnsqaI5Ew4Ggvd5Ax-10">
          <mxGeometry x="-0.3566" y="1" relative="1" as="geometry">
            <mxPoint x="-14" y="-9" as="offset" />
          </mxGeometry>
        </mxCell>
        <mxCell id="f0SKtiM8mEt6jpDEU50T-9" value="1 Nodes&#xa;(Worker)&#xa;s7n.xlarge.2&#xa;4 Vcpu&#xa;8 GiB" style="shape=image;verticalLabelPosition=bottom;verticalAlign=top;imageAspect=0;aspect=fixed;image=data:image/svg+xml,PHN2ZyB2ZXJzaW9uPSIxLjEiIHZpZXdCb3g9IjAgMCAyNCAyNCIgeG1sbnM9Imh0dHA6Ly93d3cudzMub3JnLzIwMDAvc3ZnIj4KPHRpdGxlPuiuoeeuly9FQ1M8L3RpdGxlPgo8ZyBmaWxsPSJub25lIiBmaWxsLXJ1bGU9ImV2ZW5vZGQiPgo8cmVjdCB3aWR0aD0iMjQuMDA3IiBoZWlnaHQ9IjI0LjAwNyIgcng9IjUuMDAxNCIgZmlsbD0iI0Y4NTgzNSIgZmlsbC1ydWxlPSJub256ZXJvIi8+CjxwYXRoIGQ9Im04LjAwNDcgMTguMDA1LTEuNzk4M2UtNCAtMC4wMDcxNTc3Yy0yLjIzMjEtMC4xMzIwNC00LjAwMzQtMi4wNzQ0LTQuMDAzNC00LjQ1MTIgMC0yLjQxOTMgMS44MzUyLTQuMzg4NSA0LjEyMzYtNC40NTY1IDAuNTUwNjMtMS43OTIgMi4xNTIxLTMuMDg4NCA0LjA0MTktMy4wODg0IDEuODk4MiAwIDMuNTA1NSAxLjMwNzkgNC4wNDkxIDMuMTEyMyAyLjEzMDQgMC4yMzg2IDMuNzg5OCAyLjEzMjEgMy43ODk4IDQuNDMyNiAwIDIuNDI3MS0xLjg0NzEgNC40MDEyLTQuMTQ1OCA0LjQ1NzFsLTAuMTAwMjMgMC4wMDEyMTc2aC03Ljc1NDd6IiBmaWxsPSIjZmZmIi8+CjxyZWN0IHg9IjYuNjQzMSIgeT0iMTEuMjI3IiB3aWR0aD0iMTAuNzU1IiBoZWlnaHQ9IjMuMjkwMiIgcng9IjEuNjQ1MSIgZmlsbD0iI0Y4NTgzNSIgZmlsbC1ydWxlPSJub256ZXJvIi8+CjxwYXRoIGQ9Im03LjY0NDggMTUuNTA3IDguNzY3IDAuMDM3NTE5YzAuMjAxMTQgOC42MDdlLTQgMC4zNjM0OSAwLjE2NTIzIDAuMzYyNjQgMC4zNjcxMy04LjI1M2UtNCAwLjE5MjcyLTAuMTUwMDYgMC4zNDk5OC0wLjMzODU2IDAuMzYzMTNsLTAuMDI3MTg0IDguODYzZS00IC04Ljc2Ny0wLjAzNzUxOWMtMC4yMDExNC04LjYwN2UtNCAtMC4zNjM0OS0wLjE2NTIzLTAuMzYyNjQtMC4zNjcxMyA4LjI1MjZlLTQgLTAuMTkyNzIgMC4xNTAwNi0wLjM0OTk4IDAuMzM4NTYtMC4zNjMxM2wwLjAyNzE4NC04Ljg2M2UtNHoiIGZpbGw9IiNGODU4MzUiIGZpbGwtcnVsZT0ibm9uemVybyIvPgo8Y2lyY2xlIGN4PSIxNS42NTUiIGN5PSIxMi45NDgiIHI9IjEuMDAwMyIgZmlsbD0iI2ZmZiIgZmlsbC1ydWxlPSJub256ZXJvIi8+CjwvZz4KPC9zdmc+Cg==" parent="1" vertex="1">
          <mxGeometry x="1254" y="68.5" width="40" height="40" as="geometry" />
        </mxCell>
        <mxCell id="f0SKtiM8mEt6jpDEU50T-10" value="NodePool - mongodb" style="rounded=0;whiteSpace=wrap;html=1;dashed=1;strokeColor=#999999;verticalAlign=top;" parent="1" vertex="1">
          <mxGeometry x="1790" y="38.5" width="378" height="286.5" as="geometry" />
        </mxCell>
        <mxCell id="f0SKtiM8mEt6jpDEU50T-11" value="Pods mongodb" style="rounded=0;whiteSpace=wrap;html=1;dashed=1;strokeColor=#999999;verticalAlign=top;dashPattern=1 2;" parent="1" vertex="1">
          <mxGeometry x="1881" y="68.5" width="267" height="236.5" as="geometry" />
        </mxCell>
        <mxCell id="f0SKtiM8mEt6jpDEU50T-17" value="&lt;div style=&quot;&quot;&gt;K8S Cluster&amp;nbsp;&lt;/div&gt;&lt;div style=&quot;&quot;&gt;(1 master node)&lt;/div&gt;" style="image;sketch=0;aspect=fixed;html=1;points=[];align=left;fontSize=12;image=img/lib/mscae/Kubernetes.svg;labelPosition=right;verticalLabelPosition=middle;verticalAlign=middle;" parent="1" vertex="1">
          <mxGeometry x="1186.37" y="-48.5" width="40.63" height="39" as="geometry" />
        </mxCell>
        <mxCell id="f0SKtiM8mEt6jpDEU50T-18" value="1 Nodes&#xa;(Worker)&#xa;s7n.xlarge.2&#xa;4 Vcpu&#xa;8 GiB&#xa;" style="shape=image;verticalLabelPosition=bottom;verticalAlign=top;imageAspect=0;aspect=fixed;image=data:image/svg+xml,PHN2ZyB2ZXJzaW9uPSIxLjEiIHZpZXdCb3g9IjAgMCAyNCAyNCIgeG1sbnM9Imh0dHA6Ly93d3cudzMub3JnLzIwMDAvc3ZnIj4KPHRpdGxlPuiuoeeuly9FQ1M8L3RpdGxlPgo8ZyBmaWxsPSJub25lIiBmaWxsLXJ1bGU9ImV2ZW5vZGQiPgo8cmVjdCB3aWR0aD0iMjQuMDA3IiBoZWlnaHQ9IjI0LjAwNyIgcng9IjUuMDAxNCIgZmlsbD0iI0Y4NTgzNSIgZmlsbC1ydWxlPSJub256ZXJvIi8+CjxwYXRoIGQ9Im04LjAwNDcgMTguMDA1LTEuNzk4M2UtNCAtMC4wMDcxNTc3Yy0yLjIzMjEtMC4xMzIwNC00LjAwMzQtMi4wNzQ0LTQuMDAzNC00LjQ1MTIgMC0yLjQxOTMgMS44MzUyLTQuMzg4NSA0LjEyMzYtNC40NTY1IDAuNTUwNjMtMS43OTIgMi4xNTIxLTMuMDg4NCA0LjA0MTktMy4wODg0IDEuODk4MiAwIDMuNTA1NSAxLjMwNzkgNC4wNDkxIDMuMTEyMyAyLjEzMDQgMC4yMzg2IDMuNzg5OCAyLjEzMjEgMy43ODk4IDQuNDMyNiAwIDIuNDI3MS0xLjg0NzEgNC40MDEyLTQuMTQ1OCA0LjQ1NzFsLTAuMTAwMjMgMC4wMDEyMTc2aC03Ljc1NDd6IiBmaWxsPSIjZmZmIi8+CjxyZWN0IHg9IjYuNjQzMSIgeT0iMTEuMjI3IiB3aWR0aD0iMTAuNzU1IiBoZWlnaHQ9IjMuMjkwMiIgcng9IjEuNjQ1MSIgZmlsbD0iI0Y4NTgzNSIgZmlsbC1ydWxlPSJub256ZXJvIi8+CjxwYXRoIGQ9Im03LjY0NDggMTUuNTA3IDguNzY3IDAuMDM3NTE5YzAuMjAxMTQgOC42MDdlLTQgMC4zNjM0OSAwLjE2NTIzIDAuMzYyNjQgMC4zNjcxMy04LjI1M2UtNCAwLjE5MjcyLTAuMTUwMDYgMC4zNDk5OC0wLjMzODU2IDAuMzYzMTNsLTAuMDI3MTg0IDguODYzZS00IC04Ljc2Ny0wLjAzNzUxOWMtMC4yMDExNC04LjYwN2UtNCAtMC4zNjM0OS0wLjE2NTIzLTAuMzYyNjQtMC4zNjcxMyA4LjI1MjZlLTQgLTAuMTkyNzIgMC4xNTAwNi0wLjM0OTk4IDAuMzM4NTYtMC4zNjMxM2wwLjAyNzE4NC04Ljg2M2UtNHoiIGZpbGw9IiNGODU4MzUiIGZpbGwtcnVsZT0ibm9uemVybyIvPgo8Y2lyY2xlIGN4PSIxNS42NTUiIGN5PSIxMi45NDgiIHI9IjEuMDAwMyIgZmlsbD0iI2ZmZiIgZmlsbC1ydWxlPSJub256ZXJvIi8+CjwvZz4KPC9zdmc+Cg==" parent="1" vertex="1">
          <mxGeometry x="1813" y="68.5" width="40" height="40" as="geometry" />
        </mxCell>
        <mxCell id="1bQ6oVPUR2-1lXNyH8SF-1" value="FunctionGraph" style="shape=image;verticalLabelPosition=bottom;verticalAlign=top;imageAspect=0;aspect=fixed;image=data:image/svg+xml,PHN2ZyB2ZXJzaW9uPSIxLjEiIHZpZXdCb3g9IjAgMCAyNCAyNCIgeG1sbnM9Imh0dHA6Ly93d3cudzMub3JnLzIwMDAvc3ZnIj4KPHRpdGxlPuiuoeeuly9GdW5jdGlvbkdyYXBoPC90aXRsZT4KPGcgZmlsbD0ibm9uZSIgZmlsbC1ydWxlPSJldmVub2RkIj4KPHJlY3Qgd2lkdGg9IjI0LjAwNyIgaGVpZ2h0PSIyNC4wMDciIHJ4PSI1LjMzNTkiIGZpbGw9IiM3RENDMjkiLz4KPHBhdGggZD0ibTguMDA0NyAxOC4wMDUtMS43OTgzZS00IC0wLjAwNzE1NzdjLTIuMjMyMS0wLjEzMjA0LTQuMDAzNC0yLjA3NDQtNC4wMDM0LTQuNDUxMiAwLTIuNDE5MyAxLjgzNTItNC4zODg1IDQuMTIzNi00LjQ1NjUgMC41NTA2My0xLjc5MiAyLjE1MjEtMy4wODg0IDQuMDQxOS0zLjA4ODQgMS44OTgyIDAgMy41MDU1IDEuMzA3OSA0LjA0OTEgMy4xMTIzIDIuMTMwNCAwLjIzODYgMy43ODk4IDIuMTMyMSAzLjc4OTggNC40MzI2IDAgMi40MjcxLTEuODQ3MSA0LjQwMTItNC4xNDU4IDQuNDU3MWwtMC4xMDAyMyAwLjAwMTIxNzZoLTcuNzU0N3oiIGZpbGw9IiNmZmYiLz4KPHBhdGggZD0ibTE1LjU3MSAxMS42N2gtMy40NjczYy0wLjgwMDU1IDAtMS40MzQxIDAuNjY2ODUtMS40MzQxIDEuNTAwNCAwIDAuMTAwMDMgMC4wNjY2ODUgMC4xNjY3MSAwLjE2NjcxIDAuMTY2NzEgMC4xMDAzNiAwIDAuMTY2NzEtMC4wNjY2ODUgMC4xNjY3MS0wLjE2NjcxIDAtMC42MzM1MSAwLjUwMDE0LTEuMTY3IDEuMTAwNi0xLjE2N2gzLjQ2NzNjMC42MDAxNiAwIDEuMTAwMyAwLjUzMzQ4IDEuMTAwMyAxLjE2NyAwIDAuNjMzNTEtMC41MDAxNCAxLjE2Ny0xLjEwMDMgMS4xNjdoLTEuNTY3MWMtMC4xMDAwMyAwLTAuMTY2NzEgMC4wNjY2ODUtMC4xNjY3MSAwLjE2NjcxIDAgMC4xMDAwMyAwLjA2NjY4NSAwLjE2NjcxIDAuMTY2NzEgMC4xNjY3MWgxLjU2NzFjMC44MDAyMiAwIDEuNDMzNy0wLjY2Njg1IDEuNDMzNy0xLjUwMDQgMC0wLjgzMzU2LTAuNjMzNTEtMS41MDA0LTEuNDMzNy0xLjUwMDQiIGZpbGw9IiM3RENDMjkiIHN0cm9rZT0iIzdEQ0MyOSIgc3Ryb2tlLXdpZHRoPSIuNSIvPgo8cGF0aCB0cmFuc2Zvcm09InRyYW5zbGF0ZSgxMC4xNjkgMTMuMTcpIHNjYWxlKC0xKSB0cmFuc2xhdGUoLTEwLjE2OSAtMTMuMTcpIiBkPSJtMTEuOTAzIDExLjY3aC0zLjQ2NzNjLTAuODAwNTUgMC0xLjQzNDEgMC42NjY4NS0xLjQzNDEgMS41MDA0IDAgMC4xMDAwMyAwLjA2NjY4NSAwLjE2NjcxIDAuMTY2NzEgMC4xNjY3MSAwLjEwMDM2IDAgMC4xNjY3MS0wLjA2NjY4NSAwLjE2NjcxLTAuMTY2NzEgMC0wLjYzMzUxIDAuNTAwMTQtMS4xNjcgMS4xMDA2LTEuMTY3aDMuNDY3M2MwLjYwMDE2IDAgMS4xMDAzIDAuNTMzNDggMS4xMDAzIDEuMTY3IDAgMC42MzM1MS0wLjUwMDE0IDEuMTY3LTEuMTAwMyAxLjE2N2gtMS41NjcxYy0wLjEwMDAzIDAtMC4xNjY3MSAwLjA2NjY4NS0wLjE2NjcxIDAuMTY2NzEgMCAwLjEwMDAzIDAuMDY2Njg1IDAuMTY2NzEgMC4xNjY3MSAwLjE2NjcxaDEuNTY3MWMwLjgwMDIyIDAgMS40MzM3LTAuNjY2ODUgMS40MzM3LTEuNTAwNCAwLTAuODMzNTYtMC42MzM1MS0xLjUwMDQtMS40MzM3LTEuNTAwNCIgZmlsbD0iIzdEQ0MyOSIgc3Ryb2tlPSIjN0RDQzI5IiBzdHJva2Utd2lkdGg9Ii41Ii8+CjwvZz4KPC9zdmc+Cg==" parent="1" vertex="1">
          <mxGeometry x="1923" y="-210" width="40" height="40" as="geometry" />
        </mxCell>
        <mxCell id="1bQ6oVPUR2-1lXNyH8SF-3" value="CodeArts Deploy" style="shape=image;verticalLabelPosition=bottom;verticalAlign=top;imageAspect=0;aspect=fixed;image=data:image/svg+xml,PHN2ZyB2ZXJzaW9uPSIxLjEiIHZpZXdCb3g9IjAgMCAyNCAyNCIgeG1sbnM9Imh0dHA6Ly93d3cudzMub3JnLzIwMDAvc3ZnIj4KPHRpdGxlPuW8gOWPkeS4jui/kOe7tC9Db2RlQXJ0cyBEZXBsb3k8L3RpdGxlPgo8ZyBmaWxsLXJ1bGU9ImV2ZW5vZGQiPgo8cmVjdCB3aWR0aD0iMjQuMDA3IiBoZWlnaHQ9IjI0LjAwNyIgcng9IjUuMzM0OCIgZmlsbD0iIzI0QzI1MSIvPgo8cGF0aCBkPSJtNS4yNjQzIDQuMDAxMWMtMC42OTY1NSAwLTEuMjYzMyAwLjU2ODE1LTEuMjYzMyAxLjI2NjJ2OS4zODg3YzAgMC42MTA3MSAwLjQxNDI5IDEuMzI2MiAwLjk0NDI2IDEuNjI4OGw2LjExNzcgMy40OTI5YzAuMjU3MTYgMC4xNDY5NSAwLjU5MTA3IDAuMjI3NyAwLjk0MDI2IDAuMjI3N3MwLjY4MzA5LTAuMDgwNzQ5IDAuOTQwMjYtMC4yMjc3bDYuMTE3My0zLjQ5MjljMC41Mjk5Ni0wLjMwMjYzIDAuOTQ0NjItMS4wMTgxIDAuOTQ0NjItMS42Mjg4di05LjM4ODdjMC0wLjY5ODAxLTAuNTY3MDYtMS4yNjYyLTEuMjYzNi0xLjI2NjJoLTEzLjQ3N3oiIGZpbGw9IiNmZmYiLz4KPGcgdHJhbnNmb3JtPSJ0cmFuc2xhdGUoNi42Njg1IDYuMDAxNikiIGZpbGw9IiMyNEMyNTEiPgo8cmVjdCB3aWR0aD0iNC42Njc5IiBoZWlnaHQ9IjguNjY5IiByeD0iLjY2Njg1Ii8+CjxyZWN0IHg9IjUuMzM0OCIgd2lkdGg9IjUuMzM0OCIgaGVpZ2h0PSI0LjAwMTEiIHJ4PSIuNjY2ODUiLz4KPHJlY3QgeD0iNS4zMzQ4IiB5PSI0LjY2NzkiIHdpZHRoPSI1LjMzNDgiIGhlaWdodD0iNC4wMDExIiByeD0iLjY2Njg1Ii8+CjwvZz4KPC9nPgo8L3N2Zz4K" parent="1" vertex="1">
          <mxGeometry x="1575" y="-210" width="40" height="40" as="geometry" />
        </mxCell>
        <mxCell id="AyNov7O-gYgKs4udSRPE-31" style="edgeStyle=orthogonalEdgeStyle;rounded=0;orthogonalLoop=1;jettySize=auto;html=1;" parent="1" source="1bQ6oVPUR2-1lXNyH8SF-4" edge="1">
          <mxGeometry relative="1" as="geometry">
            <mxPoint x="1365" y="-270" as="targetPoint" />
          </mxGeometry>
        </mxCell>
        <mxCell id="AyNov7O-gYgKs4udSRPE-32" style="edgeStyle=orthogonalEdgeStyle;rounded=0;orthogonalLoop=1;jettySize=auto;html=1;entryX=0;entryY=0.5;entryDx=0;entryDy=0;" parent="1" source="1bQ6oVPUR2-1lXNyH8SF-4" target="1bQ6oVPUR2-1lXNyH8SF-3" edge="1">
          <mxGeometry relative="1" as="geometry" />
        </mxCell>
        <mxCell id="1bQ6oVPUR2-1lXNyH8SF-4" value="CodeArts Build" style="shape=image;verticalLabelPosition=bottom;verticalAlign=top;imageAspect=0;aspect=fixed;image=data:image/svg+xml,PHN2ZyB2ZXJzaW9uPSIxLjEiIHZpZXdCb3g9IjAgMCAyNCAyNCIgeG1sbnM9Imh0dHA6Ly93d3cudzMub3JnLzIwMDAvc3ZnIj4KPHRpdGxlPuW8gOWPkeS4jui/kOe7tC9Db2RlQXJ0cyBCdWlsZDwvdGl0bGU+CjxnIGZpbGw9Im5vbmUiIGZpbGwtcnVsZT0iZXZlbm9kZCI+CjxyZWN0IHdpZHRoPSIyNC4wMDciIGhlaWdodD0iMjQuMDA3IiByeD0iNS4zMzQ4IiBmaWxsPSIjMTQ3NkZGIi8+CjxwYXRoIGQ9Im01LjI2NDMgNC4wMDExYy0wLjY5NjU1IDAtMS4yNjMzIDAuNTY4MTUtMS4yNjMzIDEuMjY2MnY5LjM4ODdjMCAwLjYxMDcxIDAuNDE0MjkgMS4zMjYyIDAuOTQ0MjYgMS42Mjg4bDYuMTE3NyAzLjQ5MjljMC4yNTcxNiAwLjE0Njk1IDAuNTkxMDcgMC4yMjc3IDAuOTQwMjYgMC4yMjc3czAuNjgzMDktMC4wODA3NDkgMC45NDAyNi0wLjIyNzdsNi4xMTczLTMuNDkyOWMwLjUyOTk2LTAuMzAyNjMgMC45NDQ2Mi0xLjAxODEgMC45NDQ2Mi0xLjYyODh2LTkuMzg4N2MwLTAuNjk4MDEtMC41NjcwNi0xLjI2NjItMS4yNjM2LTEuMjY2MmgtMTMuNDc3eiIgZmlsbD0iI2ZmZiIvPgo8cmVjdCB4PSI2LjgwNzQiIHk9IjcuMDAxOSIgd2lkdGg9IjEwLjM5MiIgaGVpZ2h0PSI3LjMzNTMiIHJ4PSIuNjY2ODUiIGZpbGw9IiMxNDc2RkYiLz4KPGxpbmUgeDE9IjEwLjE2OSIgeDI9IjEzLjgzNyIgeTE9IjkuMTY5MiIgeTI9IjkuMTY5MiIgc3Ryb2tlPSIjZmZmIiBzdHJva2UtbGluZWNhcD0icm91bmQiIHN0cm9rZS1saW5lam9pbj0icm91bmQiIHN0cm9rZS13aWR0aD0iLjUwMDE0Ii8+CjwvZz4KPC9zdmc+Cg==" parent="1" vertex="1">
          <mxGeometry x="1345" y="-210" width="40" height="40" as="geometry" />
        </mxCell>
        <mxCell id="AyNov7O-gYgKs4udSRPE-3" value="Github" style="dashed=0;outlineConnect=0;html=1;align=center;labelPosition=center;verticalLabelPosition=bottom;verticalAlign=top;shape=mxgraph.weblogos.github" parent="1" vertex="1">
          <mxGeometry x="1342.5" y="-530" width="45" height="45" as="geometry" />
        </mxCell>
        <mxCell id="AyNov7O-gYgKs4udSRPE-30" style="edgeStyle=orthogonalEdgeStyle;rounded=0;orthogonalLoop=1;jettySize=auto;html=1;" parent="1" source="AyNov7O-gYgKs4udSRPE-5" edge="1">
          <mxGeometry relative="1" as="geometry">
            <mxPoint x="1365" y="-460" as="targetPoint" />
          </mxGeometry>
        </mxCell>
        <mxCell id="AyNov7O-gYgKs4udSRPE-5" value="Internet" style="sketch=0;outlineConnect=0;fontColor=#232F3E;gradientColor=none;strokeColor=#232F3E;fillColor=#ffffff;dashed=0;verticalLabelPosition=bottom;verticalAlign=top;align=center;html=1;fontSize=12;fontStyle=0;aspect=fixed;shape=mxgraph.aws4.resourceIcon;resIcon=mxgraph.aws4.internet;" parent="1" vertex="1">
          <mxGeometry x="1335" y="-360" width="60" height="60" as="geometry" />
        </mxCell>
        <mxCell id="AyNov7O-gYgKs4udSRPE-8" value="MongoDB" style="aspect=fixed;sketch=0;html=1;dashed=0;whitespace=wrap;verticalLabelPosition=bottom;verticalAlign=top;fillColor=#2875E2;strokeColor=#ffffff;points=[[0.005,0.63,0],[0.1,0.2,0],[0.9,0.2,0],[0.5,0,0],[0.995,0.63,0],[0.72,0.99,0],[0.5,1,0],[0.28,0.99,0]];shape=mxgraph.kubernetes.icon2;prIcon=pod" parent="1" vertex="1">
          <mxGeometry x="1988" y="107" width="50" height="48" as="geometry" />
        </mxCell>
        <mxCell id="AyNov7O-gYgKs4udSRPE-9" value="DBUsuÃ¡rios" style="html=1;verticalLabelPosition=bottom;align=center;labelBackgroundColor=#ffffff;verticalAlign=top;strokeWidth=2;strokeColor=#0080F0;shadow=0;dashed=0;shape=mxgraph.ios7.icons.data;" parent="1" vertex="1">
          <mxGeometry x="1911" y="227.25" width="24" height="29.099999999999998" as="geometry" />
        </mxCell>
        <mxCell id="AyNov7O-gYgKs4udSRPE-10" value="&lt;div&gt;&lt;span style=&quot;background-color: light-dark(rgb(255, 255, 255), rgb(18, 18, 18)); color: light-dark(rgb(0, 0, 0), rgb(255, 255, 255));&quot;&gt;DBPraias&lt;/span&gt;&lt;/div&gt;" style="html=1;verticalLabelPosition=bottom;align=center;labelBackgroundColor=#ffffff;verticalAlign=top;strokeWidth=2;strokeColor=#0080F0;shadow=0;dashed=0;shape=mxgraph.ios7.icons.data;" parent="1" vertex="1">
          <mxGeometry x="2085" y="227.25" width="24" height="29.099999999999998" as="geometry" />
        </mxCell>
        <mxCell id="AyNov7O-gYgKs4udSRPE-11" value="DBSubscriÃ§Ãµes" style="html=1;verticalLabelPosition=bottom;align=center;labelBackgroundColor=#ffffff;verticalAlign=top;strokeWidth=2;strokeColor=#0080F0;shadow=0;dashed=0;shape=mxgraph.ios7.icons.data;" parent="1" vertex="1">
          <mxGeometry x="2001" y="227.55000000000007" width="24" height="29.099999999999998" as="geometry" />
        </mxCell>
        <mxCell id="AyNov7O-gYgKs4udSRPE-12" style="edgeStyle=orthogonalEdgeStyle;rounded=0;orthogonalLoop=1;jettySize=auto;html=1;entryX=0.516;entryY=0.114;entryDx=0;entryDy=0;entryPerimeter=0;" parent="1" target="AyNov7O-gYgKs4udSRPE-11" edge="1">
          <mxGeometry relative="1" as="geometry">
            <mxPoint x="2013" y="175" as="sourcePoint" />
          </mxGeometry>
        </mxCell>
        <mxCell id="AyNov7O-gYgKs4udSRPE-13" style="edgeStyle=orthogonalEdgeStyle;rounded=0;orthogonalLoop=1;jettySize=auto;html=1;entryX=0.512;entryY=0.054;entryDx=0;entryDy=0;entryPerimeter=0;" parent="1" target="AyNov7O-gYgKs4udSRPE-10" edge="1">
          <mxGeometry relative="1" as="geometry">
            <mxPoint x="2013" y="185" as="sourcePoint" />
            <Array as="points">
              <mxPoint x="2013" y="205" />
              <mxPoint x="2097" y="205" />
            </Array>
          </mxGeometry>
        </mxCell>
        <mxCell id="AyNov7O-gYgKs4udSRPE-14" style="edgeStyle=orthogonalEdgeStyle;rounded=0;orthogonalLoop=1;jettySize=auto;html=1;entryX=0.54;entryY=0.152;entryDx=0;entryDy=0;entryPerimeter=0;" parent="1" edge="1">
          <mxGeometry relative="1" as="geometry">
            <mxPoint x="2013" y="175" as="sourcePoint" />
            <mxPoint x="1923.96" y="231.67319999999995" as="targetPoint" />
            <Array as="points">
              <mxPoint x="2013" y="205" />
              <mxPoint x="1924" y="205" />
            </Array>
          </mxGeometry>
        </mxCell>
        <mxCell id="AyNov7O-gYgKs4udSRPE-16" value="API UsuÃ¡rios" style="aspect=fixed;sketch=0;html=1;dashed=0;whitespace=wrap;verticalLabelPosition=bottom;verticalAlign=top;fillColor=#2875E2;strokeColor=#ffffff;points=[[0.005,0.63,0],[0.1,0.2,0],[0.9,0.2,0],[0.5,0,0],[0.995,0.63,0],[0.72,0.99,0],[0.5,1,0],[0.28,0.99,0]];shape=mxgraph.kubernetes.icon2;prIcon=pod" parent="1" vertex="1">
          <mxGeometry x="1345" y="238.35000000000002" width="50" height="48" as="geometry" />
        </mxCell>
        <mxCell id="AyNov7O-gYgKs4udSRPE-27" value="Daily Cron" style="points=[[0.25,0.25,0],[0.5,0,0],[0.75,0.25,0],[1,0.5,0],[0.75,0.75,0],[0.5,1,0],[0.25,0.75,0],[0,0.5,0]];shape=mxgraph.bpmn.gateway2;html=1;verticalLabelPosition=bottom;labelBackgroundColor=#ffffff;verticalAlign=top;align=center;perimeter=rhombusPerimeter;outlineConnect=0;outline=standard;symbol=timer;" parent="1" vertex="1">
          <mxGeometry x="1918" y="-350" width="50" height="50" as="geometry" />
        </mxCell>
        <mxCell id="AyNov7O-gYgKs4udSRPE-28" style="edgeStyle=orthogonalEdgeStyle;rounded=0;orthogonalLoop=1;jettySize=auto;html=1;entryX=0.821;entryY=0.006;entryDx=0;entryDy=0;entryPerimeter=0;" parent="1" edge="1">
          <mxGeometry relative="1" as="geometry">
            <mxPoint x="1943" y="-150" as="sourcePoint" />
            <mxPoint x="1943.0550000000003" y="-50.99299999999994" as="targetPoint" />
          </mxGeometry>
        </mxCell>
        <mxCell id="AyNov7O-gYgKs4udSRPE-29" style="edgeStyle=orthogonalEdgeStyle;rounded=0;orthogonalLoop=1;jettySize=auto;html=1;entryX=0.507;entryY=0.095;entryDx=0;entryDy=0;entryPerimeter=0;" parent="1" target="1bQ6oVPUR2-1lXNyH8SF-1" edge="1">
          <mxGeometry relative="1" as="geometry">
            <mxPoint x="1943" y="-280" as="sourcePoint" />
          </mxGeometry>
        </mxCell>
        <mxCell id="AyNov7O-gYgKs4udSRPE-33" style="edgeStyle=orthogonalEdgeStyle;rounded=0;orthogonalLoop=1;jettySize=auto;html=1;entryX=0.41;entryY=0;entryDx=0;entryDy=0;entryPerimeter=0;" parent="1" target="f0SKtiM8mEt6jpDEU50T-1" edge="1">
          <mxGeometry relative="1" as="geometry">
            <mxPoint x="1594" y="-150" as="sourcePoint" />
          </mxGeometry>
        </mxCell>
        <mxCell id="c3USnsqaI5Ew4Ggvd5Ax-6" style="edgeStyle=orthogonalEdgeStyle;rounded=0;orthogonalLoop=1;jettySize=auto;html=1;entryX=0.514;entryY=0.086;entryDx=0;entryDy=0;entryPerimeter=0;" edge="1" parent="1" target="AyNov7O-gYgKs4udSRPE-16">
          <mxGeometry relative="1" as="geometry">
            <mxPoint x="1513" y="180" as="sourcePoint" />
            <Array as="points">
              <mxPoint x="1513" y="200" />
              <mxPoint x="1371" y="200" />
            </Array>
          </mxGeometry>
        </mxCell>
      </root>
    </mxGraphModel>
  </diagram>
  <diagram id="5PsdViCh3RMLKJb_9xNS" name="UML - Arquitetura">
    <mxGraphModel dx="1034" dy="610" grid="1" gridSize="10" guides="1" tooltips="1" connect="1" arrows="1" fold="1" page="1" pageScale="1" pageWidth="850" pageHeight="1100" math="0" shadow="0">
      <root>
        <mxCell id="0" />
        <mxCell id="1" parent="0" />
        <mxCell id="cQQWW6PoBTc1h7torGU0-2" value="" style="shape=folder;fontStyle=1;spacingTop=10;tabWidth=40;tabHeight=14;tabPosition=left;html=1;whiteSpace=wrap;" parent="1" vertex="1">
          <mxGeometry x="470" y="75" width="840" height="200" as="geometry" />
        </mxCell>
        <mxCell id="cQQWW6PoBTc1h7torGU0-1" value="TelaSubscriÃ§Ã£o" style="shape=module;align=left;spacingLeft=20;align=center;verticalAlign=top;whiteSpace=wrap;html=1;" parent="1" vertex="1">
          <mxGeometry x="500" y="150" width="130" height="50" as="geometry" />
        </mxCell>
        <mxCell id="cQQWW6PoBTc1h7torGU0-5" value="&lt;b style=&quot;&quot;&gt;ApresentaÃ§Ã£o&lt;/b&gt;" style="text;html=1;align=center;verticalAlign=middle;whiteSpace=wrap;rounded=0;" parent="1" vertex="1">
          <mxGeometry x="850" y="90" width="80" height="30" as="geometry" />
        </mxCell>
        <mxCell id="cQQWW6PoBTc1h7torGU0-6" value="" style="shape=folder;fontStyle=1;spacingTop=10;tabWidth=40;tabHeight=14;tabPosition=left;html=1;whiteSpace=wrap;" parent="1" vertex="1">
          <mxGeometry x="450" y="330" width="880" height="200" as="geometry" />
        </mxCell>
        <mxCell id="cQQWW6PoBTc1h7torGU0-7" value="&lt;b style=&quot;&quot;&gt;AplicaÃ§Ã£o&lt;/b&gt;" style="text;html=1;align=center;verticalAlign=middle;whiteSpace=wrap;rounded=0;" parent="1" vertex="1">
          <mxGeometry x="850" y="350" width="80" height="30" as="geometry" />
        </mxCell>
        <mxCell id="cQQWW6PoBTc1h7torGU0-8" value="" style="shape=folder;fontStyle=1;spacingTop=10;tabWidth=40;tabHeight=14;tabPosition=left;html=1;whiteSpace=wrap;" parent="1" vertex="1">
          <mxGeometry x="585" y="603" width="610" height="200" as="geometry" />
        </mxCell>
        <mxCell id="cQQWW6PoBTc1h7torGU0-9" value="&lt;b&gt;Objetos de NegÃ³cio&lt;/b&gt;" style="text;html=1;align=center;verticalAlign=middle;whiteSpace=wrap;rounded=0;" parent="1" vertex="1">
          <mxGeometry x="832.5" y="623" width="115" height="30" as="geometry" />
        </mxCell>
        <mxCell id="cQQWW6PoBTc1h7torGU0-10" value="" style="shape=folder;fontStyle=1;spacingTop=10;tabWidth=40;tabHeight=14;tabPosition=left;html=1;whiteSpace=wrap;" parent="1" vertex="1">
          <mxGeometry x="486" y="873" width="785" height="200" as="geometry" />
        </mxCell>
        <mxCell id="cQQWW6PoBTc1h7torGU0-11" value="&lt;b&gt;PersistÃªncia&lt;/b&gt;" style="text;html=1;align=center;verticalAlign=middle;whiteSpace=wrap;rounded=0;" parent="1" vertex="1">
          <mxGeometry x="832.5" y="890" width="115" height="30" as="geometry" />
        </mxCell>
        <mxCell id="cQQWW6PoBTc1h7torGU0-12" value="" style="shape=folder;fontStyle=1;spacingTop=10;tabWidth=40;tabHeight=14;tabPosition=left;html=1;whiteSpace=wrap;" parent="1" vertex="1">
          <mxGeometry x="585" y="1143" width="605" height="180" as="geometry" />
        </mxCell>
        <mxCell id="cQQWW6PoBTc1h7torGU0-13" value="&lt;b&gt;Dados&lt;/b&gt;" style="text;html=1;align=center;verticalAlign=middle;whiteSpace=wrap;rounded=0;" parent="1" vertex="1">
          <mxGeometry x="830" y="1163" width="115" height="30" as="geometry" />
        </mxCell>
        <mxCell id="cQQWW6PoBTc1h7torGU0-14" value="TelaStatus" style="shape=module;align=left;spacingLeft=20;align=center;verticalAlign=top;whiteSpace=wrap;html=1;" parent="1" vertex="1">
          <mxGeometry x="655" y="150" width="130" height="50" as="geometry" />
        </mxCell>
        <mxCell id="cQQWW6PoBTc1h7torGU0-15" value="TelaCadastro" style="shape=module;align=left;spacingLeft=20;align=center;verticalAlign=top;whiteSpace=wrap;html=1;" parent="1" vertex="1">
          <mxGeometry x="810" y="150" width="130" height="50" as="geometry" />
        </mxCell>
        <mxCell id="cQQWW6PoBTc1h7torGU0-16" value="TelaLogin" style="shape=module;align=left;spacingLeft=20;align=center;verticalAlign=top;whiteSpace=wrap;html=1;" parent="1" vertex="1">
          <mxGeometry x="970" y="150" width="130" height="50" as="geometry" />
        </mxCell>
        <mxCell id="cQQWW6PoBTc1h7torGU0-17" value="TelaBlog" style="shape=module;align=left;spacingLeft=20;align=center;verticalAlign=top;whiteSpace=wrap;html=1;" parent="1" vertex="1">
          <mxGeometry x="1130" y="150" width="130" height="50" as="geometry" />
        </mxCell>
        <mxCell id="cQQWW6PoBTc1h7torGU0-18" value="ControladorSubscriÃ§Ã£o" style="shape=module;align=left;spacingLeft=20;align=center;verticalAlign=top;whiteSpace=wrap;html=1;" parent="1" vertex="1">
          <mxGeometry x="465" y="420" width="160" height="50" as="geometry" />
        </mxCell>
        <mxCell id="cQQWW6PoBTc1h7torGU0-19" value="ControladorStatus" style="shape=module;align=left;spacingLeft=20;align=center;verticalAlign=top;whiteSpace=wrap;html=1;" parent="1" vertex="1">
          <mxGeometry x="640" y="420" width="160" height="50" as="geometry" />
        </mxCell>
        <mxCell id="cQQWW6PoBTc1h7torGU0-20" value="ControladorCadastro" style="shape=module;align=left;spacingLeft=20;align=center;verticalAlign=top;whiteSpace=wrap;html=1;" parent="1" vertex="1">
          <mxGeometry x="810" y="420" width="160" height="50" as="geometry" />
        </mxCell>
        <mxCell id="cQQWW6PoBTc1h7torGU0-21" value="ControladorLogin" style="shape=module;align=left;spacingLeft=20;align=center;verticalAlign=top;whiteSpace=wrap;html=1;" parent="1" vertex="1">
          <mxGeometry x="980" y="420" width="160" height="50" as="geometry" />
        </mxCell>
        <mxCell id="cQQWW6PoBTc1h7torGU0-22" value="ControladorBlog" style="shape=module;align=left;spacingLeft=20;align=center;verticalAlign=top;whiteSpace=wrap;html=1;" parent="1" vertex="1">
          <mxGeometry x="1150" y="420" width="160" height="50" as="geometry" />
        </mxCell>
        <mxCell id="cQQWW6PoBTc1h7torGU0-23" value="SubscriÃ§Ã£o" style="shape=module;align=left;spacingLeft=20;align=center;verticalAlign=top;whiteSpace=wrap;html=1;" parent="1" vertex="1">
          <mxGeometry x="615" y="683" width="125" height="50" as="geometry" />
        </mxCell>
        <mxCell id="cQQWW6PoBTc1h7torGU0-24" value="DAOUsuÃ¡rio" style="shape=module;align=left;spacingLeft=20;align=center;verticalAlign=top;whiteSpace=wrap;html=1;" parent="1" vertex="1">
          <mxGeometry x="516" y="948" width="125" height="50" as="geometry" />
        </mxCell>
        <mxCell id="cQQWW6PoBTc1h7torGU0-25" value="Postagem" style="shape=module;align=left;spacingLeft=20;align=center;verticalAlign=top;whiteSpace=wrap;html=1;" parent="1" vertex="1">
          <mxGeometry x="1030" y="683" width="125" height="50" as="geometry" />
        </mxCell>
        <mxCell id="cQQWW6PoBTc1h7torGU0-26" style="edgeStyle=orthogonalEdgeStyle;rounded=0;orthogonalLoop=1;jettySize=auto;html=1;entryX=0.501;entryY=0.057;entryDx=0;entryDy=0;entryPerimeter=0;dashed=1;" parent="1" source="cQQWW6PoBTc1h7torGU0-2" target="cQQWW6PoBTc1h7torGU0-6" edge="1">
          <mxGeometry relative="1" as="geometry" />
        </mxCell>
        <mxCell id="cQQWW6PoBTc1h7torGU0-27" style="edgeStyle=orthogonalEdgeStyle;rounded=0;orthogonalLoop=1;jettySize=auto;html=1;entryX=0.486;entryY=0.047;entryDx=0;entryDy=0;entryPerimeter=0;dashed=1;" parent="1" target="cQQWW6PoBTc1h7torGU0-8" edge="1">
          <mxGeometry relative="1" as="geometry">
            <mxPoint x="881.02" y="530" as="sourcePoint" />
            <mxPoint x="882.02" y="596" as="targetPoint" />
          </mxGeometry>
        </mxCell>
        <mxCell id="cQQWW6PoBTc1h7torGU0-28" style="edgeStyle=orthogonalEdgeStyle;rounded=0;orthogonalLoop=1;jettySize=auto;html=1;dashed=1;" parent="1" edge="1">
          <mxGeometry relative="1" as="geometry">
            <mxPoint x="889.47" y="803" as="sourcePoint" />
            <mxPoint x="890" y="883" as="targetPoint" />
            <Array as="points" />
          </mxGeometry>
        </mxCell>
        <mxCell id="cQQWW6PoBTc1h7torGU0-29" value="Cadastro" style="shape=module;align=left;spacingLeft=20;align=center;verticalAlign=top;whiteSpace=wrap;html=1;" parent="1" vertex="1">
          <mxGeometry x="832.5" y="683" width="125" height="50" as="geometry" />
        </mxCell>
        <mxCell id="cQQWW6PoBTc1h7torGU0-30" value="DAOPraias" style="shape=module;align=left;spacingLeft=20;align=center;verticalAlign=top;whiteSpace=wrap;html=1;" parent="1" vertex="1">
          <mxGeometry x="716" y="948" width="125" height="50" as="geometry" />
        </mxCell>
        <mxCell id="cQQWW6PoBTc1h7torGU0-31" value="DAOSubscriÃ§Ã£o" style="shape=module;align=left;spacingLeft=20;align=center;verticalAlign=top;whiteSpace=wrap;html=1;" parent="1" vertex="1">
          <mxGeometry x="916" y="948" width="125" height="50" as="geometry" />
        </mxCell>
        <mxCell id="cQQWW6PoBTc1h7torGU0-32" value="DBUsuÃ¡rio" style="shape=module;align=left;spacingLeft=20;align=center;verticalAlign=top;whiteSpace=wrap;html=1;" parent="1" vertex="1">
          <mxGeometry x="630" y="1208" width="125" height="50" as="geometry" />
        </mxCell>
        <mxCell id="cQQWW6PoBTc1h7torGU0-33" value="DBPraias" style="shape=module;align=left;spacingLeft=20;align=center;verticalAlign=top;whiteSpace=wrap;html=1;" parent="1" vertex="1">
          <mxGeometry x="830" y="1208" width="125" height="50" as="geometry" />
        </mxCell>
        <mxCell id="cQQWW6PoBTc1h7torGU0-34" value="DBSubscirÃ§Ã£o" style="shape=module;align=left;spacingLeft=20;align=center;verticalAlign=top;whiteSpace=wrap;html=1;" parent="1" vertex="1">
          <mxGeometry x="1025" y="1208" width="125" height="50" as="geometry" />
        </mxCell>
        <mxCell id="cQQWW6PoBTc1h7torGU0-35" style="edgeStyle=orthogonalEdgeStyle;rounded=0;orthogonalLoop=1;jettySize=auto;html=1;entryX=0.5;entryY=0.077;entryDx=0;entryDy=0;entryPerimeter=0;dashed=1;" parent="1" target="cQQWW6PoBTc1h7torGU0-12" edge="1">
          <mxGeometry relative="1" as="geometry">
            <mxPoint x="887.13" y="1073" as="sourcePoint" />
            <mxPoint x="887.2750000000003" y="1197.4" as="targetPoint" />
            <Array as="points" />
          </mxGeometry>
        </mxCell>
        <mxCell id="ct-gwoAy681frLbDx2MT-1" value="DAOPostagem" style="shape=module;align=left;spacingLeft=20;align=center;verticalAlign=top;whiteSpace=wrap;html=1;" vertex="1" parent="1">
          <mxGeometry x="1114" y="948" width="125" height="50" as="geometry" />
        </mxCell>
      </root>
    </mxGraphModel>
  </diagram>
</mxfile>
